<?xml version="1.0" encoding="UTF-8" standalone="no"?>
<svg stroke-linejoin="round" xmlns:rdf="http://www.w3.org/1999/02/22-rdf-syntax-ns#" xmlns="http://www.w3.org/2000/svg" fill-rule="evenodd" xml:space="preserve" height="100%" width="100%" version="1.1" stroke-miterlimit="1.4142" clip-rule="evenodd" xmlns:cc="http://creativecommons.org/ns#" xmlns:dc="http://purl.org/dc/elements/1.1/" viewBox="0 0 512 512"><path d="m500.37 395.14c0 59.123-47.941 107.06-107.06 107.06h-274.7c-59.13 0-107.05-47.934-107.05-107.06v-274.7c-0.003-59.12 47.919-107.04 107.05-107.04h274.7c59.123 0 107.06 47.921 107.06 107.04v274.7h0.006z" fill-rule="nonzero" fill="url(#_Radial1)"/><clipPath id="_clip2"><path d="m500.37 395.14c0 59.123-47.941 107.06-107.06 107.06h-274.7c-59.13 0-107.05-47.934-107.05-107.06v-274.7c-0.003-59.12 47.919-107.04 107.05-107.04h274.7c59.123 0 107.06 47.921 107.06 107.04v274.7h0.006z"/></clipPath><g clip-path="url(#_clip2)"><clipPath id="_clip3"><rect y="21.104" width="470.67" x="17.277" height="468.81"/></clipPath><g clip-path="url(#_clip3)"><g opacity=".3" fill="#6eb5dd"><g fill-rule="nonzero"><path d="m47.622 216.46c0.362-2.379 2.423-4.184 4.895-4.184 1.055 0 2.029 0.319 2.841 0.887-0.905-1.286-2.391-2.123-4.09-2.123-2.528 0-4.62 1.892-4.92 4.352 0.468 0.268 0.906 0.631 1.274 1.068z"/><path d="m36.782 241.92-0.468-32.861-16.621 33.417 17.258 11.938-0.169-12.494"/><path d="m58.105 259.46c3.809-0.862 7.549-7.224 7.549-7.224l-26.599 2.647-0.493 0.05-19.031 1.324 1.679 6.044s33.074-1.973 36.895-2.841z"/><path d="m47.653 216.41c-0.374-0.094-0.755-0.131-1.155-0.131-2.754 0-4.958 2.21-4.958 4.957 0 1.174 0.181 2.023 0.6 2.617-1.13-0.912-1.848-2.298-1.848-3.853 0-2.741 2.222-4.97 4.963-4.97 0.406 0 0.812 0.056 1.187 0.15-3.203-3.266-6.15-6.363-7.88-9.335 0 0 0.044 48.265-0.212 48.552 0 0 4.202-6.218 21.16-13.786 2.71-9.035-4.801-17.008-11.857-24.201z"/></g><g fill-rule="nonzero"><path d="m398.84 52.286c0.362-2.373 2.416-4.178 4.889-4.178 1.061 0 2.042 0.331 2.853 0.875-0.911-1.287-2.397-2.13-4.089-2.13-2.529 0-4.627 1.905-4.933 4.359 0.487 0.281 0.912 0.643 1.28 1.074z"/><path d="m388 77.742-0.469-32.843-16.621 33.411 17.258 11.932-0.168-12.5"/><path d="m409.33 95.287c3.815-0.874 7.542-7.224 7.542-7.224l-26.586 2.647-0.5 0.038-19.025 1.329 1.686 6.045c-0.007 0 33.061-1.961 36.883-2.835z"/><path d="m398.87 52.242c-0.368-0.088-0.755-0.138-1.155-0.138-2.741 0-4.964 2.23-4.964 4.964 0 1.174 0.175 2.036 0.612 2.623-1.136-0.918-1.842-2.31-1.842-3.871 0-2.741 2.21-4.964 4.952-4.964 0.399 0 0.805 0.062 1.205 0.156-3.222-3.266-6.176-6.356-7.905-9.341 0 0 0.05 48.271-0.212 48.558 0 0 4.214-6.219 21.166-13.767 2.723-9.054-4.789-17.034-11.857-24.22z"/></g><g fill-rule="nonzero"><path d="m250.21 42.789c-0.269 3.515-3.565 3.49-4.396 3.627l-2.972-0.006-4.664 14.604-3.784 1.449 2.048-17.258-13.524-0.712-0.175 3.341-2.167-0.288-1.124-3.084-1.998-0.112-1.692-0.313s-0.68-0.224-1.124-0.518c-0.537-0.349-0.78-0.78-0.793-1.511-0.012-0.175 0.113-1.604 1.324-2.116 0.4-0.169 1.118-0.331 1.118-0.331l0.774-0.219 2.092-0.437 1.367-3.315 2.21-0.144-0.037 3.709 13.412 0.05 0.468-16.871 3.703 1.698 2.916 14.748 2.991 0.094c0.799 0.2 4.177 0.63 4.039 3.896l-0.012 0.019z"/><path d="m147.05 420.7c-0.137 3.153-3.085 3.209-3.821 3.378l-2.66 0.062-3.74 13.15-3.353 1.417 1.342-15.466-12.076-0.262-0.068 2.997-1.948-0.194-1.081-2.728-1.785-0.044-1.53-0.231s-0.612-0.175-1.03-0.431c-0.487-0.306-0.7-0.655-0.743-1.323-0.013-0.15 0.043-1.443 1.124-1.948 0.337-0.157 0.986-0.3 0.986-0.3l0.681-0.219 1.854-0.468 1.124-2.991 1.979-0.175 0.063 3.297 11.976-0.318-0.05-15.06 3.346 1.392 3.022 13.081 2.654 0.006c0.731 0.144 3.753 0.443 3.715 3.365l0.019 0.013z"/><path d="m447.49 31.987c2.136 3.272-0.768 5.451-1.405 6.144l-2.622 1.992 5.757 15.965-2.367 3.828-9.809-16.528-12.356 8.467 2.11 3.059-2.11 1.23-3.06-1.96-1.848 1.223-1.692 0.9s-0.762 0.262-1.343 0.299c-0.705 0.05-1.18-0.162-1.711-0.799-0.124-0.15-0.992-1.48-0.281-2.76 0.231-0.399 0.775-1.03 0.775-1.03l0.543-0.718 1.523-1.804-1.036-3.828 1.854-1.617 2.473 3.29 11.813-8.997-10.951-15.135 4.389-1.011 12.5 10.995 2.698-1.929c0.843-0.388 4.077-2.273 6.156 0.693v0.031z"/></g><g fill-rule="nonzero"><path d="m70.462 75.338-5.189 0.068c-0.112 0.157-0.174 0.331-0.174 0.506l0.093 7.543c0 0.918 1.911 1.661 4.246 1.636 2.342-0.038 4.221-0.806 4.202-1.73l-0.075-7.561c-0.006-0.175-0.093-0.356-0.212-0.512-1.111 0.162-2.167 0.05-2.891 0.05z"/><path d="m25.537 75.4c-0.137 0.169-0.212 0.362-0.212 0.543l0.087 7.549c0.013 0.924 1.917 1.674 4.265 1.636 2.316-0.025 4.208-0.805 4.19-1.742l-0.088-7.542-4.552 0.074c-0.768-0.006-2.179-0.074-3.69-0.518z"/><path d="m78.292 66.222-3.484-35.397c-0.094-5.007-2.535-7.873-5.401-7.892h-42.79c-2.322 0-4.189 3.066-4.189 6.868l-2.61 35.846c-0.693 6.488 2.71 8.879 5.719 9.759 0.55-0.674 2.129-1.167 4.009-1.198 2.323-0.025 4.227 0.711 4.233 1.642l31.501-0.431c0.537-0.693 2.129-1.224 4.027-1.236 1.886-0.038 3.472 0.437 4.046 1.111 2.354-0.381 4.939-2.06 4.939-9.072zm-36.009-39.855h13.15c1.617 0 2.935 1.305 2.935 2.929 0 1.623-1.312 2.947-2.935 2.947h-13.15c-1.629 0-2.947-1.324-2.947-2.947 0-1.624 1.318-2.929 2.947-2.929zm-13.524 12.376c0-1.83 1.48-3.297 3.291-3.297h33.611c1.81 0 3.296 1.467 3.296 3.297v17.432c0 1.811-1.486 3.291-3.296 3.291h-33.611c-1.811 0-3.291-1.48-3.291-3.291v-17.432zm4.227 31.893c-2.522 0-4.57-1.892-4.57-4.233 0-2.335 2.048-4.221 4.57-4.221 2.541 0 4.608 1.886 4.608 4.221s-2.067 4.233-4.608 4.233zm24.12-0.087h-16.196c-0.325 0-0.587-0.262-0.587-0.593 0-0.325 0.262-0.594 0.587-0.594h16.196c0.331 0 0.594 0.269 0.594 0.594 0.006 0.331-0.263 0.593-0.594 0.593zm0-2.236h-16.196c-0.325 0-0.587-0.262-0.587-0.586 0-0.325 0.262-0.606 0.587-0.606h16.196c0.331 0 0.594 0.281 0.594 0.606 0 0.324-0.263 0.586-0.594 0.586zm0-2.235h-16.196c-0.325 0-0.587-0.262-0.587-0.599s0.262-0.606 0.587-0.606h16.196c0.331 0 0.594 0.269 0.594 0.606s-0.263 0.599-0.594 0.599zm0-2.248h-16.196c-0.325 0-0.587-0.262-0.587-0.593 0-0.337 0.262-0.599 0.587-0.599h16.196c0.331 0 0.594 0.262 0.594 0.599 0.006 0.331-0.263 0.593-0.594 0.593zm8.786 6.569c-2.529 0-4.577-1.892-4.577-4.233 0-2.342 2.054-4.234 4.577-4.234 2.541 0 4.589 1.892 4.589 4.234-0.006 2.347-2.048 4.233-4.589 4.233z"/><path d="m69.301 74.176c-1.898 0.013-3.491 0.537-4.028 1.237l5.189-0.069c0.724 0 1.78 0.112 2.885-0.056-0.575-0.675-2.161-1.149-4.046-1.112z"/><path d="m29.546 74.201c-1.88 0.032-3.459 0.519-4.009 1.199 1.511 0.444 2.922 0.518 3.684 0.518l4.552-0.074c0-0.931-1.904-1.668-4.227-1.643z"/></g><g fill-rule="nonzero"><path d="m475.19 169.13-5.177 0.063c-0.112 0.162-0.174 0.331-0.174 0.499l0.074 7.549c0.025 0.93 1.93 1.661 4.271 1.642 2.342-0.031 4.221-0.799 4.209-1.736l-0.088-7.548c0-0.188-0.087-0.362-0.231-0.512-1.099 0.15-2.141 0.043-2.884 0.043zm-44.907 0.057c-0.143 0.181-0.224 0.362-0.212 0.543l0.087 7.555c0.007 0.918 1.905 1.667 4.24 1.611 2.335-0.006 4.221-0.787 4.215-1.73l-0.088-7.549-4.558 0.069c-0.78 0.006-2.191-0.056-3.684-0.499zm52.73-9.179-3.471-35.396c-0.1-5.001-2.523-7.874-5.389-7.892h-42.808c-2.298 0-4.184 3.078-4.184 6.855l-2.61 35.859c-0.686 6.481 2.717 8.872 5.732 9.759 0.544-0.668 2.117-1.18 3.984-1.193 2.329-0.037 4.233 0.706 4.258 1.636l31.495-0.431c0.53-0.68 2.129-1.205 4.033-1.242 1.886-0.013 3.459 0.449 4.027 1.13 2.361-0.387 4.933-2.067 4.933-9.085zm-36.002-39.848h13.162c1.617 0 2.935 1.305 2.935 2.928 0 1.643-1.318 2.947-2.935 2.947h-13.162c-1.611 0-2.941-1.304-2.941-2.947 0-1.623 1.33-2.928 2.941-2.928zm-13.512 12.369c0-1.811 1.461-3.29 3.278-3.29h33.617c1.811 0 3.291 1.486 3.291 3.29v17.439c0 1.823-1.48 3.291-3.291 3.291h-33.617c-1.817 0-3.278-1.468-3.278-3.291v-17.439zm4.227 31.887c-2.522 0-4.57-1.892-4.57-4.221 0-2.341 2.048-4.239 4.57-4.239 2.535 0 4.589 1.892 4.589 4.239 0.007 2.329-2.048 4.221-4.589 4.221zm24.127-0.075h-16.21c-0.318 0-0.599-0.262-0.599-0.587 0-0.33 0.281-0.605 0.599-0.605h16.21c0.33 0 0.593 0.268 0.593 0.605-0.007 0.325-0.269 0.587-0.593 0.587zm0-2.241h-16.21c-0.318 0-0.599-0.262-0.599-0.587 0-0.337 0.281-0.599 0.599-0.599h16.21c0.33 0 0.593 0.262 0.593 0.599-0.007 0.325-0.269 0.587-0.593 0.587zm0-2.242h-16.21c-0.318 0-0.599-0.262-0.599-0.593 0-0.325 0.281-0.581 0.599-0.581h16.21c0.33 0 0.593 0.263 0.593 0.581-0.007 0.331-0.269 0.593-0.593 0.593zm0-2.241h-16.21c-0.318 0-0.599-0.256-0.599-0.581 0-0.337 0.281-0.599 0.599-0.599h16.21c0.33 0 0.593 0.262 0.593 0.599-0.007 0.325-0.269 0.581-0.593 0.581zm8.778 6.575c-2.522 0-4.583-1.905-4.583-4.228 0-2.341 2.061-4.227 4.583-4.227 2.536 0 4.577 1.886 4.577 4.227 0 2.323-2.041 4.228-4.577 4.228z"/><path d="m474.05 167.95c-1.904 0.032-3.503 0.556-4.034 1.243l5.177-0.063c0.743 0 1.779 0.107 2.878-0.043-0.568-0.681-2.135-1.143-4.021-1.137z"/><path d="m434.27 167.99c-1.867 0.013-3.44 0.525-3.984 1.193 1.493 0.437 2.904 0.505 3.678 0.505l4.558-0.068c-0.025-0.924-1.923-1.674-4.252-1.63z"/></g><g fill-rule="nonzero"><path d="m33.061 103.58c0.381 0.299 0.799 0.505 1.261 0.618 0.45 0.112 0.937 0.112 1.399-0.031l10.733-3.416c0.469-0.143 0.862-0.424 1.18-0.78 0.462-0.531 0.725-1.212 0.818-1.955 0.119-0.73 0.032-1.548-0.224-2.354l-0.681 0.231-0.687 0.213c0.262 0.818 0.25 1.617 0.069 2.198-0.094 0.306-0.219 0.562-0.369 0.718-0.162 0.181-0.337 0.299-0.53 0.362l-10.715 3.396c-0.218 0.075-0.424 0.082-0.643 0.025-0.337-0.081-0.737-0.318-1.086-0.686-0.363-0.388-0.662-0.912-0.862-1.524-0.25-0.799-0.244-1.611-0.062-2.191 0.106-0.294 0.224-0.537 0.387-0.725 0.162-0.175 0.324-0.287 0.518-0.362l10.733-3.398c0.194-0.056 0.394-0.068 0.618-0.018 0.344 0.087 0.743 0.324 1.087 0.699 0.349 0.387 0.668 0.893 0.855 1.511l0.687-0.212 0.681-0.231c-0.344-1.068-0.943-1.955-1.717-2.542-0.381-0.293-0.8-0.512-1.256-0.611-0.455-0.113-0.942-0.113-1.411 0.031l-10.72 3.403c-0.462 0.143-0.856 0.418-1.168 0.78-0.462 0.525-0.731 1.205-0.83 1.948-0.113 0.743-0.032 1.555 0.231 2.354 0.337 1.08 0.942 1.961 1.704 2.548z"/><path d="m21.81 108.89c-2.111 0.668-3.272 2.929-2.604 5.039l6.45 20.286c0.662 2.104 2.928 3.284 5.032 2.616l3.46-1.099-8.854-27.847 2.048-0.656 8.854 27.854 25.038-7.955-8.885-27.941-30.539 9.703zm29.352 1.23-4.414-3.371-1.78-3.297 1.024-1.424 3.715 0.787 4.446 3.384-2.991 3.921z"/><path d="m71.099 115.32 0.056 0.056-0.031-0.093-0.025 0.037z"/><path d="m67.228 102.94-0.019 0.019 0.013 0.012 0.006-0.031z"/><path d="m72.423 119.36-1.268-3.984-0.056-0.056 0.019-0.037 0.031 0.093 0.044 0.044-4.071-12.382 0.081-0.074-1.23-3.903c-0.675-2.11-2.941-3.278-5.052-2.61l-6.531 2.073 8.892 27.941 6.512-2.073c2.117-0.662 3.291-2.928 2.629-5.032z"/></g><path d="m54.33 98.26-2.069 0.644 0.082 0.262 2.068-0.644-0.081-0.262z"/><g fill-rule="nonzero"><path d="m194.47 458.61 0.063 0.075-0.05-0.125-0.013 0.05z"/><path d="m189.63 443.16-0.018 0.019v0.006l0.018-0.025z"/><path d="m163.11 442.02-1.267 1.786 2.216 4.096 5.508 4.227 3.746-4.895-5.545-4.233-4.658-0.981z"/><path d="m194.47 458.61 0.063 0.075-0.05-0.125-0.013 0.05z"/><path d="m161.77 431.87c-0.287-0.068-0.556-0.068-0.793 0.006l-13.393 4.265c-0.25 0.062-0.468 0.212-0.656 0.437-0.187 0.219-0.368 0.525-0.474 0.88-0.237 0.756-0.244 1.755 0.081 2.754 0.237 0.78 0.624 1.424 1.074 1.892 0.431 0.474 0.93 0.755 1.349 0.88 0.281 0.063 0.537 0.063 0.78-0.025l13.406-4.258c0.237-0.087 0.449-0.231 0.649-0.443 0.187-0.225 0.356-0.519 0.481-0.893 0.231-0.743 0.237-1.736-0.1-2.76-0.237-0.749-0.612-1.405-1.043-1.886-0.449-0.468-0.943-0.749-1.361-0.849z"/><path d="m146.98 443.95c0.468 0.368 1.005 0.637 1.567 0.762 0.562 0.149 1.168 0.137 1.755-0.044l13.387-4.258c0.574-0.188 1.074-0.525 1.455-0.962 0.58-0.668 0.917-1.505 1.049-2.441 0.118-0.918 0.031-1.942-0.281-2.935l-0.856 0.262-0.874 0.269c0.337 1.024 0.331 2.017 0.1 2.76-0.131 0.374-0.294 0.661-0.481 0.892-0.2 0.213-0.412 0.363-0.649 0.444l-13.406 4.258c-0.243 0.087-0.499 0.087-0.78 0.025-0.419-0.125-0.918-0.4-1.349-0.88-0.45-0.469-0.837-1.112-1.074-1.892-0.325-0.999-0.318-1.998-0.081-2.754 0.112-0.356 0.287-0.662 0.474-0.88 0.188-0.225 0.406-0.375 0.656-0.437l13.393-4.265c0.237-0.075 0.506-0.075 0.793-0.006 0.418 0.1 0.912 0.387 1.368 0.855 0.437 0.481 0.805 1.137 1.042 1.886l0.874-0.268 0.856-0.263c-0.431-1.348-1.193-2.441-2.154-3.184-0.469-0.362-1.006-0.643-1.58-0.768-0.549-0.15-1.161-0.15-1.742 0.044l-13.387 4.258c-0.593 0.175-1.08 0.524-1.467 0.968-0.581 0.662-0.912 1.504-1.037 2.435-0.118 0.93-0.037 1.942 0.275 2.953 0.431 1.324 1.199 2.448 2.154 3.166z"/><path d="m132.92 450.57c-2.635 0.831-4.102 3.659-3.266 6.307l8.049 25.325c0.843 2.641 3.659 4.102 6.312 3.272l4.29-1.368-11.052-34.791 2.573-0.824 11.051 34.791 31.251-9.934-11.089-34.891-38.119 12.113zm36.646 1.555-5.508-4.227-2.216-4.096 1.267-1.786 4.658 0.981 5.545 4.233-3.746 4.895z"/><path d="m196.1 463.65-1.561-4.964-0.062-0.081 0.012-0.05 0.05 0.131 0.05 0.063-5.089-15.473 0.119-0.099-1.549-4.864c-0.836-2.642-3.658-4.115-6.306-3.253l-8.142 2.585 11.077 34.871 8.161-2.566c2.628-0.849 4.083-3.659 3.24-6.3z"/></g><g fill-rule="nonzero"><path d="m132.39 478.7c-1.548-1.917-1.848-4.983-1.848-9.634 0-4.821 0.681-9.397 2.373-13.287-2.261 3.933-3.566 8.46-3.566 13.287 0 1.398 0.032 2.666 0.119 3.833 0.05 0.013 0.094 0.013 0.125 0.013 0.05 0.025 0 0.044 0.012 0.044 0.169 1.223 0.562 3.103 0.725 4.008-0.063 0-0.119-0.012-0.181-0.012 0.331 1.024 0.774 1.929 1.398 2.71 1.83 2.247 4.646 2.803 7.431 2.94-0.169-0.487-0.3-0.999-0.381-1.523-2.791-0.156-4.858-0.718-6.207-2.379z"/><path d="m161.18 480.97c-1.873-0.068-3.803-0.118-5.751-0.137-0.062 0.512-0.168 1.012-0.312 1.499 2.129 0.012 4.258 0.075 6.331 0.143 1.33 0.063 2.604 0.088 3.853 0.125-0.156-0.487-0.287-0.98-0.368-1.498-1.218-0.032-2.467-0.075-3.753-0.132z"/></g><ellipse rx="7.299" ry="6.581" cy="431.32" cx="92.172"/><g fill-rule="nonzero"><path d="m97.773 460.76c0.581 1.998 2.985 3.097 5.32 2.466 2.366-0.636 3.809-2.778 3.209-4.795l-5.151-17.501c-0.587-1.998-2.966-3.097-5.32-2.46-2.354 0.649-3.796 2.772-3.209 4.789l5.151 17.501z"/><path d="m98.46 448.58c2.198-0.425 3.659-2.186 3.303-3.915-0.381-1.742-2.441-2.81-4.621-2.392l-19.137 3.747c-2.179 0.412-3.665 2.166-3.291 3.915 0.344 1.742 2.417 2.803 4.615 2.366l19.131-3.721z"/><path d="m101.15 468.42c0.949-1.942 0.343-4.128-1.324-4.864-1.686-0.75-3.802 0.231-4.72 2.173l-8.198 17.07c-0.949 1.942-0.338 4.121 1.336 4.858 1.673 0.755 3.784-0.225 4.726-2.179l8.18-17.058z"/><path d="m109.47 465.15c-0.905-1.954-3.01-2.96-4.696-2.235-1.685 0.73-2.31 2.89-1.392 4.863l7.98 17.134c0.905 1.96 3.003 2.965 4.695 2.247 1.674-0.73 2.298-2.916 1.393-4.87l-7.98-17.139z"/><path d="m101.91 438.39 7.387 17.857 12.082-4.102-6.7-15.498-12.769 1.743z"/><path d="m71.904 444.37 9.335 42.558 1.755-0.393-9.322-42.552"/></g><ellipse rx="3.821" ry="3.453" cy="407.35" cx="318.52"/><g fill-rule="nonzero"><path d="m321.45 422.75c0.293 1.036 1.548 1.623 2.778 1.28 1.23-0.337 1.973-1.455 1.68-2.491l-2.716-9.166c-0.3-1.049-1.543-1.611-2.766-1.287-1.23 0.338-1.98 1.468-1.674 2.504l2.698 9.16z"/><path d="m321.8 416.39c1.143-0.249 1.923-1.148 1.724-2.054-0.175-0.911-1.262-1.473-2.41-1.255l-10.009 1.955c-1.149 0.224-1.917 1.136-1.73 2.048 0.194 0.911 1.292 1.467 2.429 1.248l9.996-1.942z"/><path d="m323.21 426.76c0.494-1.017 0.182-2.154-0.693-2.553-0.874-0.394-1.973 0.125-2.466 1.142l-4.283 8.917c-0.487 1.024-0.181 2.166 0.699 2.553 0.862 0.4 1.973-0.125 2.473-1.13l4.27-8.929z"/><path d="m327.56 425.05c-0.487-1.031-1.585-1.561-2.453-1.174-0.881 0.374-1.205 1.511-0.743 2.541l4.183 8.966c0.475 1.03 1.573 1.549 2.466 1.168 0.862-0.369 1.193-1.517 0.731-2.535l-4.184-8.966z"/><path d="m323.62 411.04 3.859 9.341 6.319-2.155-3.503-8.104-6.675 0.918z"/><path d="m307.91 414.17 4.889 22.259 0.918-0.206-4.877-22.253"/></g><ellipse rx="5.02" ry="4.527" cy="307.13" cx="412.95"/><g fill-rule="nonzero"><path d="m416.79 327.38c0.4 1.368 2.042 2.13 3.659 1.692 1.624-0.443 2.623-1.904 2.211-3.29l-3.528-12.032c-0.419-1.386-2.055-2.135-3.678-1.698-1.623 0.449-2.61 1.929-2.217 3.303l3.553 12.025z"/><path d="m417.26 319c1.511-0.293 2.517-1.504 2.279-2.703-0.256-1.18-1.661-1.923-3.172-1.636l-13.168 2.566c-1.499 0.294-2.51 1.492-2.26 2.704 0.231 1.192 1.654 1.917 3.165 1.636l13.156-2.567z"/><path d="m419.13 332.66c0.631-1.33 0.225-2.854-0.93-3.353-1.143-0.525-2.61 0.156-3.247 1.504l-5.625 11.726c-0.65 1.337-0.232 2.835 0.899 3.347 1.161 0.518 2.635-0.15 3.253-1.492l5.65-11.732z"/><path d="m424.84 330.4c-0.63-1.348-2.079-2.035-3.24-1.536-1.149 0.506-1.592 1.992-0.962 3.335l5.501 11.807c0.631 1.336 2.073 2.035 3.234 1.536 1.162-0.506 1.574-1.992 0.956-3.341l-5.489-11.801z"/><path d="m419.63 311.98 5.07 12.288 8.323-2.822-4.62-10.664-8.773 1.198z"/><path d="m399 316.11 6.425 29.271 1.211-0.262-6.437-29.277"/></g><ellipse rx="3.821" ry="3.44" cy="118.28" cx="84.879"/><g fill-rule="nonzero"><path d="m87.814 133.67c0.3 1.043 1.548 1.611 2.779 1.28 1.242-0.344 1.985-1.449 1.679-2.504l-2.691-9.16c-0.306-1.036-1.561-1.61-2.797-1.28-1.224 0.331-1.961 1.455-1.68 2.498l2.71 9.166z"/><path d="m88.176 127.29c1.149-0.206 1.911-1.142 1.723-2.035-0.181-0.918-1.273-1.461-2.41-1.249l-10.015 1.961c-1.143 0.2-1.911 1.124-1.73 2.042 0.188 0.911 1.274 1.454 2.429 1.236l10.003-1.955z"/><path d="m89.587 137.68c0.494-1.017 0.175-2.166-0.699-2.56-0.874-0.387-1.986 0.125-2.466 1.143l-4.284 8.935c-0.487 1.012-0.181 2.148 0.693 2.535 0.881 0.4 1.992-0.112 2.473-1.136l4.283-8.917z"/><path d="m93.914 135.96c-0.468-1.03-1.561-1.554-2.447-1.167-0.881 0.381-1.199 1.511-0.731 2.541l4.171 8.96c0.481 1.03 1.58 1.555 2.466 1.174 0.868-0.375 1.199-1.517 0.731-2.535l-4.19-8.973z"/><path d="m89.968 121.96 3.871 9.354 6.313-2.154-3.503-8.099-6.681 0.899z"/><path d="m74.283 125.11 4.889 22.241 0.912-0.194-4.87-22.259"/></g><g fill-rule="nonzero"><path d="m60.11 147.41c-15.142 0-27.405 12.282-27.405 27.411 0 15.141 12.263 27.41 27.405 27.41 15.129 0 27.404-12.269 27.404-27.41 0-15.129-12.269-27.411-27.404-27.411zm0 43.639c-8.967 0-16.234-7.268-16.234-16.228 0-8.954 7.267-16.222 16.234-16.222 8.96 0 16.234 7.268 16.234 16.222 0 8.96-7.274 16.228-16.234 16.228z"/><path d="m88.401 164.77c-0.013 0.119 0 0.063 0.019-0.1 0-0.1 0-0.081-0.019 0.1z"/><path d="m98.866 164.97s-0.138-1.261-0.288-2.997c-0.156-1.917-0.393-3.99-0.543-5.582-0.368-4.196-0.73-4.77-0.562-4.77 0.313 0-1.08-0.056-1.174-0.069 0.019 0.025-0.38 7.805-0.574 10.408 0 0-0.381 0.45-0.693 0-0.337-0.462-0.874-10.04-1.024-10.358-0.056-0.106-0.918 0-0.918 0 0.119-0.013-0.4 4.046-0.824 10.34 0 0-0.649 0.374-0.974-0.006-0.312-0.394 0.206-10.284-0.312-10.303h-0.544-0.012 0.012-0.212c-0.293 0-0.662 2.367-0.837 4.327-0.156 1.792-0.399 3.428-0.574 5.451-0.075 0.818-0.3 2.71-0.381 3.272-0.012 0.287-0.087 1.742 0.025 2.123 0.787 2.697 4.696 2.66 4.721 4.458 0.043 3.883-0.481 11.301-0.625 14.504-0.656 16.122-1.492 14.904 0.843 14.96 3.028 0.082 1.83 1.362 1.38-14.835-0.087-3.147-0.337-10.427-0.393-14.286 0-0.118 0.018-0.231 0.018-0.343 0.125-2.017 3.397-1.592 4.346-4.452 0.038-0.2 0.15-1.605 0.119-1.842z"/><path d="m28.878 189.05c0.056-4.501-0.325-9.84-0.288-13.855 0.025-4.264-0.218-20.136-0.374-24.407-4.602-0.106-5.201 12.888-5.339 16.584-0.306 8.841 0.369 10.658 3.172 10.845-0.275 6.363-1.261 13.412-0.487 20.218 0.412 3.703 2.804 3.94 3.203 1.461 0.519-3.159 0.075-6.175 0.113-10.846z"/></g><g fill-rule="nonzero"><path d="m271.45 429.94c-15.116 0-27.398 12.256-27.398 27.404 0 15.141 12.276 27.41 27.398 27.41 15.148 0 27.417-12.269 27.417-27.41s-12.269-27.404-27.417-27.404zm0 43.619c-8.941 0-16.209-7.255-16.209-16.215 0-8.966 7.274-16.228 16.209-16.228 8.967 0 16.235 7.262 16.235 16.228 0 8.96-7.268 16.215-16.235 16.215z"/><path d="m299.75 447.28c-0.012 0.131-0.006 0.075 0.013-0.1 0-0.081 0-0.069-0.013 0.1z"/><path d="m310.21 447.49s-0.15-1.261-0.3-2.997c-0.137-1.929-0.381-4.002-0.525-5.588-0.38-4.19-0.73-4.764-0.574-4.764 0.306 0-1.074-0.063-1.18-0.081 0.044 0.025-0.368 7.798-0.556 10.402 0 0-0.387 0.449-0.699-0.013-0.331-0.443-0.887-10.021-1.018-10.34-0.062-0.118-0.918-0.012-0.918-0.012 0.106-0.006-0.399 4.052-0.83 10.334 0 0-0.65 0.399-0.974 0-0.325-0.388 0.206-10.278-0.312-10.278h-0.544-0.012 0.012-0.212c-0.287-0.006-0.674 2.348-0.837 4.321-0.168 1.779-0.412 3.434-0.574 5.445-0.081 0.799-0.318 2.697-0.393 3.265 0 0.294-0.075 1.742 0.031 2.135 0.793 2.704 4.695 2.648 4.72 4.452 0.044 3.878-0.481 11.314-0.618 14.511-0.662 16.109-1.505 14.904 0.824 14.96 3.047 0.056 1.836 1.355 1.399-14.841-0.094-3.16-0.35-10.44-0.387-14.293 0-0.112 0-0.218 0.012-0.343 0.113-2.023 3.397-1.586 4.327-4.452 0.081-0.181 0.169-1.586 0.138-1.823z"/><path d="m240.23 471.57c0.044-4.508-0.331-9.84-0.3-13.848 0.038-4.277-0.212-20.155-0.374-24.426-4.602-0.106-5.195 12.893-5.333 16.59-0.324 8.847 0.375 10.658 3.16 10.839-0.275 6.362-1.255 13.412-0.487 20.236 0.424 3.684 2.816 3.934 3.215 1.443 0.525-3.154 0.082-6.176 0.119-10.834z"/></g><g fill-rule="nonzero"><path d="m345.48 21.61c-10.646 0-19.268 8.629-19.268 19.262 0 10.646 8.622 19.281 19.268 19.281 10.634 0 19.256-8.635 19.256-19.281 0-10.64-8.622-19.262-19.256-19.262zm0 30.669c-6.306 0-11.414-5.095-11.414-11.407 0-6.294 5.108-11.401 11.414-11.401 6.307 0 11.414 5.107 11.414 11.401 0 6.306-5.107 11.407-11.414 11.407z"/><path d="m365.37 33.804c-0.012 0.093 0 0.044 0.007-0.088-0.007-0.056-0.007-0.043-0.007 0.088z"/><path d="m372.72 33.954s-0.112-0.906-0.199-2.117c-0.107-1.342-0.275-2.803-0.381-3.921-0.262-2.947-0.506-3.359-0.394-3.359 0.231 0-0.743-0.032-0.843-0.044 0.025 0.025-0.256 5.495-0.393 7.311 0 0-0.268 0.313-0.481 0-0.231-0.324-0.624-7.061-0.711-7.28-0.044-0.081-0.65 0-0.65 0 0.075-0.006-0.275 2.835-0.587 7.268 0 0-0.449 0.262-0.668-0.012-0.225-0.263 0.131-7.218-0.225-7.218-0.262-0.007-0.349-0.007-0.374-0.007h-0.013 0.013-0.169c-0.206 0-0.462 1.649-0.581 3.047-0.112 1.249-0.287 2.404-0.405 3.84-0.063 0.556-0.213 1.886-0.275 2.273-0.006 0.212-0.063 1.236 0.031 1.505 0.543 1.904 3.291 1.873 3.303 3.128 0.038 2.735-0.331 7.955-0.437 10.215-0.45 11.326-1.049 10.477 0.593 10.508 2.142 0.057 1.286 0.968 0.974-10.414-0.056-2.217-0.237-7.343-0.262-10.059 0-0.069 0-0.163 0.012-0.237 0.088-1.43 2.392-1.118 3.035-3.135 0.037-0.162 0.106-1.149 0.087-1.292z"/><path d="m323.51 50.874c0.038-3.171-0.231-6.911-0.193-9.734 0.018-2.997-0.169-14.167-0.269-17.17-3.253-0.075-3.659 9.06-3.765 11.657-0.225 6.225 0.262 7.499 2.223 7.63-0.187 4.464-0.881 9.441-0.344 14.217 0.294 2.604 1.974 2.779 2.267 1.03 0.375-2.229 0.05-4.358 0.081-7.63z"/></g><g fill-rule="nonzero"><path d="m231.5 78.741c2.073 2.141 3.166 3.684 4.033 4.82-1.742-1.374-5.307-4.296-8.897-7.268-5.089-4.221-10.284-8.604-10.615-8.891 0.019 0.006 0.031 0.006 0.038 0.019-0.007-0.019-0.025-0.019-0.038-0.025h-0.006c-2.91-2.254-5.888-3.94-16.328-8.779-3.465-1.605-6.962-2.766-11.164-4.096-2.41-0.774-4.377-1.436-6.875-1.786-1.048-0.137-2.597-0.449-3.777-0.337-1.53 0.156-2.192 0.331-2.623 0.412 2.854-2.679 4.365-4.165 6.557-3.746 1.991 0.406 9.852 2.641 12.619 3.827 11.363 4.864 3.59 1.58 10.514 4.652 13.606 6.075 20.324 14.71 26.562 21.198z"/><path d="m230.52 72.253-2.991-3.602s-0.418-3.335-0.2-4.059c0.225-0.724 2.429-0.506 2.723 1.224 0.293 1.723 0.156 3.134 0.468 6.437z"/><path d="m161.44 52.579c0.006 0 0.019-0.006 0.044-0.006 4.058-0.094 8.504 0.281 13.099 1.08 17.427 2.991 37.489 11.863 51.563 23.396 4.089 3.359 7.667 6.918 10.539 10.639-5.107 0.225-11.719-4.115-29.602-5.488-8.835-0.681-15.16-0.013-25.307 10.571-2.154-9.123-3.321-15.466-9.209-22.909-3.091-3.921-7.356-9.129-11.214-11.32-3.197-1.823-6.176-6.044 0.087-5.963z"/><path d="m226.81 67.677-3.384-3.166s-0.506-3.784-0.25-4.652c0.262-0.824 2.791-0.574 3.122 1.405 0.337 1.973 0.137 2.635 0.512 6.413z"/><path d="m212.67 60.253c2.941 1.867-2.248-1.78-8.623-5.289-5.026-2.747-17.033-7.268-19.143-7.168l-0.113-0.206c1.205-0.799 1.786-0.943 4.34-2.51 1.13-0.68 5.894 0.912 7.686 1.817 10.015 5.045 8.773 4.408 13.156 7.668 11.595 8.635 16.14 14.498 19.175 18.331 1.523 1.917 3.128 4.49 4.339 6.344-2.859-3.79-9.615-11.751-20.817-18.987z"/><path d="m180.57 93.164c-0.093-0.125-2.472-2.292-5.201-2.104-2.81-0.038-5.007 1.867-5.388 2.135-0.856 0.518-2.105 0.337-2.923-0.662-0.799-0.961-0.543-2.691 0.762-3.515 0.562-0.468 4.446-1.748 7.799-0.287 3.322 1.167 4.858 4.239 4.951 4.433z"/><path d="m172.71 86.808c0.3-0.069 2.08-0.625 3.797 0.175 1.786 0.686 2.791 2.809 2.76 2.791 0 0.068-0.188-2.404-2.073-4.153-1.755-1.835-4.446-2.148-4.896-2.016-0.992 0.137-1.536 1.148-1.248 1.954 0.281 0.855 1.005 1.324 1.66 1.249z"/><path d="m173.04 103.55c8.717 2.635 21.411-9.54 29.79-11.963 10.665-3.109 19.612 1.349 29.852 4.003 3.303 0.861 12.557 1.973 14.255-3.047l0.006 0.049c-5.332 1.58-10.608-0.536-15.772-2.147-10.084-3.141-19.731-7.231-30.351-4.24-9.984 2.822-17.696 15.472-27.574 17.345"/></g><g fill-rule="nonzero"><path d="m31.525 443.08 11.945-41.603 3.777-14.142 1.093-3.772c0.162-0.518-0.013-1.017-0.387-1.13-0.375-0.106-0.787 0.219-0.937 0.718l-1.136 3.809-3.765 14.149-11.939 41.571c-0.168 0.431 0.032 1.012 0.406 1.13 0.381 0.1 0.8-0.231 0.943-0.73z"/><path d="m47.216 385.79c0.262 0.082 0.531 0.182 0.799 0.256-0.537-0.224-0.387 0.3-0.58 0.157l-0.475-0.893c0.056 0.081 0.144 0.243 0.256 0.48z"/><path d="m46.96 385.31c-0.225-0.006-0.643-0.006-1.217 0.037 0.249 0.069 0.512 0.125 0.755 0.206 0.231-0.131 0.381-0.212 0.462-0.243z"/><path d="m46.504 385.56c0.05 0.013 0.081 0.013 0.125 0.025 0.194 0.075 0.4 0.138 0.593 0.206-0.118-0.237-0.206-0.399-0.256-0.48-0.087 0.037-0.237 0.118-0.462 0.249z"/><path d="m47.004 385.47c3.128 2.41 12.069 11.077 8.629 25.506 1.411-1.936 3.74-3.29 5.95-2.622 1.867 0.562 3.185 2.179 3.603 4.133 2.004-11.832-2.885-21.554-18.182-27.017z"/><path d="m47.097 385.49c-12.238-3.466-25.6 2.404-29.82 13.324 1.398-1.948 3.771-2.928 5.994-2.26 2.316 0.693 3.765 2.978 3.74 5.507 5.082-14.298 16.159-16.328 20.086-16.571z"/><path d="m47.915 386.19c-0.218-0.206-0.949-0.487-1.211-0.58 0.818 1.679 2.666 7.567-1.417 22.109 1.455-1.985 3.902-2.972 6.244-2.266 2.404 0.724 3.946 3.04 3.946 5.613 0.075-0.106 0.156-0.194 0.225-0.287 3.459-14.561-4.665-21.816-7.787-24.589z"/><path d="m48.321 386.25c-0.2-0.2-0.83-0.463-1.067-0.531 0.699 1.523 2.297 6.899-1.462 20.23 1.299-1.823 3.503-2.741 5.558-2.123 2.135 0.643 3.484 2.741 3.459 5.095 0.062-0.094 0.137-0.175 0.206-0.262 3.19-13.337-3.94-19.912-6.694-22.409z"/><path d="m47.135 385.54c-0.206-0.069-0.206-0.088-0.5-0.025-0.037 0.006-0.043 0.025-0.075 0.018-1.554 0.937-6.268 4.808-10.87 19.194 1.398-2.029 3.796-3.066 6.069-2.391 2.31 0.699 3.765 2.972 3.746 5.507 0.05-0.081 0.119-0.144 0.163-0.213 4.283-15.247 1.742-21.503 1.467-22.09z"/><path d="m46.504 385.56c-0.249-0.081-0.562-0.081-0.83-0.149-3.928 0.262-13.681 2.304-18.769 16.608 1.398-2.116 3.534-2.572 5.85-1.867 2.317 0.7 2.841 2.217 2.829 4.758 0.018-0.044-0.094 0.031-0.057-0.006 5.863-13.393 9.435-18.419 10.977-19.344z"/></g><g fill-rule="nonzero"><path d="m38.868 441.62 3.971-7.93c0.081-0.137 0.144-0.418 0.144-0.474l-0.013 0.112-0.156-0.044 0.156 0.044-0.156-0.044 0.156 0.044s0.818-1.342 2.41-1.523c0 0 0.069-0.007 0.188-0.025 0.093-0.013 0.243-0.013 0.424-0.013 0.4-0.012 0.949 0.038 1.549 0.106 0.924 0.081 1.992 0.231 3.053 0.344 1.068 0.137 2.123 0.237 3.091 0.237 0.349 0 0.668-0.006 0.999-0.05 0.337-0.031 0.649-0.081 0.986-0.187 2.323-0.75 3.828-1.799 4.714-2.71 0.9-0.918 1.149-1.63 1.149-1.63l5.664-10.564-3.553-0.338-5.002 9.366c-0.037 0.081-0.087 0.219-0.087 0.219h-0.012 0.031-0.019 0.019-0.019c-0.012 0.012-0.162 0.368-0.718 0.868-0.543 0.499-1.492 1.142-3.166 1.667-0.037 0.031-0.736 0.1-0.98 0.1-0.962 0-2.354-0.157-3.746-0.331-0.693-0.088-1.38-0.169-2.055-0.25-0.668-0.056-1.298-0.112-1.885-0.112-0.269 0-0.512 0.006-0.762 0.037-0.262 0.025-0.506 0.056-0.774 0.144-1.88 0.53-3.097 1.404-3.79 2.222-0.706 0.843-0.874 1.593-0.912 1.824l0.15-0.487-5.47 10.845h3.69l0.731-1.467z"/><path d="m61.983 443.62-5.62-14.935-3.072 1.111 5.058 14.092 3.634-0.268z"/></g><g fill-rule="nonzero"><path d="m84.38 337.26c0.743-1.136 1.061-2.491 0.762-3.858-0.55-2.504-2.948-4.165-5.614-4.071-0.012-0.362-0.05-0.743-0.125-1.087-0.649-2.978-3.571-4.851-6.537-4.214-2.828 0.618-4.658 3.309-4.265 6.106-0.118 0.025-0.237 0.056-0.349 0.069-2.979 0.649-4.839 3.578-4.19 6.543 0.456 2.105 2.061 3.641 4.015 4.128l13.993 24.756 2.31-28.372zm-17.876 0.718c-0.587-2.61 1.08-5.201 3.69-5.781 1.81-0.394 3.602 0.281 4.72 1.586 0.393-0.394 0.912-0.687 1.505-0.837 1.63-0.344 3.24 0.68 3.603 2.323 0.199 0.917-0.063 1.829-0.606 2.516l-3.559 0.886c-0.019-0.006-0.056-0.024-0.088-0.031-0.006 0.013-0.006 0.044-0.018 0.056l-7.705 1.905c-0.762-0.662-1.33-1.561-1.542-2.623z"/><path d="m151.3 39.005c0.743-1.13 1.055-2.491 0.774-3.853-0.543-2.51-2.941-4.164-5.619-4.083 0-0.362-0.05-0.718-0.125-1.08-0.649-2.966-3.572-4.833-6.531-4.202-2.816 0.612-4.658 3.29-4.277 6.106-0.119 0.013-0.225 0.025-0.35 0.056-2.966 0.65-4.839 3.578-4.19 6.531 0.45 2.111 2.067 3.641 4.015 4.153l14.005 24.744 2.298-28.372zm-17.889 0.718c-0.574-2.629 1.093-5.207 3.715-5.776 1.811-0.393 3.584 0.269 4.721 1.586 0.393-0.399 0.905-0.705 1.486-0.843 1.642-0.355 3.253 0.687 3.615 2.329 0.206 0.912-0.05 1.817-0.599 2.517l-3.566 0.874c-0.025-0.006-0.05-0.013-0.087-0.025 0 0.019-0.019 0.037-0.019 0.062l-7.699 1.905c-0.768-0.662-1.342-1.561-1.567-2.629z"/><path d="m480.04 244.96c0.755-1.13 1.074-2.498 0.762-3.865-0.531-2.497-2.929-4.158-5.614-4.071 0-0.356-0.037-0.724-0.112-1.086-0.656-2.979-3.584-4.839-6.537-4.184-2.816 0.606-4.646 3.285-4.265 6.094-0.131 0.013-0.244 0.025-0.362 0.056-2.96 0.644-4.839 3.572-4.19 6.538 0.456 2.098 2.067 3.64 4.015 4.127l14.005 24.757 2.298-28.366zm-17.889 0.718c-0.574-2.61 1.099-5.201 3.721-5.769 1.805-0.394 3.584 0.281 4.715 1.586 0.393-0.394 0.911-0.706 1.492-0.824 1.648-0.375 3.253 0.668 3.621 2.303 0.194 0.918-0.062 1.824-0.612 2.511l-3.559 0.892c-0.037-0.012-0.062-0.018-0.087-0.031 0 0.019-0.013 0.031-0.013 0.063l-7.698 1.91c-0.781-0.674-1.33-1.573-1.58-2.641z"/></g><g fill-rule="nonzero"><path d="m485.88 97.079-1.667-1.187-0.15-2.578 0.999-0.618-1.268-0.781-0.199-7.93s1.467-3.271 1.317-3.065c-0.131 0.212-0.768-0.275-0.768-0.275l-0.081-3.066-1.38-0.075-0.225-2.016-1.455-0.206 0.094-4.733 0.662-0.163 0.019-1.049v0.05s1.835-0.562 1.442-3.846c-0.275-2.391-2.985-3.234-3.828-4.626-0.562-0.925-0.924-2.155-0.924-2.155l-0.318 0.044-0.112-3.153s0.268-0.087 0.268-0.574c0.025-0.494-0.481-0.419-0.481-0.419l-0.05-1.798v-2.597l-0.031 1.417-0.081-1.474 0.031 2.679-0.062 1.829s-0.487-0.062-0.487 0.412c0.031 0.506 0.281 0.569 0.281 0.569l-0.1 3.159-0.319-0.044s-0.387 1.243-0.936 2.148c-0.862 1.399-3.765 2.223-3.834 4.646-0.056 2.36 1.255 3.265 1.786 3.733l0.031 0.094c0.031 0.063 0.044 0.893 0.131 0.856-0.05 0.012 0.356 0.156 0.649 0.218 0.032 0.487 0.038 0.687 0.063 0.849-0.394-0.337-2.648-1.498-2.86-1.867-0.524-0.836-0.837-1.948-0.837-1.948l-0.287 0.038-0.106-2.854s0.231-0.075 0.231-0.518c0.025-0.456-0.4-0.462-0.4-0.462l-0.081-1.567-0.081-2.385 0.05 1.33-0.05-1.312v2.342l-0.025 1.604s-0.462 0.063-0.456 0.519c0.025 0.437 0.256 0.512 0.256 0.512l-0.093 2.859-0.294-0.05s-0.318 1.131-0.836 1.955c-0.338 0.518-0.912 0.961-1.53 1.448l-0.075-0.025v-2.01c0 0.212 0.025-2.797 0.025-2.797l-0.65-0.2-0.037-8.429-2.092-0.163v-2.098l1.405-0.075-0.019-1.679-4.739-14.043 0.019-2.247h-0.181l0.037-3.235 0.144 0.025s0.768-0.643 0.556-1.723c-0.231-1.074-1.399-1.442-1.798-2.073-0.269-0.4-0.438-0.961-0.438-0.961l-0.143 0.018-0.081-1.436s0.15-0.044 0.15-0.268c0-0.15-0.138-0.188-0.188-0.2l-0.031-2.017v0.031l-0.037 1.98s-0.194 0.018-0.194 0.218c0 0.212 0.131 0.244 0.131 0.244l-0.006 1.436-0.163-0.006s-0.156 0.561-0.412 0.986c-0.368 0.624-1.523 1.055-1.692 2.148-0.181 1.086 0.637 1.68 0.637 1.68v3.271h-0.337l-0.019 2.286-0.162 0.861-3.44 13.025 0.018-0.025v-0.031l0.05 0.031 0.081 1.636 0.918 0.043 0.069 2.105c0-0.032-0.887-0.063-0.887 0.012 0 0.125 0-0.037 0.038 0.038l0.05 0.967-0.906 0.025s0.082 1.33-0.549 2.342c-0.924 1.536-3.653 2.497-4.121 5.126-0.437 2.329 0.968 3.759 1.311 4.065l-0.674 0.662 0.337 6.768s-1.324 0.911-1.261 2.379v6.112l-1.767-0.293-0.044-6.631-0.312-0.2 0.705 0.05s1.293-1.03 0.962-2.828c-0.344-1.798-2.235-2.454-2.891-3.503-0.443-0.681-0.718-1.623-0.718-1.623l-0.219 0.018-0.087-2.391s0.193-0.038 0.193-0.425c0.013-0.362-0.343-0.312-0.343-0.312l-0.037-1.38-0.044-1.954-0.006 1.086 0.006-1.086-0.031 1.998-0.063 1.374s-0.368-0.057-0.356 0.318c0.013 0.368 0.194 0.431 0.194 0.431l-0.056 2.385-0.25-0.031s-0.281 0.936-0.712 1.623c-0.431 0.699-1.423 1.236-2.129 2.048l-0.169-0.125-0.281-0.549 0.5-0.849-0.15-0.974s0.5-0.831 0.343-0.544l0.044-0.075 0.194 0.007s1.954-1.499 1.461-4.184c-0.5-2.672-3.341-3.646-4.315-5.201-0.637-1.03-1.042-2.429-1.042-2.429l-0.344 0.057-0.125-3.553s0.3-0.081 0.3-0.643c0.025-0.55-0.518-0.469-0.518-0.469l-0.081-1.991-0.119-2.979 0.1 1.68-0.075-1.68 0.012 3.072-0.062 1.992s-0.562-0.075-0.537 0.475c0.012 0.549 0.293 0.624 0.293 0.624l-0.124 3.565-0.344-0.056s-0.412 1.392-1.036 2.423c-0.962 1.561-3.815 2.535-4.315 5.201-0.431 2.273 0.924 3.696 1.33 4.071-0.112 0.006-0.169 0.025-0.156 0.037l0.144 1.043 0.537 0.075v1.455l0.437-0.075-0.088 1.467-0.193 4.04s-1.393 0.281-1.468 0.986c-0.068 0.681-0.131 2.086-0.131 2.086s-0.418 6.824-0.449 7.055c-0.088 0.581-0.088 1.486-0.175 1.961l-3.765-18.276-0.05-2.11 0.368-0.094-0.168-0.893-0.65-1.43s-0.193-2.135-0.262-3.09l-0.343 3.09-0.587 1.493-0.169 0.868 0.4 0.062 0.031 2.035-4.146 17.808-0.587 0.025-0.062 1.979-1.586 2.329 1.735 0.468-0.149-0.156 0.162 17.346 0.168-0.113c-0.074 0.131-0.118 0.206-0.118 0.206l66.129-0.393 0.169-3.472-0.175-12.05z"/><path d="m238.94 413.31-0.55-0.555-2.909 0.324-1.449 1.024-1.442-0.112s-7.805 1.317-8.024 0.886c-0.231-0.443-4.239 0-4.352-0.343-0.112-0.337-2.991-1.18-2.991-1.18s-3.821-0.943-3.378-0.943c0.444 0-0.324-6.125-0.324-6.562 0-0.45-2.011-2.004-3.122-2.129-1.112-0.113-2.117 2.129-2.56 2.341-0.462 0.225-1.13 6.694-1.13 6.694s-3.716 1.086-3.865 1.086c-0.338 0-1.636 0.331-1.636 0.331h-5.07l-0.962 0.668-7.312 0.156-2.104-0.687-3.784-0.549v0.886l-2.01 0.238s-0.225 0.662 0.674 1.998c0.887 1.336 6.569-0.999 6.8 0.568 0.206 1.555 3.44 3.871 5.101 4.414 1.236 0.375 4.583 0.356 4.583 0.356l4.471 1.692c-0.113-0.224 0.556 9.029 0.556 9.029l0.049 8.367 0.8 2.94-0.487 5.72 1.636 0.487h-0.15l0.48 12.256-3.328 0.787 0.107 2.004-1.343 0.225-0.662 16.834h-1.223l0.443 5.682 27.873-0.344 0.231-5.9h-1.568l-1.223-16.734-1.218-0.1v-1.904l-3.459-0.905-0.668-12.707 1.118-0.549-0.569-5.364 0.793-1.998-1.236-17.832s5.126-1.779 5.807-1.567c0.662 0.231 5.014-1.112 6.019-1.112 1.011 0 3.472-5.126 3.472-5.126l4.108-0.225 2.679-1.348 0.237-1.455-1.929 0.237z"/><path d="m285.82 84.366 0.012 0.906 0.231-0.456-0.568 2.654 0.668 0.324 0.2 3.053 4.477 0.082 0.156 2.809h9.235l0.318 4.177 7.499 0.082 0.624 8.291h-26.686-32.481v-8.173l1.954-0.331v-3.215l8.261-0.912 0.019-2.166 4.252-0.569 0.237-2.572 0.581-0.406 0.012-1.767-0.437-0.393-0.025-0.781 0.856-0.699 0.193-0.874 0.4-0.188-0.025-0.443 0.468-0.187 0.069-3.135-0.231-0.043-0.063-0.475 0.381-0.168 0.206-5.639-0.487-0.337-0.087-0.293-0.624 0.112 0.037-0.655-0.268-0.088 0.099-1.754 2.161-1.006 0.493-0.137-0.131-1.43-0.481-0.568 0.756-0.393 0.037-1.287 0.625-0.374-0.107-0.818s1.58-1.649 1.561-2.367c-0.031-0.711 0.45-4.47 0.7-4.314 0.243 0.156 0.356-1.124 0.811-1.28 0.45-0.144-0.718-0.006-0.368-0.562 0.368-0.543 0.624-0.918 0.624-0.918l-0.181-3.958s-0.668-0.756-0.468-0.956c0.181-0.175 0.599-1.442 0.743-1.367 0.137 0.087 0.137-1.374 0.137-1.374l-1.142 0.05s-0.4-0.774-0.088-1.417c0.35-0.65 0.999-1.961 0.999-1.961l-0.256-1.192s-1.061-0.65-0.718-1.293c0.356-0.649 0.4-1.43 0.4-1.43l-0.818-0.818s0.131-1.211 0.269-1.23c0.143-0.025-0.868-1.248-0.082-2.354 0.8-1.105 0.775-1.304 0.8-1.436 0.012-0.149-0.069-2.741 0-3.228 0.05-0.468 0.118-2.603 0.268-2.628 0.131-0.025-0.456-1.043-0.368-1.312 0.112-0.262 0.143-0.799 0.143-0.799l0.05-1.086s-0.587 0.087-0.693-0.25c-0.087-0.337 0.244-0.643 0.244-0.643l-0.188-0.525s0.643-0.293 0.875-0.293c0.231 0-0.256-0.599 0-1.043 0.256-0.437 0.037-0.655 0.037-0.655l0.487 0.125 0.587-0.506 0.019 0.025 0.237 0.605s0.268 0.475 0.075 0.756c-0.181 0.275-0.562 0.612-0.344 0.724 0.206 0.119 1.106 0.044 1.037 0.4-0.063 0.343-0.181 0.518-0.181 0.518s0.25 0.256 0.237 0.468c-0.037 0.2-0.911 0.481-0.911 0.481l-0.207 0.737s0.45 0.431 0.369 1.355c-0.088 0.918-0.344 1.161-0.331 1.542 0.031 0.4 0.331 2.854 0.306 3.122-0.025 0.281 0.025 1.942 0.112 1.998 0.113 0.044 0.562 0.062 0.562 0.062l0.169-0.343-0.612-0.356 1.049-0.05 0.393-0.256-0.818-1.879 1.299 1.617 0.712-0.131s1.024-2.41 0.986-2.285c-0.05 0.118-0.424 2.254-0.424 2.254l0.506 0.231 2.272-1.218-1.892 1.499 0.05 0.299 2.323-0.087-2.167 0.574-0.062 0.344 1.973 0.393-1.998 0.125 0.044 0.893-0.419 0.193 0.206 0.993 0.038 1.867 0.25-0.037 0.131 0.618 0.805 0.649s0.949 2.76 0.775 3.003c-0.15 0.263 0.724 0.306 0.568 0.531-0.169 0.244 1.036-1.386 1.036-1.386l3.01 1.342-0.45 1.318 0.256 0.599s-1.779 1.898-1.935 1.661c-0.175-0.231-0.906 1.811-0.906 1.811l-0.562-0.119s1.112 5.944 0.812 6.475c-0.312 0.543-0.593 0.468-0.593 0.468l0.25 8.904 0.917 0.162 0.075 1.343 0.637 0.362-0.437 0.787 0.106 1.398 0.306-0.05 0.081 0.856 2.155-0.088 0.087 1.799h-0.212l-0.019 0.705-1.099 0.681 0.206 5.844 0.368 0.031-0.037 0.418-0.281 0.088 0.231 3.322 0.306 0.118 1.792 2.342-0.281 0.056"/><path d="m483.58 310.44v-5.326l-1.199-3.534-1.192 3.534v5.301l-5.514-0.056v-5.807l-1.205-3.521-1.18 3.521v5.782l-5.513-0.075v-5.145l-1.193-3.534-1.199 3.534v5.12l-5.519-0.056v-5.626l-1.193-3.521-1.192 3.521v5.607l-3.734 0.044-0.4-29.071 2.023-0.132 0.131-14.741-2.01-0.375-0.075-4.264-3.004-5.07 0.1-6.325-0.755-0.344v-2.166l-0.743-0.25-0.094-3.091-0.724-0.119-0.974-1.979-0.356-10.527-0.406 10.521-1.099 1.973-0.749 0.131 0.087 2.991-0.999 0.187 0.106 2.385-0.655 0.263 0.206 6.193-3.222 5.108-0.144 4.396-2.266 0.131-0.244 14.979 1.468-0.075-0.387 47.765 47.147-0.193v-18.045l-2.129-0.019zm-37.363-32.699c-2.648 0-4.802-2.16-4.802-4.826 0-2.66 2.154-4.821 4.802-4.821 2.678 0 4.839 2.167 4.839 4.821 0 2.672-2.167 4.826-4.839 4.826z"/><path d="m90.28 305.07c-3.29-5.276-2.129-6.737-2.129-6.737l1.105-0.231-0.287-3.734-3.609-0.237s-6.038-16.815-4.364-17.483c0.705-0.268 0.986-0.1 0.986-0.1l0.075-4.177s-0.874 0.325-2.753-0.855c-1.942-1.224-1.917-14.904-1.867-14.736 0.056 0.169-0.038-21.129-0.038-21.129l-0.125-9.996 0.175-7.28 0.762-0.275-0.462-6.85-1.542-0.599-0.069-9.016-1.705 0.025v0.012l-0.993-0.012-0.268 9.234-1.548 0.581-0.594 6.843 0.756 0.263 0.056 7.299-0.281 9.99s-0.474 21.297-0.406 21.123c0.05-0.163-0.162 13.518-2.135 14.704-1.886 1.155-2.754 0.805-2.754 0.805v4.184s0.281-0.169 0.974 0.118c1.674 0.693-4.633 17.408-4.633 17.408l-3.627 0.175-0.35 3.728 1.093 0.224s1.149 1.499-2.236 6.725c-3.384 5.232-14.985 17.408-14.985 17.408l15.61-0.35s2.198-14.167 16.128-14.885c13.412 1.28 15.116 14.885 15.116 14.885l15.616 0.593c0 0.006-11.389-12.35-14.692-17.645zm-19.237-17.632 0.787-5.47 0.549-6.225 1.499-0.019 1.804 0.063-0.069-1.374 0.156 2.248v-0.007l0.363 5.133 0.743 5.769-5.832-0.118z"/><path d="m44.875 283.89 5.232-8.735-0.993-0.593-0.406-0.237-5.213 8.735 1.38 0.83z"/><path d="m48.708 274.33 0.406 0.237-0.406-0.237z"/></g><g fill-rule="nonzero"><path d="m467.9 219.43c-0.1 0.206-0.188 0.418-0.281 0.618-0.331 0.044-0.656 0.081-1.012 0.081-2.647 0-5.095-1.723-5.095-3.852 0-2.142 2.454-3.859 5.095-3.859 0.375 0 0.731 0.031 1.062 0.088 0.043 0.206 0.075 0.405 0.125 0.605h0.124c0.063 0 0.144 0 0.219 0.006-0.038-0.231-0.075-0.449-0.119-0.668l-0.043-0.231-0.231-0.037c-0.356-0.063-0.731-0.1-1.137-0.1-2.766 0.006-5.407 1.779-5.432 4.19 0.025 2.41 2.666 4.177 5.432 4.189 0.375 0 0.731-0.037 1.062-0.093l0.181-0.032 0.068-0.137c0.144-0.262 0.25-0.543 0.35-0.805-0.131 0-0.237 0.024-0.356 0.024h-0.012v0.013z"/><path d="m467.4 219.73c-0.256 0.043-0.512 0.062-0.793 0.062-1.236 0-2.454-0.412-3.328-1.055-0.886-0.668-1.436-1.536-1.436-2.46 0-0.93 0.556-1.811 1.436-2.46 0.881-0.65 2.092-1.068 3.328-1.068 0.281 0 0.537 0.013 0.781 0.063 0.031 0.106 0.037 0.218 0.05 0.33 0.112-0.018 0.231-0.025 0.356-0.025-0.05-0.199-0.082-0.399-0.125-0.605-0.331-0.056-0.687-0.088-1.062-0.088-2.647 0-5.095 1.717-5.095 3.859 0 2.129 2.454 3.853 5.095 3.853 0.356 0 0.681-0.038 1.012-0.082 0.093-0.199 0.181-0.412 0.281-0.618-0.131 0-0.244-0.019-0.356-0.025-0.05 0.106-0.094 0.213-0.144 0.319z"/><path d="m432.75 193.45c-3.491-0.006-6.363 0.7-9.572 4.109-2.148 2.235-3.303 5.039-3.303 7.942 0 0.162 0.012 0.343 0.012 0.512 0.119 3.028 1.611 4.645 3.303 5.407 1.674 0.768 3.522 0.768 4.502 0.768 0.799 0 1.611-0.037 2.473-0.069 0.911-0.043 1.873-0.081 2.822-0.081 0.993 0 1.973 0.056 2.947 0.094 0.912 0.056 1.78 0.094 2.629 0.094v-0.338c-0.843 0-1.692-0.05-2.598-0.093-0.974-0.044-1.973-0.1-2.978-0.1-0.962 0-1.929 0.044-2.829 0.087-0.867 0.025-1.673 0.05-2.466 0.05-1.973 0-7.205 0-7.48-5.85-0.137-2.991 1.005-5.888 3.209-8.198 3.191-3.341 5.888-3.99 9.335-3.99 7.049 0 12.987 5.419 12.987 11.863 0 6.225-5.413 6.225-7.18 6.225v0.337c0.886-0.006 2.735 0.019 4.402-0.818 1.673-0.805 3.122-2.541 3.122-5.744-0.013-6.637-6.113-12.207-13.337-12.207z"/><path d="m445.75 205.66c0-6.443-5.938-11.863-12.987-11.863-3.447 0-6.144 0.649-9.335 3.99-2.204 2.31-3.346 5.213-3.209 8.198 0.275 5.85 5.507 5.85 7.48 5.85 0.793 0 1.599-0.024 2.466-0.049 0.906-0.044 1.867-0.088 2.829-0.088 0.999 0 1.998 0.05 2.978 0.1 0.912 0.044 1.755 0.094 2.598 0.094v-0.331c-0.831 0-1.674-0.056-2.591-0.106-0.956-0.038-1.955-0.088-2.985-0.088-0.974 0-1.929 0.031-2.847 0.069-0.862 0.044-1.686 0.069-2.448 0.069-0.974 0-2.735-0.007-4.227-0.694-1.492-0.699-2.772-2.004-2.91-4.832-0.025-0.163-0.025-0.319-0.025-0.475 0-2.728 1.106-5.351 3.122-7.48 3.147-3.278 5.707-3.884 9.098-3.896 6.887 0.006 12.65 5.307 12.65 11.532 0 3.016-1.249 4.408-2.735 5.145s-3.228 0.75-4.108 0.75v0.33c1.767 0 7.186 0 7.186-6.225z"/><path d="m449.46 232.9c-3.709 0-6.868-2.385-8.023-5.688-0.112 0-0.244-0.006-0.368-0.006 1.186 3.502 4.489 6.031 8.391 6.031 3.684 0 6.831-2.241 8.161-5.438-0.125 0.025-0.262 0.025-0.381 0.025-1.33 2.997-4.314 5.076-7.78 5.076z"/><path d="m449.46 215.54c-4.876 0-8.853 3.958-8.853 8.866 0 0.968 0.168 1.911 0.462 2.804 0.124 0 0.256 0.006 0.368 0.006-0.306-0.881-0.481-1.836-0.481-2.829 0-4.701 3.809-8.504 8.504-8.504 3.853 0 8.511 3.803 8.511 8.504 0 1.23-0.256 2.392-0.731 3.441 0.119 0 0.256 0 0.381-0.025 0.45-1.068 0.693-2.204 0.693-3.403-0.031-4.939-4.814-8.848-8.854-8.86z"/><path d="m449.46 232.9c3.466 0 6.45-2.079 7.78-5.076-0.125 0.012-0.256 0.037-0.399 0.05-1.305 2.759-4.109 4.683-7.381 4.683-3.521 0-6.5-2.223-7.655-5.339-0.118 0-0.237-0.006-0.374-0.006 1.167 3.303 4.327 5.688 8.029 5.688z"/><path d="m441.29 224.4c0-4.533 3.659-8.173 8.174-8.179h0.012c1.805 0 3.853 0.917 5.451 2.397s2.697 3.534 2.697 5.782c0 1.236-0.281 2.423-0.78 3.478 0.144-0.013 0.281-0.038 0.4-0.05 0.474-1.043 0.73-2.21 0.73-3.44 0-4.702-4.658-8.505-8.51-8.505-4.696 0-8.505 3.803-8.505 8.505 0 0.986 0.175 1.948 0.481 2.828 0.131 0 0.256 0.006 0.375 0.006-0.344-0.88-0.525-1.835-0.525-2.822z"/><path d="m423.14 219.37c-2.778 0-5.02 2.235-5.02 5.02 0 1.055 0.343 2.035 0.887 2.853 0.911 1.299 2.41 2.16 4.133 2.16 1.798 0 3.378-0.961 4.271-2.397 0.468-0.762 0.743-1.655 0.743-2.61 0-2.791-2.242-5.026-5.014-5.026z"/><path d="m449.46 219.59c-2.653 0-4.814 2.148-4.814 4.802 0 1.142 0.425 2.191 1.099 3.028 0.862 1.086 2.223 1.773 3.722 1.773 1.292 0 2.447-0.506 3.303-1.324 0.911-0.88 1.486-2.11 1.486-3.477 0-2.654-2.148-4.802-4.796-4.802z"/><path d="m432.75 193.45c-3.491-0.006-6.363 0.7-9.572 4.109-2.148 2.235-3.303 5.039-3.303 7.942 0 0.162 0.012 0.343 0.012 0.512 0.119 3.028 1.611 4.645 3.303 5.407 1.674 0.768 3.522 0.768 4.502 0.768 0.799 0 1.611-0.037 2.473-0.069 0.911-0.043 1.873-0.081 2.822-0.081 0.993 0 1.973 0.056 2.947 0.094 0.912 0.056 1.78 0.094 2.629 0.094 0.886-0.007 2.735 0.018 4.402-0.818 1.673-0.806 3.122-2.542 3.122-5.745-0.013-6.643-6.113-12.213-13.337-12.213z"/><path d="m468.27 219.4c-0.1 0.262-0.2 0.543-0.35 0.805l-0.068 0.138-0.181 0.031c-0.331 0.056-0.687 0.093-1.062 0.093-2.766-0.012-5.407-1.785-5.432-4.189 0.025-2.41 2.666-4.184 5.432-4.19 0.4 0 0.781 0.038 1.137 0.1l0.231 0.038 0.043 0.231c0.044 0.218 0.081 0.443 0.119 0.668h0.1c-0.731-4.302-2.604-8.242-9.148-9.335-1.866-4.676-5.132-8.847-9.222-11.869-4.839-3.528-10.583-5.383-16.627-5.383-15.304 0-27.748 12.17-27.748 27.13 0 1.417 0.025 2.685 0.112 3.834 0.063 0.018 0.125 0.031 0.131 0.037 0.056 0.019 0 0.019 0.019 0.031 0.156 1.23 0.562 3.104 0.718 3.996-0.075 0-0.125-0.012-0.181-0.018 0.318 1.042 0.787 1.935 1.405 2.722 1.717 2.148 4.402 2.753 7.062 2.916-0.294-0.893-0.462-1.823-0.462-2.785 0-4.908 3.965-8.866 8.86-8.866 4.027 0.012 8.81 3.921 8.847 8.866 0 0.893-0.131 1.736-0.399 2.541 2.029 0.019 4.046 0.075 5.988 0.15 1.205 0.05 2.366 0.094 3.503 0.119-0.294-0.893-0.463-1.836-0.463-2.804 0-4.907 3.978-8.866 8.854-8.866 4.034 0.013 8.823 3.921 8.854 8.866 0 1.199-0.243 2.336-0.693 3.403 3.085-0.356 6.587-1.517 8.817-3.952 1.186-1.299 1.916-2.816 2.179-4.489-0.144 0-0.256 0.012-0.375 0.031zm-25.307-7.999c-1.673 0.837-3.515 0.812-4.401 0.818-0.85 0-1.718-0.037-2.629-0.093-0.968-0.038-1.955-0.094-2.947-0.094-0.949 0-1.917 0.038-2.823 0.081-0.861 0.031-1.673 0.069-2.472 0.069-0.974 0-2.829 0-4.502-0.768-1.692-0.762-3.191-2.379-3.303-5.407 0-0.169-0.013-0.35-0.013-0.512 0-2.904 1.162-5.707 3.304-7.942 3.215-3.403 6.087-4.115 9.571-4.109 7.218 0 13.325 5.57 13.331 12.213 0.006 3.209-1.442 4.945-3.116 5.744z"/><path d="m423.14 232.9c-3.715 0-6.868-2.385-8.03-5.694-0.131-0.007-0.249-0.019-0.368-0.019 1.174 3.509 4.489 6.05 8.398 6.05 3.996 0 7.368-2.666 8.448-6.3h-0.343c-1.081 3.453-4.302 5.963-8.105 5.963z"/><path d="m423.14 215.54c-4.895 0-8.86 3.958-8.86 8.866 0 0.968 0.169 1.898 0.462 2.785 0.119 0 0.237 0.006 0.368 0.019-0.306-0.887-0.48-1.836-0.48-2.816 0-4.702 3.796-8.505 8.51-8.505 3.821 0 8.51 3.803 8.51 8.505 0 0.892-0.143 1.742-0.405 2.547h0.343c0.269-0.805 0.4-1.648 0.4-2.541-0.032-4.939-4.821-8.848-8.848-8.86z"/><path d="m423.14 232.56c3.615-0.006 6.681-2.354 7.749-5.626 0.281-0.799 0.412-1.648 0.412-2.535 0-2.241-1.118-4.296-2.71-5.782-1.586-1.48-3.646-2.397-5.457-2.397-4.533 0-8.161 3.646-8.173 8.179 0.012 0.987 0.174 1.936 0.505 2.822 1.168 3.116 4.14 5.333 7.674 5.339z"/><path d="m430.89 226.94c-1.068 3.272-4.133 5.613-7.749 5.626-3.534-0.006-6.506-2.223-7.667-5.339-0.125-0.006-0.244-0.012-0.369-0.012 1.168 3.309 4.315 5.694 8.03 5.694 3.796 0 7.024-2.51 8.105-5.963h-0.125c-0.075-0.006-0.156-0.006-0.225-0.006z"/><path d="m423.14 215.89c-4.714 0-8.51 3.803-8.51 8.505 0 0.98 0.174 1.935 0.48 2.816 0.125 0 0.244 0.006 0.369 0.012-0.331-0.88-0.494-1.829-0.506-2.816 0.012-4.533 3.64-8.179 8.173-8.179 1.811 0 3.872 0.917 5.457 2.397 1.593 1.48 2.71 3.534 2.71 5.782 0 0.893-0.131 1.736-0.412 2.535h0.356c0.262-0.805 0.406-1.655 0.406-2.547-0.006-4.702-4.695-8.505-8.523-8.505z"/><path d="m468.17 213.46c0.05 0.006 0.131 0.349 0.162 0.349-0.018-0.137-0.093-0.58-0.106-0.68h-0.1c0.019 0.106 0.044 0.218 0.044 0.331z"/><path d="m468.64 219.03c-0.1 0.013-0.181 0-0.263 0.031-0.043 0.113-0.081 0.238-0.112 0.35 0.119-0.019 0.231-0.031 0.35-0.044 0.025-0.131 0.037-0.268 0.068-0.412-0.018 0.025-0.037 0.056-0.043 0.075z"/><path d="m464.4 216.27c0-1.442 1.361-2.622 3.097-2.797-0.012-0.119-0.05-0.218-0.062-0.331-1.855 0.181-3.353 1.455-3.372 3.122 0.019 1.692 1.561 2.991 3.484 3.135 0.025-0.107 0.075-0.219 0.112-0.331-1.823-0.1-3.259-1.305-3.259-2.798z"/><path d="m469.1 213.4-0.074-0.174-0.2-0.032c-0.175-0.037-0.394-0.056-0.593-0.075 0.037 0.113 0.099 0.575 0.106 0.681 0.125 0.013 0.256 0.031 0.387 0.062-0.031 0-0.069-0.006-0.094-0.006 0.069 0.019 0.188 0.044 0.25 0.044 0.343 0.912 0.169 1.648 0.206 2.853 0.012 0.706-0.087 1.33-0.287 1.886-0.106 0.025-0.387 0.044-0.387 0.075-0.1 0.019-0.219 0.019-0.319 0.019-0.068 0.006-0.125 0.012-0.181 0.012s-0.125-0.012-0.156-0.012c-1.717-0.069-3.01-1.193-3.01-2.473 0-1.23 1.193-2.316 2.804-2.447 0.125-0.013 0.219-0.038 0.356-0.038h0.012c0.1 0 0.206 0 0.313 0.019-0.057-0.006 0.018 0.006 0.131 0.019 0 0-0.019 0-0.019-0.013-0.037 0-0.119-0.343-0.162-0.35 0-0.118-0.025-0.224-0.038-0.337-0.075-0.006-0.156-0.006-0.218-0.006h-0.125c-0.125 0-0.244 0.006-0.356 0.025 0.012 0.112 0.05 0.212 0.062 0.331-1.736 0.168-3.097 1.355-3.097 2.797 0 1.492 1.436 2.697 3.253 2.804-0.037 0.112-0.087 0.231-0.112 0.331 0.112 0.006 0.219 0.024 0.356 0.024h0.012c0.119 0 0.219-0.024 0.356-0.024 0.032-0.113 0.063-0.225 0.088-0.319 0.112-0.006 0.218-0.019 0.299-0.019-0.012 0.1-0.012 0.2-0.037 0.294h0.081l0.169-0.031 0.075-0.144c0.356-0.668 0.474-1.43 0.474-2.267v-0.162c-0.031-1.199 0.025-2.323-0.325-3.347zm-0.468 0.456c-0.106-0.012-0.212-0.018-0.275-0.037 0.038 0.025 0.144 0.037 0.275 0.037z"/><path d="m402.62 219.71c0.074 0.874 1.773 1.742 3.103 1.842-0.369-1.149-0.575-2.485-0.675-4.046-0.636-0.131-2.659-0.462-2.428 2.204z"/><path d="m405.74 217.57c-0.019-0.012 0.037-0.012-0.019-0.031-0.006-0.006-0.069-0.019-0.131-0.037 0.125 1.561 0.318 2.897 0.68 4.046 0.063 0.006 0.113 0.018 0.181 0.018-0.15-0.892-0.549-2.766-0.711-3.996z"/><path d="m423.14 229.4c1.798 0 3.378-0.961 4.271-2.397-0.131 0-0.262 0.006-0.393 0.012-0.856 1.23-2.267 2.061-3.872 2.061-1.504 0-2.847-0.731-3.715-1.836h-0.418c0.911 1.292 2.404 2.16 4.127 2.16z"/><path d="m418.46 224.39c0-2.585 2.098-4.671 4.677-4.671s4.677 2.086 4.677 4.671c0 0.98-0.306 1.879-0.806 2.628 0.131-0.006 0.263-0.012 0.394-0.012 0.468-0.762 0.743-1.655 0.743-2.61 0-2.785-2.242-5.02-5.014-5.02-2.779 0-5.02 2.235-5.02 5.02 0 1.055 0.343 2.035 0.886 2.853h0.419c-0.6-0.799-0.956-1.792-0.956-2.859z"/><path d="m423.14 228.73c-1.324 0-2.473-0.581-3.259-1.486h-0.45c0.868 1.105 2.211 1.836 3.715 1.836 1.605 0 3.016-0.824 3.872-2.061-0.157 0-0.294 0.006-0.45 0.006-0.799 1.037-2.042 1.705-3.428 1.705z"/><path d="m423.14 219.72c-2.579 0-4.677 2.086-4.677 4.671 0 1.067 0.356 2.06 0.962 2.853h0.449c-0.68-0.768-1.08-1.754-1.098-2.853 0.018-2.392 1.96-4.34 4.358-4.34 2.385 0 4.321 1.954 4.333 4.34 0 0.999-0.343 1.91-0.912 2.634 0.157 0 0.294-0.006 0.45-0.006 0.5-0.749 0.805-1.648 0.805-2.628 0.007-2.585-2.085-4.671-4.67-4.671z"/><path d="m449.46 229.19c1.293 0 2.448-0.506 3.303-1.324-0.156-0.012-0.324-0.025-0.48-0.025-0.775 0.631-1.749 1.018-2.823 1.018-1.273 0-2.422-0.537-3.253-1.405-0.137-0.012-0.299-0.031-0.468-0.037 0.862 1.086 2.229 1.773 3.721 1.773z"/><path d="m445 224.39c0-2.467 1.998-4.471 4.464-4.471 2.467 0 4.465 2.004 4.465 4.471 0 1.392-0.637 2.634-1.642 3.452 0.156 0 0.324 0.013 0.48 0.025 0.912-0.88 1.486-2.11 1.486-3.477 0-2.654-2.147-4.802-4.795-4.802-2.654 0-4.814 2.148-4.814 4.802 0 1.142 0.425 2.191 1.099 3.028 0.169 0.006 0.331 0.025 0.468 0.037-0.743-0.799-1.211-1.873-1.211-3.065z"/><path d="m449.46 228.51c-1.036 0-1.973-0.394-2.697-1.012-0.169 0-0.368-0.019-0.556-0.044 0.831 0.862 1.973 1.405 3.253 1.405 1.074 0 2.048-0.387 2.823-1.018-0.175-0.012-0.363-0.012-0.544-0.012-0.643 0.425-1.436 0.681-2.279 0.681z"/><path d="m453.93 224.39c0-2.467-1.998-4.471-4.465-4.471-2.466 0-4.464 2.004-4.464 4.471 0 1.192 0.462 2.266 1.211 3.065 0.188 0.019 0.387 0.038 0.556 0.044-0.887-0.762-1.43-1.867-1.43-3.109 0-2.273 1.861-4.121 4.127-4.121 2.279 0 4.121 1.842 4.121 4.121 0 1.436-0.718 2.697-1.842 3.44 0.181 0 0.369 0 0.544 0.012 1.011-0.818 1.642-2.06 1.642-3.452z"/></g><g fill-rule="nonzero"><path d="m150.36 88.487c-0.075 0.213-0.168 0.425-0.268 0.618-0.319 0.057-0.656 0.094-0.993 0.094-2.654 0-5.108-1.723-5.108-3.859 0-2.129 2.461-3.858 5.108-3.858 0.35 0 0.712 0.031 1.049 0.093 0.044 0.2 0.075 0.394 0.106 0.606h0.337c-0.031-0.225-0.056-0.456-0.112-0.674l-0.044-0.225-0.218-0.044c-0.369-0.062-0.743-0.093-1.118-0.093-2.785 0.012-5.42 1.785-5.463 4.195 0.043 2.404 2.672 4.178 5.463 4.19 0.35 0 0.712-0.031 1.049-0.094l0.156-0.037 0.075-0.144c0.15-0.249 0.25-0.518 0.35-0.799-0.125 0.013-0.238 0.025-0.356 0.025 0 0.006-0.013 0.006-0.013 0.006z"/><path d="m149.88 88.806c-0.268 0.031-0.518 0.056-0.78 0.056-1.261 0-2.473-0.412-3.359-1.055-0.893-0.656-1.424-1.536-1.424-2.467 0-0.93 0.531-1.804 1.424-2.466 0.886-0.649 2.098-1.061 3.359-1.061 0.256 0 0.512 0.025 0.768 0.056 0.025 0.1 0.044 0.212 0.05 0.318 0.119-0.006 0.218-0.006 0.343-0.006-0.031-0.212-0.062-0.406-0.106-0.606-0.337-0.062-0.705-0.093-1.049-0.093-2.653 0-5.107 1.729-5.107 3.858 0 2.13 2.46 3.859 5.107 3.859 0.337 0 0.675-0.037 0.993-0.094 0.1-0.193 0.2-0.405 0.268-0.618-0.112 0-0.237-0.006-0.355-0.012-0.044 0.106-0.088 0.225-0.132 0.331z"/><path d="m115.23 62.525c-3.497-0.012-6.363 0.693-9.597 4.103-2.135 2.222-3.303 5.038-3.303 7.936 0 0.162 0.006 0.33 0.006 0.493 0.131 3.041 1.611 4.664 3.31 5.426 1.685 0.761 3.521 0.761 4.508 0.761 0.793 0 1.611-0.025 2.472-0.062 0.912-0.031 1.855-0.075 2.823-0.075 0.999 0 1.991 0.044 2.947 0.094 0.911 0.043 1.779 0.087 2.61 0.087v-0.343c-0.818 0-1.674-0.031-2.579-0.081-0.974-0.05-1.973-0.088-2.985-0.088-0.968 0-1.917 0.025-2.834 0.063-0.85 0.031-1.668 0.075-2.454 0.075-1.973 0-7.2 0-7.468-5.857-0.137-2.979 0.993-5.888 3.197-8.198 3.184-3.341 5.894-3.99 9.341-3.99 7.03 0 12.987 5.444 12.987 11.857 0 6.225-5.413 6.225-7.212 6.225v0.343c0.899 0 2.754 0 4.427-0.811 1.68-0.806 3.129-2.548 3.116-5.751 0-6.656-6.1-12.207-13.312-12.207z"/><path d="m128.22 74.72c0-6.413-5.957-11.857-12.988-11.857-3.446 0-6.156 0.649-9.341 3.989-2.204 2.311-3.34 5.226-3.197 8.199 0.269 5.856 5.495 5.856 7.468 5.856 0.787 0 1.605-0.037 2.454-0.075 0.918-0.037 1.867-0.062 2.835-0.062 1.011 0 2.01 0.037 2.984 0.087 0.906 0.05 1.755 0.081 2.579 0.081v-0.33c-0.799 0-1.655-0.044-2.566-0.075-0.962-0.057-1.961-0.113-2.991-0.113-0.98 0-1.942 0.05-2.853 0.075-0.856 0.038-1.668 0.069-2.442 0.069-0.974 0-2.735-0.006-4.221-0.706-1.498-0.693-2.778-2.004-2.928-4.832v-0.469c0-2.722 1.093-5.357 3.122-7.474 3.141-3.284 5.694-3.889 9.103-3.902 6.869 0.019 12.632 5.326 12.651 11.539-0.019 3.015-1.274 4.408-2.754 5.145-1.486 0.736-3.228 0.749-4.121 0.749v0.331c1.786 0 7.206 0 7.206-6.225z"/><path d="m131.92 101.96c-3.703 0-6.843-2.372-8.005-5.675-0.125 0-0.249 0-0.368-0.013 1.174 3.503 4.489 6.019 8.373 6.019 3.684 0 6.837-2.241 8.161-5.419-0.119 0.012-0.244 0.018-0.375 0.031-1.33 2.978-4.308 5.057-7.786 5.057z"/><path d="m131.92 84.597c-4.877 0.013-8.841 3.971-8.841 8.848 0 0.993 0.168 1.935 0.468 2.822 0.119 0.013 0.243 0.013 0.368 0.013-0.318-0.893-0.499-1.83-0.499-2.835 0-4.689 3.827-8.51 8.504-8.51 3.852 0 8.523 3.815 8.523 8.51 0 1.23-0.262 2.398-0.737 3.459 0.131-0.013 0.256-0.019 0.375-0.031 0.449-1.049 0.693-2.211 0.693-3.422-0.013-4.92-4.802-8.816-8.854-8.854z"/><path d="m131.92 101.96c3.478 0 6.456-2.079 7.786-5.051-0.131 0.013-0.268 0.019-0.393 0.025-1.311 2.772-4.121 4.689-7.399 4.689-3.503 0-6.5-2.222-7.649-5.332-0.119 0-0.244-0.006-0.356-0.006 1.168 3.297 4.315 5.675 8.011 5.675z"/><path d="m123.77 93.451c0-4.52 3.641-8.173 8.161-8.173h0.013c1.804 0 3.871 0.912 5.463 2.398 1.599 1.498 2.704 3.534 2.704 5.775-0.006 1.249-0.294 2.441-0.781 3.484 0.119-0.006 0.256-0.012 0.394-0.025 0.474-1.055 0.736-2.229 0.736-3.459 0-4.689-4.67-8.51-8.523-8.51-4.682 0-8.504 3.815-8.504 8.51 0 1.005 0.181 1.942 0.5 2.835 0.112 0 0.237 0.006 0.356 0.006-0.337-0.887-0.519-1.829-0.519-2.841z"/><path d="m105.59 88.437c-2.766 0-5.007 2.254-5.007 5.014 0 1.068 0.331 2.036 0.899 2.86 0.899 1.299 2.404 2.154 4.108 2.154 1.824 0 3.397-0.962 4.284-2.398 0.468-0.749 0.737-1.648 0.737-2.61 0-2.766-2.248-5.02-5.021-5.02z"/><path d="m131.92 88.637c-2.635 0-4.789 2.167-4.789 4.814 0 1.155 0.393 2.21 1.074 3.028 0.874 1.081 2.229 1.774 3.715 1.774 1.299 0 2.454-0.506 3.303-1.33 0.918-0.868 1.505-2.098 1.505-3.472 0-2.647-2.154-4.814-4.808-4.814z"/><path d="m115.23 62.525c-3.497-0.012-6.363 0.693-9.597 4.103-2.135 2.222-3.303 5.038-3.303 7.936 0 0.162 0.006 0.33 0.006 0.493 0.131 3.041 1.611 4.664 3.31 5.426 1.685 0.761 3.521 0.761 4.508 0.761 0.793 0 1.611-0.025 2.472-0.062 0.912-0.031 1.855-0.075 2.823-0.075 0.999 0 1.991 0.044 2.947 0.094 0.911 0.043 1.779 0.087 2.61 0.087 0.899 0 2.753 0 4.427-0.812 1.679-0.805 3.128-2.547 3.115-5.75-0.006-6.65-6.106-12.201-13.318-12.201z"/><path d="m150.73 88.462c-0.1 0.281-0.2 0.55-0.35 0.8l-0.075 0.143-0.156 0.038c-0.337 0.056-0.705 0.093-1.049 0.093-2.785-0.012-5.419-1.785-5.463-4.189 0.044-2.41 2.672-4.184 5.463-4.196 0.375 0 0.749 0.031 1.118 0.093l0.218 0.044 0.044 0.225c0.056 0.225 0.081 0.449 0.113 0.674h0.118c-0.724-4.308-2.597-8.248-9.147-9.353-1.892-4.658-5.126-8.848-9.247-11.845-4.827-3.527-10.553-5.394-16.603-5.394-15.304 0-27.754 12.169-27.754 27.148 0 1.399 0.037 2.672 0.118 3.827 0.05 0.007 0.094 0.019 0.119 0.032 0.063 0.018 0 0.025 0.019 0.037 0.156 1.218 0.568 3.103 0.712 3.996-0.05-0.012-0.107-0.012-0.169-0.012 0.318 1.03 0.768 1.929 1.392 2.703 1.749 2.161 4.402 2.748 7.056 2.922-0.287-0.874-0.456-1.823-0.456-2.797 0-4.876 3.965-8.847 8.848-8.847 4.052 0.031 8.829 3.927 8.854 8.847 0 0.899-0.131 1.755-0.381 2.554 2.017 0.019 4.033 0.075 5.982 0.156 1.198 0.031 2.366 0.075 3.509 0.112-0.3-0.886-0.469-1.829-0.469-2.822 0-4.876 3.959-8.841 8.842-8.847 4.046 0.031 8.841 3.927 8.854 8.847 0 1.211-0.25 2.373-0.693 3.422 3.09-0.362 6.587-1.511 8.835-3.946 1.192-1.305 1.91-2.835 2.173-4.508-0.138 0.031-0.256 0.031-0.375 0.043zm-25.29-7.986c-1.674 0.812-3.528 0.812-4.427 0.812-0.831 0-1.692-0.044-2.61-0.087-0.955-0.05-1.954-0.094-2.947-0.094-0.962 0-1.911 0.044-2.822 0.075-0.856 0.037-1.674 0.062-2.473 0.062-0.987 0-2.829 0-4.508-0.761-1.692-0.762-3.178-2.385-3.309-5.426 0-0.163-0.007-0.331-0.007-0.493 0-2.904 1.168-5.72 3.303-7.936 3.235-3.41 6.101-4.115 9.597-4.103 7.212 0 13.306 5.551 13.319 12.201 0.012 3.203-1.443 4.939-3.116 5.75z"/><path d="m105.59 101.96c-3.702 0-6.849-2.372-8.011-5.688-0.124-0.006-0.243-0.006-0.38-0.025 1.186 3.516 4.489 6.044 8.391 6.044 4.009 0 7.381-2.641 8.473-6.293h-0.337c-1.086 3.459-4.314 5.962-8.136 5.962z"/><path d="m105.59 84.597c-4.882 0-8.847 3.971-8.847 8.848 0 0.974 0.168 1.923 0.456 2.797 0.137 0.019 0.256 0.019 0.38 0.025-0.318-0.887-0.487-1.829-0.487-2.822 0-4.689 3.809-8.51 8.498-8.51 3.84 0 8.517 3.815 8.517 8.51 0 0.899-0.131 1.754-0.381 2.554h0.337c0.25-0.8 0.381-1.655 0.381-2.554-0.025-4.914-4.795-8.81-8.854-8.848z"/><path d="m105.59 101.62c3.628 0 6.694-2.366 7.768-5.619 0.262-0.799 0.412-1.655 0.418-2.554 0-2.235-1.111-4.277-2.716-5.775-1.586-1.486-3.64-2.398-5.451-2.398h-0.019c-4.514 0-8.16 3.646-8.16 8.173 0 1.012 0.181 1.954 0.505 2.841 1.162 3.11 4.146 5.332 7.655 5.332z"/><path d="m113.36 96.005c-1.074 3.253-4.146 5.619-7.767 5.619-3.516 0-6.494-2.222-7.655-5.332-0.113-0.006-0.238-0.006-0.356-0.019 1.167 3.31 4.308 5.688 8.011 5.688 3.821 0 7.043-2.503 8.135-5.956h-0.368z"/><path d="m105.59 84.941c-4.689 0-8.498 3.815-8.498 8.51 0 0.993 0.169 1.936 0.487 2.822 0.125 0.013 0.25 0.013 0.356 0.019-0.318-0.887-0.505-1.829-0.505-2.841 0-4.52 3.64-8.173 8.16-8.173h0.019c1.811 0 3.865 0.912 5.451 2.398 1.605 1.498 2.716 3.534 2.716 5.775-0.006 0.899-0.15 1.755-0.418 2.554h0.362c0.25-0.799 0.381-1.655 0.381-2.554 0.006-4.695-4.671-8.51-8.511-8.51z"/><path d="m150.66 82.531c0.025 0 0.1 0.343 0.15 0.343-0.031-0.137-0.1-0.574-0.112-0.687h-0.119c0.019 0.113 0.062 0.219 0.081 0.344z"/><path d="m151.12 88.088c-0.094 0.012-0.181 0.012-0.269 0.025-0.037 0.125-0.081 0.237-0.112 0.349 0.119-0.006 0.243-0.006 0.356-0.037 0.012-0.125 0.043-0.269 0.056-0.406-0.013 0.019-0.013 0.056-0.031 0.069z"/><path d="m146.88 85.334c0-1.455 1.349-2.622 3.104-2.797-0.013-0.106-0.044-0.219-0.069-0.343-1.848 0.193-3.359 1.479-3.372 3.14 0.013 1.692 1.561 2.985 3.472 3.141 0.044-0.119 0.081-0.231 0.118-0.344-1.823-0.112-3.253-1.317-3.253-2.797z"/><path d="m151.56 82.474-0.069-0.174-0.187-0.044c-0.187-0.019-0.393-0.05-0.593-0.062 0.012 0.118 0.087 0.568 0.112 0.686 0.113 0.007 0.256 0.038 0.375 0.063h-0.094c0.075 0 0.175 0.012 0.256 0.031 0.331 0.912 0.156 1.655 0.194 2.86 0.006 0.699-0.088 1.323-0.287 1.879-0.1 0.025-0.369 0.044-0.394 0.081-0.1 0.019-0.206 0.019-0.312 0.025-0.069 0-0.131 0.006-0.187 0.006s-0.1-0.006-0.15-0.006c-1.723-0.093-3.003-1.217-3.01-2.485 0.007-1.224 1.199-2.316 2.804-2.454 0.112-0.006 0.231-0.031 0.343-0.031 0 0 0.006-0.006 0.013-0.006 0.1 0 0.206 0.006 0.331 0.019-0.063-0.007 0.012 0.012 0.118 0.025-0.006 0-0.006 0-0.006-0.007-0.05 0-0.125-0.343-0.15-0.343-0.019-0.125-0.062-0.231-0.081-0.343h-0.337c-0.125 0-0.225 0-0.344 0.006 0.025 0.125 0.057 0.237 0.069 0.343-1.748 0.175-3.103 1.343-3.103 2.797 0 1.48 1.43 2.685 3.247 2.798-0.031 0.112-0.069 0.231-0.119 0.343 0.119 0.006 0.244 0.013 0.356 0.013h0.012c0.125 0 0.232-0.013 0.356-0.025 0.032-0.113 0.063-0.219 0.094-0.331 0.106 0 0.219 0 0.306-0.007-0.019 0.119-0.031 0.213-0.044 0.3 0.025-0.006 0.056-0.006 0.069-0.006l0.175-0.013 0.081-0.156c0.35-0.668 0.462-1.43 0.462-2.272v-0.132c-0.006-1.217 0.056-2.36-0.306-3.378zm-0.456 0.456c-0.112-0.018-0.206-0.025-0.274-0.05 0.037 0.032 0.143 0.05 0.274 0.05z"/><path d="m85.085 88.768c0.082 0.887 1.792 1.755 3.11 1.855-0.362-1.162-0.575-2.498-0.687-4.053-0.618-0.143-2.654-0.455-2.423 2.198z"/><path d="m88.214 86.645c-0.019-0.012 0.043-0.018-0.019-0.037-0.025-0.013-0.069-0.019-0.119-0.031 0.106 1.554 0.312 2.891 0.681 4.052 0.062 0 0.118 0 0.168 0.012-0.143-0.899-0.555-2.784-0.711-3.996z"/><path d="m105.59 98.459c1.824 0 3.397-0.962 4.284-2.398-0.138 0.006-0.269 0.006-0.4 0.013-0.849 1.236-2.266 2.048-3.877 2.048-1.499 0-2.841-0.706-3.703-1.817h-0.4c0.887 1.305 2.398 2.154 4.096 2.154z"/><path d="m100.92 93.451c0-2.579 2.092-4.683 4.677-4.683s4.683 2.098 4.683 4.683c0 0.968-0.306 1.886-0.806 2.623 0.131-0.007 0.262-0.007 0.4-0.013 0.468-0.749 0.737-1.648 0.737-2.61 0-2.76-2.248-5.014-5.021-5.014-2.766 0-5.007 2.254-5.007 5.014 0 1.068 0.331 2.036 0.899 2.86h0.4c-0.594-0.799-0.962-1.786-0.962-2.86z"/><path d="m105.59 97.803c-1.292-0.006-2.46-0.587-3.253-1.492h-0.443c0.868 1.111 2.204 1.817 3.703 1.817 1.611 0 3.028-0.806 3.877-2.048-0.143 0-0.293 0.006-0.443 0.019-0.793 1.017-2.029 1.698-3.441 1.704z"/><path d="m105.59 88.768c-2.585 0-4.676 2.098-4.676 4.683 0 1.074 0.368 2.067 0.968 2.86h0.443c-0.675-0.762-1.08-1.767-1.08-2.86 0-2.397 1.941-4.333 4.333-4.346 2.404 0.013 4.339 1.949 4.352 4.346-0.013 1.012-0.343 1.917-0.918 2.641 0.144-0.006 0.294-0.018 0.443-0.018 0.506-0.743 0.806-1.655 0.806-2.623 0.019-2.579-2.086-4.683-4.671-4.683z"/><path d="m131.92 98.253c1.299 0 2.454-0.506 3.303-1.33-0.15 0-0.306 0-0.462-0.013-0.774 0.631-1.767 0.999-2.841 0.999-1.255 0-2.416-0.53-3.228-1.392-0.162-0.006-0.325-0.025-0.487-0.038 0.88 1.081 2.235 1.774 3.715 1.774z"/><path d="m127.47 93.451c0-2.466 1.998-4.464 4.452-4.464 2.479 0 4.471 1.998 4.471 4.464 0 1.399-0.637 2.635-1.63 3.459 0.156 0.013 0.312 0.013 0.462 0.013 0.918-0.868 1.505-2.098 1.505-3.472 0-2.647-2.154-4.814-4.808-4.814-2.635 0-4.789 2.167-4.789 4.814 0 1.155 0.393 2.21 1.074 3.028 0.162 0.013 0.325 0.032 0.487 0.038-0.756-0.793-1.224-1.88-1.224-3.066z"/><path d="m131.92 97.585c-1.024 0-1.967-0.394-2.685-1.018-0.181-0.025-0.362-0.038-0.543-0.056 0.812 0.855 1.973 1.392 3.228 1.392 1.074 0 2.073-0.368 2.841-0.999-0.187 0-0.381-0.013-0.556-0.013-0.643 0.425-1.43 0.694-2.285 0.694z"/><path d="m136.39 93.451c0-2.466-1.992-4.464-4.471-4.464-2.454 0-4.452 1.998-4.452 4.464 0 1.186 0.462 2.273 1.224 3.066 0.181 0.019 0.362 0.031 0.543 0.056-0.88-0.755-1.43-1.873-1.43-3.122 0-2.285 1.83-4.121 4.115-4.127 2.285 0.006 4.14 1.842 4.14 4.127 0 1.442-0.731 2.697-1.849 3.447 0.175 0 0.369 0.012 0.556 0.012 0.987-0.824 1.624-2.066 1.624-3.459z"/></g><g fill-rule="nonzero"><path d="m61.902 366.96 0.886 0.837 5.408-5.589-6.294 4.752z"/><path d="m68.196 362.2-5.408 5.589 0.85 0.811 4.558-6.4z"/><path d="m63.606 375.68-0.893 0.805 5.152 5.845-4.259-6.65z"/><path d="m67.865 382.34-5.152-5.845-0.886 0.787 6.038 5.058z"/><path d="m55.876 377.38-0.861-0.849-5.545 5.469 6.406-4.62z"/><path d="m49.47 382 5.545-5.469-0.831-0.843-4.714 6.312z"/><path d="m54.034 368.6 0.856-0.849-5.389-5.619 4.533 6.468z"/><path d="m49.501 362.14 5.389 5.619 0.843-0.824-6.232-4.795z"/><path d="m52.96 373.68v-1.692l-10.702-0.013 10.702 1.705z"/><path d="m42.258 371.98 10.702 0.013v-1.605l-10.702 1.592z"/><path d="m60.516 378.18-1.674 0.013 0.031 10.708 1.643-10.721z"/><path d="m58.873 388.9-0.031-10.708-1.604 0.025 1.635 10.683z"/><path d="m57.3 366.16 1.655-0.013v-10.702l-1.655 10.715z"/><path d="m58.955 355.44v10.702l1.629-0.012-1.629-10.69z"/><path d="m65.042 370.26-0.025 1.667 10.715 0.206-10.69-1.873z"/><path d="m75.732 372.14-10.715-0.206-0.012 1.624 10.727-1.418z"/><path d="m59.129 365.78c-3.534 0-6.4 2.86-6.4 6.381 0 3.528 2.866 6.4 6.4 6.4 3.541 0 6.394-2.866 6.394-6.4 0-3.528-2.853-6.381-6.394-6.381zm0 9.79c-1.941 0-3.515-1.567-3.515-3.521 0-1.923 1.574-3.497 3.515-3.497 1.936 0 3.516 1.567 3.516 3.497-0.006 1.954-1.586 3.521-3.516 3.521z"/></g><g fill-rule="nonzero"><path d="m91.186 235.82 0.599 0.58 3.659-3.796-4.258 3.216z"/><path d="m95.444 232.6-3.659 3.796 0.568 0.55 3.091-4.346z"/><path d="m92.335 241.75-0.619 0.544 3.497 3.964-2.878-4.508z"/><path d="m95.213 246.26-3.497-3.964-0.587 0.537 4.084 3.427z"/><path d="m87.083 242.9-0.568-0.574-3.759 3.702 4.327-3.128z"/><path d="m82.756 246.02 3.759-3.702-0.562-0.575-3.197 4.277z"/><path d="m85.835 236.93 0.593-0.568-3.665-3.808 3.072 4.376z"/><path d="m82.763 232.56 3.665 3.808 0.568-0.555-4.233-3.253z"/><path d="m85.123 240.38-0.013-1.136-7.249-0.013 7.262 1.149z"/><path d="m77.861 239.23 7.249 0.013v-1.099l-7.249 1.086z"/><path d="m90.243 243.44-1.137 0.012 0.032 7.255 1.105-7.267z"/><path d="m89.138 250.71-0.032-7.255h-1.086l1.118 7.255z"/><path d="m88.057 235.28 1.131-0.006v-7.274l-1.131 7.28z"/><path d="m89.188 228v7.274l1.092-0.019-1.092-7.25z"/><path d="m93.302 238.08-0.006 1.124 7.256 0.144-7.25-1.268z"/><path d="m100.55 239.35-7.256-0.144-0.019 1.093 7.275-0.949z"/><path d="m89.294 235.02c-2.398 0-4.34 1.948-4.34 4.339s1.942 4.327 4.34 4.327c2.397 0 4.346-1.936 4.346-4.327s-1.949-4.339-4.346-4.339zm0 6.649c-1.33 0-2.385-1.061-2.385-2.372 0-1.324 1.055-2.392 2.385-2.392 1.311 0 2.379 1.068 2.379 2.392 0 1.311-1.068 2.372-2.379 2.372z"/></g><g fill-rule="nonzero"><path d="m256.26 414.73 0.718 0.687 4.396-4.558-5.114 3.871z"/><path d="m261.37 410.86-4.396 4.558 0.693 0.655 3.703-5.213z"/><path d="m257.64 421.81-0.724 0.662 4.189 4.739-3.465-5.401z"/><path d="m261.1 427.22-4.189-4.739-0.706 0.643 4.895 4.096z"/><path d="m251.36 423.19-0.7-0.693-4.508 4.44 5.208-3.747z"/><path d="m246.15 426.94 4.508-4.44-0.674-0.674-3.834 5.114z"/><path d="m249.86 416.07 0.712-0.705-4.377-4.552 3.665 5.257z"/><path d="m246.19 410.81 4.377 4.552 0.687-0.662-5.064-3.89z"/><path d="m249.01 420.17v-1.336l-8.704-0.031 8.704 1.367z"/><path d="m240.3 418.8 8.704 0.031-0.013-1.317-8.691 1.286z"/><path d="m255.13 423.86-1.361 0.006 0.025 8.692 1.336-8.698z"/><path d="m253.8 432.55-0.025-8.692-1.311 0.013 1.336 8.679z"/><path d="m252.52 414.07 1.355-0.006v-8.686l-1.355 8.692z"/><path d="m253.88 405.37v8.686l1.311-0.007-1.311-8.679z"/><path d="m258.81 417.42-0.013 1.361 8.704 0.15-8.691-1.511z"/><path d="m267.5 418.94-8.704-0.15-0.025 1.305 8.729-1.155z"/><path d="m254.01 413.76c-2.866 0-5.201 2.335-5.201 5.201s2.341 5.189 5.201 5.189 5.189-2.323 5.189-5.189c0-2.872-2.329-5.201-5.189-5.201zm0 7.967c-1.573 0-2.86-1.274-2.86-2.847 0-1.574 1.28-2.854 2.86-2.854s2.847 1.28 2.847 2.854c-0.006 1.573-1.273 2.847-2.847 2.847z"/></g><g fill-rule="nonzero"><path d="m184.11 29.271 0.611 0.562 3.666-3.803-4.277 3.241z"/><path d="m188.38 26.03-3.666 3.803 0.569 0.555 3.097-4.358z"/><path d="m185.28 35.184-0.618 0.543 3.497 3.958-2.879-4.501z"/><path d="m188.15 39.685-3.497-3.958-0.606 0.543 4.103 3.415z"/><path d="m180.02 36.339-0.581-0.587-3.765 3.709 4.346-3.122z"/><path d="m175.68 39.461 3.765-3.709-0.562-0.55-3.203 4.259z"/><path d="m178.77 30.37 0.587-0.569-3.665-3.808 3.078 4.377z"/><path d="m175.69 25.993 3.665 3.808 0.568-0.549-4.233-3.259z"/><path d="m178.05 33.816v-1.13l-7.255-0.019 7.255 1.149z"/><path d="m170.8 32.667 7.255 0.019v-1.099l-7.255 1.08z"/><path d="m183.19 36.876-1.137 0.012 0.007 7.256 1.13-7.268z"/><path d="m182.06 44.144-0.007-7.256-1.099 0.006 1.106 7.25z"/><path d="m180.99 28.715 1.13-0.006v-7.262l-1.13 7.268z"/><path d="m182.12 21.447v7.262l1.086-0.013-1.086-7.249z"/><path d="m186.25 31.512-0.012 1.124 7.249 0.131-7.237-1.255z"/><path d="m193.49 32.767-7.249-0.131-0.019 1.099 7.268-0.968z"/><path d="m182.22 28.453c-2.385 0-4.321 1.942-4.321 4.333 0 2.398 1.936 4.333 4.321 4.333 2.404 0 4.333-1.935 4.333-4.333 0-2.391-1.929-4.333-4.333-4.333zm0 6.656c-1.312 0-2.367-1.068-2.367-2.379 0-1.318 1.055-2.379 2.367-2.379 1.33 0 2.391 1.061 2.391 2.379 0 1.305-1.061 2.379-2.391 2.379z"/></g><g fill-rule="nonzero"><path d="m409.48 29.271 0.606 0.562 3.671-3.803-4.277 3.241z"/><path d="m413.75 26.03-3.671 3.803 0.562 0.555 3.109-4.358z"/><path d="m410.64 35.184-0.618 0.543 3.49 3.958-2.872-4.501z"/><path d="m413.51 39.685-3.49-3.958-0.581 0.543 4.071 3.415z"/><path d="m405.39 36.339-0.569-0.587-3.771 3.709 4.34-3.122z"/><path d="m401.05 39.461 3.771-3.709-0.587-0.55-3.184 4.259z"/><path d="m404.13 30.37 0.58-0.569-3.652-3.808 3.072 4.377z"/><path d="m401.06 25.993 3.652 3.808 0.593-0.549-4.245-3.259z"/><path d="m403.42 33.816-0.006-1.13-7.256-0.019 7.262 1.149z"/><path d="m396.16 32.667 7.256 0.019v-1.099l-7.256 1.08z"/><path d="m408.54 36.876-1.13 0.012 0.018 7.256 1.112-7.268z"/><path d="m407.43 44.144-0.018-7.256-1.106 0.006 1.124 7.25z"/><path d="m406.35 28.715 1.13-0.006v-7.262l-1.13 7.268z"/><path d="m407.48 21.447v7.262l1.099-0.013-1.099-7.249z"/><path d="m411.6 31.512v1.124l7.249 0.131-7.249-1.255z"/><path d="m418.85 32.767-7.249-0.131-0.032 1.099 7.281-0.968z"/><path d="m407.6 28.453c-2.404 0-4.333 1.942-4.333 4.333 0 2.398 1.935 4.333 4.333 4.333s4.327-1.935 4.327-4.333c0.006-2.391-1.929-4.333-4.327-4.333zm0 6.656c-1.33 0-2.404-1.068-2.404-2.379 0-1.318 1.074-2.379 2.404-2.379 1.317 0 2.373 1.061 2.373 2.379 0 1.305-1.056 2.379-2.373 2.379z"/></g><g fill-rule="nonzero"><path d="m469.87 284.61 0.587 0.562 3.678-3.796-4.265 3.234z"/><path d="m474.13 281.38-3.678 3.796 0.581 0.544 3.097-4.34z"/><path d="m471.02 290.53-0.618 0.543 3.491 3.965-2.873-4.508z"/><path d="m473.89 295.04-3.491-3.965-0.593 0.53 4.084 3.435z"/><path d="m465.77 291.67-0.574-0.587-3.778 3.715 4.352-3.128z"/><path d="m461.42 294.8 3.778-3.715-0.574-0.555-3.204 4.27z"/><path d="m464.51 285.71 0.606-0.568-3.678-3.809 3.072 4.377z"/><path d="m461.44 281.33 3.678 3.809 0.549-0.556-4.227-3.253z"/><path d="m463.79 289.15v-1.13l-7.262-0.013 7.262 1.143z"/><path d="m456.53 288.01 7.262 0.013v-1.099l-7.262 1.086z"/><path d="m468.92 292.22-1.13 0.013v7.261l1.13-7.274z"/><path d="m467.79 299.49v-7.261l-1.099 0.006 1.099 7.255z"/><path d="m466.73 284.06h1.136v-7.274l-1.136 7.274z"/><path d="m467.87 276.79v7.274l1.099-0.013-1.099-7.261z"/><path d="m472 286.85-0.025 1.136 7.268 0.125-7.243-1.261z"/><path d="m479.24 288.12-7.268-0.125-0.019 1.093 7.287-0.968z"/><path d="m467.98 283.79c-2.392 0-4.327 1.955-4.327 4.346 0 2.398 1.941 4.339 4.327 4.339 2.403 0 4.333-1.941 4.333-4.339s-1.93-4.346-4.333-4.346zm0 6.669c-1.318 0-2.379-1.068-2.379-2.386 0-1.317 1.061-2.378 2.379-2.378 1.317 0 2.391 1.061 2.391 2.378 0 1.318-1.074 2.386-2.391 2.386z"/></g><path d="m62.794 460.03-11.177 0.641 0.285 4.974 11.177-0.64-0.285-4.975z"/><path d="m53.576 478.23 12.437-0.714-0.115-2.001-12.437 0.714 0.115 2.001z"/><path d="m34.379 462.66c-5.62 0.331-9.922 5.158-9.604 10.796 0.325 5.619 5.158 9.915 10.777 9.59 5.632-0.324 9.935-5.163 9.61-10.783-0.337-5.632-5.158-9.927-10.783-9.603zm1.167 17.926c-4.196 0.244-7.792-2.953-8.048-7.149-0.231-4.183 2.966-7.78 7.149-8.036 4.196-0.231 7.805 2.96 8.042 7.156 0.244 4.189-2.953 7.786-7.143 8.029z" fill-rule="nonzero"/><path d="m53.304 473.04 0.116 1.994 12.423-0.721-0.116-1.995-12.423 0.722z"/><path d="m34.647 465.4c-4.183 0.256-7.38 3.852-7.149 8.035 0.256 4.196 3.852 7.393 8.048 7.15 4.19-0.244 7.393-3.84 7.149-8.03-0.243-4.202-3.846-7.386-8.048-7.155zm0.899 12.487c-2.71 0.244-5.082-1.736-5.338-4.439-0.25-2.71 1.748-5.095 4.439-5.339 2.704-0.256 5.095 1.73 5.351 4.44 0.244 2.703-1.748 5.095-4.452 5.338z" fill-rule="nonzero"/><path d="m37.225 453.4-12.429 0.732 0.16 2.718 12.429-0.732-0.16-2.718z"/><path d="m61.021 455.63-37.519 2.179c-2.055 0.131-3.628 1.892-3.509 3.94l1.355 23.358c0.124 2.061 1.885 3.622 3.946 3.515l37.513-2.185c2.061-0.112 3.634-1.879 3.515-3.94l-1.361-23.352c-0.125-2.054-1.898-3.627-3.94-3.515zm-25.462 27.41c-5.62 0.325-10.453-3.971-10.777-9.59-0.319-5.632 3.977-10.465 9.603-10.796 5.626-0.324 10.446 3.971 10.783 9.603 0.325 5.62-3.977 10.459-9.609 10.783zm16.034-22.377 11.183-0.644 0.287 4.964-11.183 0.65-0.287-4.97zm14.448 16.87-12.437 0.712-0.107-1.979 12.42-0.731 0.124 1.998zm-12.618-2.503-0.119-1.992 12.425-0.724 0.113 1.991-12.419 0.725z" fill-rule="nonzero"/><path d="m41.733 274.27-5.076 5.994 2.677 2.268 5.077-5.994-2.678-2.268z"/><path d="m46.562 287.76 5.659-6.663-1.07-0.909-5.66 6.663 1.071 0.909z"/><path d="m29.333 289.98c-2.566 3.022-2.185 7.549 0.831 10.103 3.028 2.566 7.543 2.191 10.109-0.831 2.56-3.022 2.191-7.549-0.831-10.115-3.034-2.554-7.555-2.185-10.109 0.843zm9.685 8.092c-1.911 2.248-5.289 2.535-7.53 0.618-2.261-1.898-2.542-5.27-0.637-7.53 1.917-2.254 5.295-2.529 7.536-0.624 2.26 1.91 2.541 5.282 0.631 7.536z" fill-rule="nonzero"/><path d="m43.763 285.4 1.072 0.908 5.656-6.681-1.072-0.908-5.656 6.681z"/><path d="m30.857 291.16c-1.904 2.26-1.623 5.626 0.637 7.53 2.235 1.917 5.613 1.63 7.53-0.618 1.904-2.248 1.623-5.626-0.631-7.536-2.247-1.898-5.619-1.624-7.536 0.624zm6.793 5.601c-1.18 1.505-3.353 1.748-4.857 0.556-1.499-1.168-1.761-3.341-0.569-4.839 1.187-1.505 3.36-1.761 4.864-0.562 1.493 1.173 1.749 3.359 0.562 4.845z" fill-rule="nonzero"/><path d="m25.996 284.06-5.639 6.663 1.468 1.243 5.639-6.664-1.468-1.242z"/><path d="m38.662 273.03-17.058 20.136c-0.943 1.106-0.812 2.76 0.293 3.691l12.544 10.62c1.105 0.937 2.772 0.806 3.69-0.299l17.071-20.149c0.943-1.093 0.812-2.741-0.306-3.684l-12.538-10.64c-1.105-0.943-2.753-0.8-3.696 0.318zm1.611 26.224c-2.566 3.016-7.081 3.391-10.109 0.831-3.016-2.554-3.397-7.081-0.831-10.103 2.561-3.028 7.081-3.397 10.109-0.843 3.022 2.566 3.391 7.087 0.831 10.115zm-3.622-19 5.077-5.994 2.672 2.254-5.076 6.007-2.673-2.267zm15.579 0.837-5.657 6.662-1.068-0.905 5.657-6.669 1.068 0.912zm-7.393 5.195-1.074-0.912 5.67-6.668 1.067 0.905-5.663 6.675z" fill-rule="nonzero"/><path d="m93.234 34.665c-2.91 0.544-4.827 3.31-4.302 6.207 0.518 2.909 3.309 4.839 6.212 4.314 2.898-0.53 4.821-3.309 4.296-6.219-0.518-2.897-3.309-4.82-6.206-4.302zm1.679 8.636c-1.854 0.406-3.696-0.781-4.102-2.635-0.406-1.867 0.781-3.697 2.635-4.102 1.873-0.406 3.696 0.768 4.108 2.634 0.406 1.855-0.774 3.697-2.641 4.103z" fill-rule="nonzero"/><path d="m93.993 26.087-8.601 1.564 0.345 1.898 8.601-1.564-0.345-1.898z"/><path d="m110.79 25.624-25.969 4.714c-1.442 0.25-2.385 1.611-2.129 3.041l2.941 16.165c0.256 1.43 1.611 2.373 3.041 2.111l25.974-4.72c1.43-0.256 2.367-1.624 2.111-3.047l-2.935-16.153c-0.25-1.436-1.605-2.379-3.034-2.111zm-15.421 21.267c-3.902 0.712-7.636-1.88-8.336-5.782-0.711-3.896 1.874-7.617 5.776-8.329 3.903-0.712 7.624 1.867 8.342 5.775 0.699 3.897-1.886 7.63-5.782 8.336zm9.266-16.965 7.749-1.398 0.624 3.428-7.755 1.423-0.618-3.453zm11.514 10.54-8.611 1.555-0.256-1.374 8.611-1.561 0.256 1.38zm-9.004-0.693-0.25-1.374 8.586-1.554 0.256 1.373-8.592 1.555z" fill-rule="nonzero"/><path d="m413.85 272.44c0.038 3.528 2.941 6.369 6.475 6.319 3.528-0.031 6.357-2.941 6.319-6.462-0.037-3.553-2.941-6.375-6.475-6.338-3.54 0.044-6.356 2.947-6.319 6.481zm10.528-0.262c0.106 2.279-1.649 4.221-3.953 4.314-2.266 0.107-4.202-1.654-4.302-3.939-0.125-2.292 1.649-4.228 3.94-4.315 2.279-0.119 4.202 1.655 4.315 3.94z" fill-rule="nonzero"/><path d="m403.82 269.84 0.141 10.47 2.297-0.031-0.14-10.47-2.298 0.031z"/><path d="m406.65 249.88 0.381 31.656c0.012 1.724 1.436 3.116 3.184 3.091l19.693-0.231c1.73-0.012 3.122-1.436 3.097-3.172l-0.374-31.65c-0.013-1.723-1.443-3.115-3.185-3.097l-19.693 0.244c-1.736 0-3.103 1.43-3.103 3.159zm22.06 22.49c0.062 4.74-3.747 8.623-8.486 8.686-4.745 0.056-8.623-3.74-8.71-8.479-0.025-4.758 3.759-8.654 8.492-8.704 4.776-0.057 8.654 3.746 8.704 8.497zm-18.195-14.348-0.113-9.434 4.196-0.05 0.1 9.428-4.183 0.056zm14.735-11.501 0.132 10.471-1.674 0.031-0.125-10.477 1.667-0.025zm-2.591 10.508-1.686 0.032-0.124-10.478 1.685-0.037 0.125 10.483z" fill-rule="nonzero"/><path d="m473.13 190.5c-1.205-1.536-3.415-1.804-4.964-0.593-1.523 1.205-1.804 3.422-0.612 4.964 1.218 1.536 3.441 1.804 4.97 0.587 1.561-1.186 1.817-3.403 0.606-4.958zm-4.514 3.659c-0.824-0.968-0.7-2.41 0.262-3.215 0.974-0.812 2.429-0.693 3.247 0.268 0.805 0.974 0.668 2.416-0.294 3.234-0.98 0.812-2.416 0.681-3.215-0.287z" fill-rule="nonzero"/><path d="m478.41 188.31-3.574-4.545-0.986 0.775 3.573 4.546 0.987-0.776z"/><path d="m483.88 198-10.802-13.774c-0.593-0.756-1.674-0.88-2.442-0.293l-8.547 6.73c-0.762 0.581-0.893 1.674-0.306 2.429l10.789 13.768c0.606 0.749 1.692 0.874 2.454 0.293l8.56-6.73c0.756-0.581 0.881-1.668 0.294-2.423zm-17.233-2.46c-1.611-2.067-1.249-5.051 0.793-6.669 2.073-1.623 5.063-1.255 6.681 0.806 1.611 2.073 1.255 5.045-0.812 6.662-2.061 1.63-5.039 1.261-6.662-0.799zm12.806 0.181 3.209 4.108-1.817 1.43-3.228-4.096 1.836-1.442zm-2.623 10.009-3.571-4.558 0.73-0.581 3.566 4.571-0.725 0.568zm-2.385-5.489 0.731-0.58 3.565 4.564-0.73 0.562-3.566-4.546z" fill-rule="nonzero"/><path d="m351.94 79.706-10.702-3.289-1.462 4.757 10.702 3.289 1.462-4.757z"/><path d="m336.94 93.637 11.909 3.655 0.582-1.898-11.908-3.655-0.583 1.898z"/><path d="m324.39 72.303c-5.395-1.661-11.096 1.38-12.763 6.75-1.655 5.388 1.374 11.108 6.762 12.762 5.376 1.661 11.096-1.373 12.756-6.762 1.649-5.382-1.367-11.089-6.755-12.75zm-5.145 17.208c-4.034-1.236-6.294-5.488-5.064-9.503 1.236-4.027 5.501-6.269 9.509-5.032 4.028 1.23 6.263 5.494 5.033 9.497-1.23 4.014-5.489 6.275-9.478 5.038z" fill-rule="nonzero"/><path d="m338.49 88.638-0.586 1.91 11.891 3.647 0.586-1.91-11.891-3.647z"/><path d="m323.7 74.969c-4.014-1.236-8.273 1.012-9.509 5.033-1.23 4.015 1.024 8.267 5.064 9.503 3.996 1.236 8.248-1.024 9.484-5.039 1.224-4.002-1.017-8.26-5.039-9.497zm-3.534 12.014c-2.616-0.712-4.164-3.41-3.446-6.026 0.693-2.622 3.409-4.164 6.019-3.465 2.622 0.712 4.171 3.422 3.472 6.038-0.706 2.603-3.416 4.158-6.045 3.453z" fill-rule="nonzero"/><path d="m330.23 64.623-11.888-3.655-0.804 2.614 11.888 3.655 0.804-2.614z"/><path d="m351.79 75.007-35.91-11.045c-1.966-0.6-4.058 0.505-4.676 2.472l-6.869 22.359c-0.599 1.973 0.5 4.065 2.485 4.677l35.915 11.039c1.961 0.593 4.053-0.506 4.658-2.479l6.875-22.359c0.612-1.967-0.493-4.052-2.479-4.664zm-33.405 16.808c-5.388-1.661-8.417-7.374-6.762-12.762 1.667-5.364 7.368-8.404 12.763-6.75 5.388 1.661 8.404 7.368 6.755 12.75-1.66 5.389-7.38 8.423-12.756 6.762zm22.822-15.385 10.702 3.291-1.449 4.758-10.714-3.291 1.461-4.758zm7.655 20.836-11.907-3.653 0.605-1.898 11.895 3.659-0.593 1.892zm-10.94-6.743 0.587-1.911 11.889 3.659-0.587 1.904-11.889-3.652z" fill-rule="nonzero"/><ellipse rx="0.406" ry="0.905" cy="397.98" cx="78.792"/><path d="m79.441 399.72c0-0.38-0.287-0.649-0.649-0.649-0.363 0-0.662 0.269-0.662 0.649 0 0.363 0.299 0.65 0.662 0.65 0.362 0.006 0.649-0.287 0.649-0.65z" fill-rule="nonzero"/><ellipse rx="0.387" ry="0.855" cy="398.06" cx="78.785"/><ellipse rx="0.381" ry="0.855" cy="401.25" cx="78.904"/><path d="m79.51 398.28c-0.263 0.394-0.338 0.8-0.15 0.924 0.175 0.119 0.537-0.099 0.799-0.499 0.262-0.375 0.337-0.799 0.156-0.918-0.181-0.112-0.518 0.106-0.805 0.493z" fill-rule="nonzero"/><path d="m77.335 401.64c-0.175-0.122-0.099-0.536 0.171-0.923s0.632-0.603 0.807-0.48c0.176 0.122 0.099 0.535-0.171 0.923-0.27 0.387-0.632 0.602-0.807 0.48z"/><path d="m80.53 401.5c-0.16 0.137-0.541-0.045-0.851-0.406-0.31-0.36-0.432-0.764-0.272-0.901 0.159-0.137 0.54 0.044 0.85 0.405s0.432 0.765 0.273 0.902z"/><path d="m77.455 398.87c0.306 0.337 0.675 0.519 0.843 0.387 0.169-0.143 0.038-0.549-0.262-0.905s-0.681-0.531-0.849-0.393c-0.162 0.143-0.05 0.543 0.268 0.911z" fill-rule="nonzero"/><ellipse rx="0.855" ry="0.381" cy="399.7" cx="80.334"/><ellipse rx="0.855" ry="0.381" cy="399.76" cx="77.299"/><path d="m77.905 403.17c1.174 3.378-0.194 6.812 0.037 8.486 0.075 0.468 0.594 0.674 0.949 0.843 0.319 0.156 0.6 0.268 1.012 0.031 1.717-0.968 4.277-4.664 6.362-5.395 1.63-0.562 2.379-0.843 8.854-0.905 0.487-0.1 0.662-0.144 1.155-1.149l-23.046-11.29c-1.43 3.534 1.205-0.574 4.677 9.378zm21.111-11.482c-0.15-0.699-0.269-1.617-0.438-2.535-0.181-1.149-0.393-2.279-0.699-3.022-0.562-1.374-0.968-2.741-1.642-3.884-0.406-0.705-0.955-1.33-1.692-1.767v-0.037l0.069 0.025c0.012-0.025 0.012-0.032 0.018-0.05l0.094 0.018-0.019 0.082c0.213 0.031 0.481 0.056 0.768 0.056 0.519 0 1.087-0.069 1.567-0.269 0.238-0.093 0.456-0.224 0.631-0.399 0.169-0.175 0.281-0.425 0.325-0.693 0.006-0.081 0.006-0.156 0.006-0.213 0-0.237-0.062-0.399-0.169-0.53-0.118-0.144-0.281-0.2-0.455-0.188-0.244 0-0.512 0.1-0.8 0.244-0.43 0.212-0.886 0.537-1.255 0.899-0.174 0.181-0.337 0.343-0.455 0.518-0.107 0.131-0.175 0.262-0.225 0.394 0.031-0.2 0.044-0.425 0.044-0.693 0-0.506-0.069-1.068-0.263-1.543-0.093-0.231-0.224-0.443-0.406-0.605-0.162-0.169-0.393-0.288-0.661-0.325-0.082-0.013-0.157-0.019-0.238-0.019-0.212 0-0.399 0.056-0.524 0.175-0.125 0.131-0.181 0.294-0.181 0.468 0 0.238 0.093 0.519 0.237 0.806 0.219 0.418 0.549 0.874 0.887 1.242 0.106 0.119 0.206 0.194 0.306 0.294-0.263-0.119-0.544-0.213-0.868-0.281-0.356-0.075-0.775-0.119-1.193-0.119-1.542 0-3.509 0.45-5.345 1.024-1.848 0.568-3.89 1.436-4.97 1.979l0.038 0.007c-0.831 0.293-1.724 1.211-2.704 3.159-0.93 1.861 0.412 4.439 3.072 5.857 2.466 1.292 5.164 1.08 6.306-0.425-0.637 1.78 0.693 4.152 3.154 5.47 2.634 1.442 5.444 1.061 6.593-0.675 1.442-2.179 1.605-3.558 1.087-4.445zm-3.784-11.714c0.268-0.305 0.655-0.661 1.074-0.93 0.206-0.131 0.418-0.256 0.605-0.325 0.181-0.081 0.35-0.112 0.462-0.112 0.113 0 0.181 0.019 0.231 0.075 0.063 0.037 0.094 0.15 0.1 0.331 0 0.056-0.006 0.112-0.018 0.175-0.019 0.212-0.113 0.368-0.231 0.518-0.194 0.212-0.506 0.35-0.862 0.45-0.356 0.087-0.756 0.118-1.111 0.118-0.157 0-0.306 0-0.45-0.012 0.044-0.094 0.119-0.194 0.2-0.288zm-2.073-1.098c-0.262-0.419-0.444-0.837-0.444-1.074 0-0.125 0.032-0.181 0.082-0.238 0.056-0.043 0.131-0.081 0.318-0.081 0.056 0 0.125 0 0.206 0.019 0.2 0.019 0.362 0.106 0.5 0.225 0.199 0.193 0.349 0.474 0.424 0.836 0.1 0.338 0.125 0.731 0.125 1.087 0 0.175-0.006 0.349-0.012 0.499-0.082-0.05-0.175-0.118-0.281-0.193-0.319-0.275-0.662-0.687-0.918-1.08zm1.767 11.401c-3.516-0.081-5.283-0.962-6.325 0.293 0.53-1.536-0.924-2.391-3.247-5.419-0.824-1.062-1.805-2.323-2.985-2.498 1.068-0.493 2.573-1.08 4.152-1.573 1.83-0.575 3.759-1.018 5.258-1.018 0.412 0 0.799 0.031 1.13 0.112 1.549 0.344 2.41 1.162 3.06 2.248 0.649 1.086 1.055 2.448 1.635 3.834 0.275 0.68 0.494 1.817 0.681 2.959 0.112 0.7 0.219 1.399 0.325 2.017-0.824-0.699-2.273-0.93-3.684-0.955z" fill-rule="nonzero"/><path d="m294.76 49.588c-0.012-0.493-0.2-0.899-0.406-0.886-0.243 0.006-0.412 0.405-0.393 0.917 0.012 0.487 0.194 0.893 0.425 0.887 0.218-0.019 0.393-0.412 0.374-0.918z" fill-rule="nonzero"/><circle cy="51.336" cx="294.36" r="0.649"/><ellipse rx="0.381" ry="0.862" cy="49.682" cx="294.36"/><path d="m294.86 52.86c-0.006-0.468-0.181-0.837-0.394-0.837-0.224 0.007-0.387 0.394-0.38 0.856 0.025 0.48 0.199 0.849 0.412 0.849 0.2-0.006 0.368-0.381 0.362-0.868z" fill-rule="nonzero"/><path d="m294.93 50.834c-0.175-0.116-0.106-0.532 0.155-0.93 0.262-0.397 0.616-0.626 0.792-0.511 0.176 0.116 0.106 0.532-0.155 0.93-0.261 0.397-0.616 0.626-0.792 0.511z"/><path d="m292.89 53.239c-0.174-0.118-0.101-0.529 0.163-0.917 0.263-0.387 0.618-0.606 0.792-0.488s0.101 0.529-0.162 0.916c-0.264 0.388-0.619 0.607-0.793 0.489z"/><path d="m295.23 52.741c0.305 0.369 0.68 0.531 0.836 0.394 0.175-0.144 0.05-0.531-0.262-0.893-0.294-0.369-0.681-0.543-0.837-0.4-0.162 0.138-0.056 0.55 0.263 0.899z" fill-rule="nonzero"/><path d="m293.84 50.901c-0.164 0.137-0.538-0.04-0.834-0.394-0.296-0.355-0.403-0.754-0.239-0.89 0.164-0.137 0.538 0.039 0.834 0.394 0.296 0.354 0.403 0.753 0.239 0.89z"/><path d="m295.91 51.711c0.462-0.012 0.843-0.181 0.843-0.387 0-0.219-0.381-0.387-0.855-0.375-0.487 0-0.85 0.181-0.85 0.406 0.019 0.206 0.381 0.362 0.862 0.356z" fill-rule="nonzero"/><path d="m292.88 51.767c0.474 0 0.855-0.175 0.849-0.393 0-0.212-0.375-0.375-0.874-0.362-0.45 0-0.831 0.175-0.831 0.387 0 0.225 0.381 0.381 0.856 0.368z" fill-rule="nonzero"/><path d="m293.48 54.789c1.174 3.378-0.193 6.825 0.044 8.479 0.062 0.481 0.587 0.687 0.936 0.862 0.331 0.144 0.606 0.262 1.018 0.025 1.711-0.968 4.277-4.67 6.35-5.395 1.649-0.555 2.392-0.843 8.867-0.892 0.474-0.119 0.655-0.169 1.155-1.168l-23.03-11.276c-1.467 3.534 1.174-0.587 4.658 9.365zm21.117-11.47c-0.156-0.693-0.293-1.617-0.437-2.528-0.181-1.149-0.393-2.273-0.693-3.035-0.574-1.367-0.98-2.735-1.655-3.859-0.418-0.718-0.955-1.329-1.692-1.779l0.006-0.025 0.075 0.019c0-0.025 0-0.044 0.007-0.044l0.081 0.006-0.019 0.069c0.231 0.031 0.493 0.062 0.781 0.062 0.512 0 1.086-0.062 1.567-0.262 0.237-0.094 0.456-0.243 0.63-0.406 0.169-0.187 0.275-0.418 0.325-0.693 0.006-0.075 0.006-0.15 0.006-0.225 0-0.224-0.056-0.399-0.168-0.53-0.119-0.138-0.287-0.194-0.456-0.194-0.244 0.006-0.525 0.113-0.793 0.256-0.437 0.212-0.899 0.55-1.255 0.893-0.181 0.175-0.343 0.362-0.462 0.531-0.112 0.131-0.181 0.268-0.225 0.399 0.031-0.212 0.044-0.443 0.044-0.705 0-0.506-0.075-1.074-0.256-1.536-0.094-0.231-0.225-0.443-0.4-0.618-0.181-0.163-0.399-0.275-0.68-0.306-0.075-0.013-0.144-0.019-0.225-0.019-0.212 0-0.406 0.044-0.531 0.162-0.125 0.119-0.168 0.294-0.168 0.462 0 0.244 0.099 0.525 0.224 0.806 0.225 0.424 0.544 0.886 0.887 1.249 0.106 0.106 0.187 0.199 0.281 0.268-0.256-0.094-0.525-0.181-0.831-0.25-0.355-0.081-0.768-0.118-1.198-0.118-1.555 0-3.509 0.449-5.339 1.03-1.836 0.568-3.884 1.43-4.958 1.954l0.013 0.013c-0.818 0.306-1.717 1.23-2.691 3.172-0.931 1.854 0.418 4.439 3.066 5.85 2.478 1.299 5.17 1.08 6.318-0.425-0.636 1.774 0.693 4.146 3.141 5.483 2.648 1.429 5.445 1.042 6.6-0.681 1.43-2.179 1.592-3.578 1.08-4.446zm-3.796-11.713c0.275-0.318 0.668-0.668 1.068-0.949 0.212-0.125 0.418-0.244 0.611-0.319 0.188-0.081 0.356-0.124 0.469-0.124 0.112 0 0.181 0.037 0.231 0.087 0.056 0.037 0.087 0.144 0.087 0.318v0.182c-0.031 0.212-0.118 0.38-0.256 0.518-0.175 0.206-0.493 0.356-0.855 0.437-0.35 0.093-0.743 0.125-1.112 0.125-0.156 0-0.306 0-0.437-0.007 0.063-0.093 0.113-0.174 0.194-0.268zm-2.086-1.111c-0.243-0.419-0.437-0.831-0.424-1.074 0-0.125 0.031-0.188 0.087-0.238 0.056-0.043 0.138-0.081 0.312-0.081 0.069 0 0.125 0 0.2 0.006 0.2 0.025 0.362 0.107 0.5 0.238 0.193 0.187 0.356 0.487 0.424 0.843 0.094 0.337 0.125 0.73 0.125 1.08 0 0.181 0 0.356-0.025 0.512-0.1-0.056-0.156-0.125-0.262-0.2-0.312-0.281-0.668-0.681-0.937-1.086zm1.78 11.401c-3.522-0.088-5.276-0.956-6.306 0.3 0.512-1.53-0.931-2.392-3.26-5.42-0.824-1.055-1.804-2.329-2.984-2.498 1.061-0.48 2.566-1.074 4.133-1.586 1.842-0.562 3.771-0.999 5.264-0.999 0.418 0 0.811 0.032 1.149 0.094 1.529 0.362 2.41 1.174 3.04 2.254 0.656 1.08 1.074 2.448 1.63 3.834 0.3 0.705 0.506 1.823 0.693 2.953 0.112 0.712 0.225 1.411 0.325 2.029-0.818-0.718-2.267-0.924-3.684-0.961z" fill-rule="nonzero"/><g fill-rule="nonzero"><path d="m43.476 350.87 0.044 0.025c0.131 0-0.2-0.169-0.687-0.475 0.406 0.344 0.824 0.531 0.643 0.45z"/><path d="m41.771 348.84c-0.499-1.299-0.462-3.066-0.387-4.415 0.05-1.136-0.068-0.512 0.125-1.623 0.1-0.612 0.55-2.379 0.55-3.341v-1.142c-1.262 1.86-2.398 3.946-2.398 6.106 0 1.493-0.013 1.848 0.481 3.378 0.387 1.124 1.817 2.079 2.697 2.616-0.137-0.118-0.262-0.243-0.381-0.374-0.306-0.387-0.524-0.768-0.687-1.205z"/><path d="m29.746 350.12c-1.081 0.281-2.679 1.262-3.397 2.036-1.105 1.161-1.742 2.241-1.742 3.765 0 1.498 0.05 3.066 0.493 4.508 0.106 0.343 0.162 0.78 0.406 1.043 0.568 0.574 0.262-0.219 0.262-0.612-0.075-1.186-0.362-4.852 1.155-7.287 0.263-0.418 0.812-1.124 1.243-1.423 0.449-0.3 1.623-1.049 2.167-1.193 0.555-0.156 2.21-0.899 2.865-1.299 0 0-0.905 0.313 0.05-0.062-1.036-0.169-2.703 0.337-3.502 0.524z"/><path d="m31.968 362.22 0.05-0.019c-0.174 0.069 0.231-0.118 0.644-0.443-0.488 0.281-0.818 0.462-0.694 0.462z"/><path d="m37.182 347.82c-10.221-1.361-10.315 1.267-11.945 5.232-1.76 4.346-2.272 7.549-2.803 12.12l0.031-0.175c-0.437 2.897-0.83 4.939 4.327 5.201 3.566 0.175 4.933-0.699 5.289-3.366 0.325-2.478 1.13-4.395 2.316-6.368-0.568 0.53-1.242 0.974-1.748 1.286-0.406 0.325-0.812 0.512-0.643 0.443l-0.05 0.019c-0.125 0 0.206-0.175 0.693-0.462 0.131-0.119 0.275-0.25 0.387-0.393 0.312-0.369 0.518-0.762 0.674-1.205 0.519-1.293 0.456-3.066 0.394-4.409-0.063-1.142 0.056-0.505-0.131-1.648-0.088-0.593-0.543-2.366-0.543-3.315v-1.143c1.267 1.854 2.403 3.94 2.403 6.106 0 1.493 0.007 1.836-0.48 3.372-0.007 0.006-0.019 0.013-0.019 0.031 1.093-1.323 2.685-2.916 3.153-4.058 0.731-1.78 1.405-6.925-1.305-7.268zm-3.99 1.829c-0.655 0.4-2.31 1.143-2.866 1.299-0.537 0.144-1.711 0.893-2.166 1.193-0.431 0.293-0.987 0.999-1.243 1.423-1.517 2.442-1.23 6.107-1.155 7.287 0 0.393 0.306 1.18-0.262 0.612-0.244-0.263-0.3-0.7-0.406-1.043-0.443-1.442-0.493-3.01-0.493-4.508 0-1.524 0.643-2.604 1.742-3.765 0.718-0.774 2.316-1.755 3.396-2.036 0.8-0.181 2.467-0.686 3.503-0.518-0.949 0.369-0.05 0.056-0.05 0.056z"/><path d="m52.124 353.26 0.037 0.175c-0.337-2.866-0.649-5.207-1.298-7.624-0.032 1.112-0.15 2.223-0.469 3.285-0.112 0.337-0.15 0.78-0.406 1.042-0.562 0.581-0.262-0.206-0.262-0.611 0.069-1.187 0.356-4.839-1.155-7.287-0.262-0.425-0.818-1.124-1.249-1.411-0.456-0.3-1.636-1.043-2.173-1.205-0.543-0.163-2.204-0.899-2.853-1.305 0 0 0.886 0.318-0.069-0.056 1.043-0.156 2.704 0.337 3.491 0.524 1.08 0.275 2.684 1.268 3.415 2.042-1.442-3.703-1.961-6.044-11.714-4.758-2.716 0.368-2.048 5.495-1.311 7.287 0.581 1.486 3.053 3.683 3.94 5.12 1.249 2.06 2.117 4.027 2.448 6.612 0.343 2.672 1.729 3.54 5.295 3.359 5.169-0.244 4.776-2.285 4.333-5.189zm-8.604-2.366-0.044-0.025c0.181 0.075-0.237-0.112-0.643-0.45-0.881-0.537-2.31-1.492-2.698-2.616-0.493-1.53-0.48-1.885-0.48-3.378 0-2.16 1.136-4.246 2.397-6.106v1.142c0 0.956-0.449 2.729-0.549 3.341-0.194 1.118-0.075 0.487-0.125 1.623-0.075 1.349-0.112 3.116 0.387 4.415 0.162 0.443 0.381 0.818 0.681 1.205 0.118 0.131 0.243 0.262 0.381 0.374 0.493 0.3 0.83 0.475 0.693 0.475z"/></g><g fill-rule="nonzero"><path d="m420.58 131.16c0.044 0-0.362 7.493-0.531 9.996 0 0-0.393 0.425-0.68 0-0.306-0.437-0.843-9.653-0.999-9.965-0.038-0.112-0.881 0-0.881 0 0.106-0.006-0.381 3.89-0.793 9.94 0 0-0.612 0.375-0.924-0.006-0.306-0.381 0.181-9.896-0.299-9.896-1.056-0.013-0.119 0-0.731 0-0.287-0.013-0.631 2.254-0.805 4.152-0.15 1.723-0.394 3.303-0.562 5.232-0.075 1.024-0.431 3.784-0.375 3.247 0.069-0.737-0.112 1.473 0.031 1.954 0.749 2.591 4.521 2.541 4.533 4.277 0.038 3.74-0.449 10.871-0.587 13.961-0.637 15.51-1.448 14.324 0.793 14.392 2.916 0.063 1.767 1.299 1.355-14.285-0.1-3.022-0.349-10.022-0.393-13.731 0-0.112 0.025-0.212 0.025-0.337 0.125-1.942 3.265-1.517 4.152-4.258 0.081-0.2 0.175-1.549 0.15-1.761 0 0-0.156-1.224-0.269-2.897-0.168-1.842-0.399-3.834-0.537-5.357-0.362-4.034-0.693-4.602-0.537-4.602 0.325 0-1.298-0.056-1.136-0.056z"/><path d="m408.44 129.32c-4.421-0.106-5.226 12.387-5.345 15.94-0.312 8.511 0.362 10.253 3.028 10.421-0.243 6.125-1.205 12.906-0.449 19.45 0.399 3.559 2.691 3.796 3.078 1.411 0.487-3.047 0.069-5.944 0.106-10.421 0.063-4.333-0.318-9.472-0.275-13.318 0.025-4.109-0.218-19.593-0.362-23.702"/></g><path d="m429.31 405.42 57.844-29.583v-14.311l-50.489 17.377-10.783-10.765-6.45 6.444 8.342 8.348-24.682 8.91-7.087-7.075-8.61-8.828 0.075-0.081-19.194-19.2c-4.134-4.159-20.149-13.312-24.364-9.079l0.181 0.194c-3.915 4.37 5.145 20.124 9.235 24.195l19.181 19.199 15.622 15.622-8.941 24.689-8.342-8.342-6.437 6.443 10.49 10.777-16.416 47.965 14.742-0.012 28.441-55.258 6.357-6.843 39.03 37.844-2.06 23.345 4.539 2.523 8.848-16.565c5.994 3.116 17.039 6.431 17.926 6.687l0.062 0.075s-0.012-0.012-0.025-0.05h0.013-0.013c-0.218-0.855-2.928-10.733-6.156-17.976l17.758-8.648-3.84-3.758-23.44 1.429-38.256-39.248 6.899-6.444z" fill-rule="nonzero"/></g></g></g><path d="m411.5 6h-311.01c-59.774 0-94.49 34.603-94.49 94.49v311.02c0 52.18 42.303 94.49 94.49 94.49h311.01c52.18 0 94.5-42.3 94.5-94.49v-311.01c0-60.996-32.19-94.5-94.5-94.5zm73.672 408.3c0 39.136-31.731 70.868-70.881 70.868h-316.59c-39.149 0-70.862-31.732-70.862-70.868v-316.6c0-39.142 31.719-70.861 70.862-70.861h316.6c39.149 0 70.881 31.725 70.881 70.861v316.6h-0.007z" fill-rule="nonzero" fill="url(#_Linear4)"/><g fill-rule="nonzero"><path d="m38.306 287.32-8.167-8.741c-5.607-6.06-9.759-12.89-12.419-20.36-2.673-7.524-3.291-15.647-1.917-24.382 1.38-8.736 4.92-17.883 10.502-27.411 5.682-9.541 13.943-19.387 24.87-29.546 21.391-19.843 40.91-30.145 58.536-30.894 17.633-0.768 32.313 4.92 44.057 17.089l207.54 223.49-30.976 28.759-43.345-46.623-6.101-6.575c-2.71-2.934-5.551-5.02-8.573-6.293-3.003-1.299-6-2.111-9.047-2.498-3.053-0.325-5.726-0.2-8.117 0.456-2.373 0.612-4.271 1.099-5.707 1.561-1.186 0.63-4.408 2.048-9.653 4.183-5.233 2.179-11.32 4.733-18.239 7.761-6.899 3.06-14.08 6.188-21.466 9.416-7.393 3.215-13.974 6.206-19.675 8.785-11.701 4.995-23.402 5.9-35.141 2.735-11.732-3.103-21.878-9.279-30.47-18.526l-8.123-8.741-68.371-73.64zm99.003 45.199 0.35-0.331 2.042 2.179c4.264 4.621 8.666 7.637 13.218 9.079 4.49 1.505 8.792 2.185 12.769 2.085 4.702-0.299 9.197-1.329 13.493-3.04 5.233-2.142 10.708-4.515 16.465-7.143 4.746-2.173 9.966-4.377 15.573-6.619 5.582-2.26 10.883-4.589 15.909-7.018 2.161-1.055 4.696-1.867 7.655-2.31 2.947-0.493 5.888 0.393 8.879 2.604l-41.99-45.187-2.036-2.204-71.799-77.286 0.363 0.368c-2.229-2.454-5.108-4.502-8.567-6.312-3.447-1.767-7.349-2.635-11.682-2.691-4.352-0.057-9.141 1.111-14.386 3.496-5.264 2.385-10.927 6.394-16.978 12.057-11.701 10.839-17.551 20.686-17.664 29.602-0.1 8.941 2.667 16.634 8.311 23.221l70.075 75.45z" fill="#fff"/><path d="m150.05 122.06 30.976-28.796 43.339 46.654 6.425 6.924c2.716 2.922 5.645 4.989 8.76 6.144 3.116 1.174 6.225 1.942 9.235 2.292 3.06 0.349 5.763 0.212 8.117-0.4 2.373-0.643 4.265-1.118 5.688-1.573 1.212-0.65 4.427-2.067 9.666-4.196 5.27-2.179 11.283-4.708 18.051-7.63 6.818-2.897 13.936-6.019 21.298-9.26 7.412-3.197 13.968-6.119 19.681-8.748 11.932-5.219 23.752-6.231 35.503-3.059 11.726 3.141 21.885 9.31 30.458 18.538l7.811 8.398-0.394 0.318 68.733 74.002 0.369-0.318 8.135 8.735c5.633 6.081 9.778 12.856 12.438 20.324 2.667 7.511 3.303 15.64 1.93 24.413-1.393 8.723-4.958 17.907-10.709 27.567-5.731 9.653-14.098 19.543-25.025 29.708-21.161 19.637-40.604 29.845-58.325 30.726-17.801 0.874-32.649-4.896-44.625-17.296l-207.54-223.46zm297.98 167c2.766-5.095 4.296-9.815 4.583-14.117 0.256-4.358-0.406-8.467-2.004-12.4-1.63-3.946-3.778-7.587-6.494-10.989l-70.075-75.463-1.686-1.792c-4.283-4.633-8.779-7.63-13.399-8.954-4.646-1.324-8.929-2.011-12.969-1.917-4.889 0.081-9.403 0.837-13.437 2.316-5.214 2.173-10.727 4.534-16.453 7.118-4.764 2.186-9.946 4.521-15.591 6.987-5.594 2.535-10.77 4.864-15.559 7.025-2.392 1.311-5.052 2.241-8.024 2.672-2.941 0.524-5.9-0.375-8.891-2.61l42.021 45.224 1.661 1.83 71.805 77.28c2.235 2.435 5.108 4.533 8.548 6.312 3.459 1.786 7.33 2.66 11.707 2.729 4.315 0.031 9.098-1.124 14.368-3.503 5.245-2.398 10.939-6.444 16.983-12.082 5.832-5.388 10.134-10.664 12.906-15.666z" fill="#272425"/></g><defs><radialGradient id="_Radial1" gradientUnits="userSpaceOnUse" cy="0" cx="0" gradientTransform="matrix(244.4 0 0 244.4 255.96 257.8)" r="1"><stop stop-color="#6eb5dd" offset="0"/><stop stop-color="#4476ad" offset="1"/></radialGradient><linearGradient id="_Linear4" gradientUnits="userSpaceOnUse" gradientTransform="matrix(0 -499.99 500 0 256 506)"><stop stop-color="#f5f5f5" offset="0"/><stop stop-color="#efefee" offset=".1"/><stop stop-color="#dddedc" offset=".25"/><stop stop-color="#c1c5c0" offset=".42"/><stop stop-color="#b3b8b2" offset=".5"/><stop stop-color="#c0c4bf" offset=".55"/><stop stop-color="#d7d8d6" offset=".65"/><stop stop-color="#e8e8e7" offset=".76"/><stop stop-color="#f2f2f1" offset=".87"/><stop stop-color="#f5f5f5" offset="1"/></linearGradient></defs></svg>
