<?xml version="1.0" encoding="utf-8"?>
<!-- Generator: Adobe Illustrator 16.0.0, SVG Export Plug-In . SVG Version: 6.00 Build 0)  -->
<!DOCTYPE svg PUBLIC "-//W3C//DTD SVG 1.1//EN" "http://www.w3.org/Graphics/SVG/1.1/DTD/svg11.dtd">
<svg version="1.1" id="Capa_1" xmlns="http://www.w3.org/2000/svg" xmlns:xlink="http://www.w3.org/1999/xlink" x="0px" y="0px"
	 width="192.888px" height="50px" viewBox="0 0 192.888 50" enable-background="new 0 0 192.888 50" xml:space="preserve">
<g>
	<g>
		<path fill="#0480BF" d="M61.406,19.834v-2.396c0-1.74-1.507-3.075-4.753-3.077c-4.279,0-6.839,3.014-6.839,6.809v8.172
			c0,3.147,1.708,4.444,4.514,4.444h1.778v-11.25c0-2.293,1.231-3.077,2.804-3.077c0.855,0,1.47,0.067,2.29,0.376H61.406z"/>
		<path fill="#0480BF" d="M75.186,21.237c0,0.824-0.548,1.298-3.629,1.298h-2.531c0.174-1.814,1.132-3.283,3.423-3.283
			C74.331,19.252,75.186,20.278,75.186,21.237 M81.203,21.954c0-4.786-3.83-7.558-8.754-7.558c-5.814,0-9.682,4.65-9.68,10.362
			c0,5.195,3.417,9.576,9.917,9.576c5.37,0,7.319-2.155,7.319-4.55v-1.505h-0.238c-1.061,0.72-2.943,1.199-5.95,1.199
			c-2.701,0-4.242-0.893-4.617-2.772h2.805C78.363,26.706,81.203,25.716,81.203,21.954"/>
		<path fill="#0480BF" d="M94.704,27.459c0,1.711-1.026,2.293-2.187,2.293c-1.811,0-2.566-0.614-2.564-1.814
			c-0.002-1.265,0.992-1.879,3.45-1.879h1.3V27.459z M100.863,25.509v-2.903c0-5.544-3.387-8.175-8.584-8.175
			c-5.366,0-7.796,2.326-7.796,4.654v2.286h0.171c1.333-1.228,2.632-2.048,6.152-2.051c2.566,0.003,3.766,0.375,3.766,1.917v0.784
			h-0.926c-6.834,0-9.845,2.119-9.848,6.292c0,4.274,4.413,5.986,8.035,5.986C98.672,34.3,100.863,32.35,100.863,25.509"/>
		<path fill="#0480BF" d="M115.016,31.047v-2.254h-1.432c-1.817,0-2.738-0.51-2.738-2.189V12.96c0-3.18-1.368-4.483-4.208-4.483
			h-2.29v19.083c0,4.445,2.975,6.497,6.43,6.497C112.832,34.06,115.016,33.344,115.016,31.047"/>
		<path fill="#0480BF" d="M132.278,21.133v-2.291c0.002-2.427-2.462-4.376-5.439-4.376c-6.634,0-10.363,4.614-10.363,9.986
			c-0.003,5.876,4.069,9.743,9.781,9.743c3.422,0,5.985-2.016,5.985-4.512v-1.951h-0.067c-1.132,0.649-2.532,1.061-4.547,1.061
			c-2.876,0-4.65-1.504-4.65-4.721c0-2.63,1.774-4.238,4.955-4.238c1.81,0,3.589,0.685,4.173,1.299H132.278z"/>
		<path fill="#0480BF" d="M148.041,24.758c0,2.6-1.338,4.48-3.388,4.48c-2.293,0-3.733-1.574-3.733-5.198
			c0-2.567,1.615-4.445,3.39-4.444C146.566,19.595,148.041,21.371,148.041,24.758 M134.495,24.793
			c-0.002,5.537,4.375,9.506,9.748,9.506c6.499,0,10.224-3.971,10.224-10.121c0-5.814-4.619-9.712-9.745-9.712
			C138.801,14.466,134.495,18.568,134.495,24.793"/>
		<path fill="#0480BF" d="M187.119,33.785l-0.001-10.22c0.001-5.89-3.246-9.134-8.719-9.134c-2.704,0-4.993,1.917-5.88,3.351
			c-0.619-1.541-2.838-3.351-5.779-3.351c-5.985,0-9.132,3.486-9.132,8.96v6.598c0,2.396,1.333,3.794,4.24,3.796l2.262-0.002V22.979
			c0-2.325,0.713-3.248,2.527-3.248c1.711,0,2.564,0.922,2.564,3.145v7.113c0,2.942,1.402,3.795,4.039,3.797h2.251V22.943
			c0-1.877,0.617-3.212,2.429-3.212c1.884,0,2.704,0.891,2.704,3.319v6.938c0,2.329,0.787,3.795,4.24,3.795L187.119,33.785z"/>
	</g>
	<g>
		<path fill="#1D1D1B" d="M154.863,41.257c1.007,0,3.003,0.413,3.003,1.83v0.859h-1.452v-0.464c0-0.593-0.939-0.857-1.551-0.857
			c-1.632,0-2.853,1.221-2.853,2.987c0,1.896,1.385,2.97,2.938,2.97c1.567,0,2.588-1.154,2.588-1.154l0.694,1.137
			c0,0-1.188,1.436-3.399,1.436c-2.623,0-4.454-1.863-4.454-4.371C150.377,43.171,152.176,41.257,154.863,41.257z"/>
		<path fill="#1D1D1B" d="M163.659,41.257c2.491,0,4.505,1.83,4.505,4.355c0,2.539-2.014,4.388-4.505,4.388
			c-2.492,0-4.488-1.849-4.488-4.388C159.17,43.087,161.167,41.257,163.659,41.257z M163.659,48.616c1.584,0,2.87-1.255,2.87-3.004
			c0-1.732-1.285-2.971-2.87-2.971c-1.568,0-2.854,1.238-2.854,2.971C160.804,47.361,162.09,48.616,163.659,48.616z"/>
		<path fill="#1D1D1B" d="M173.146,41.257c1.93,0,2.574,1.287,2.574,1.287h0.034c0,0-0.034-0.249-0.034-0.562v-2.096
			c0-0.247-0.134-0.363-0.363-0.363h-0.676v-1.369h1.582c0.744,0,1.056,0.314,1.056,1.057v8.858c0,0.249,0.134,0.364,0.364,0.364
			h0.676v1.368h-1.535c-0.727,0-1.023-0.328-1.023-0.89c0-0.249,0.017-0.431,0.017-0.431h-0.032c0,0-0.692,1.519-2.739,1.519
			c-2.259,0-3.679-1.781-3.679-4.371C169.368,42.972,170.936,41.257,173.146,41.257z M175.769,45.612
			c0-1.485-0.775-2.971-2.375-2.971c-1.304,0-2.394,1.089-2.394,2.987c0,1.814,0.976,2.987,2.361,2.987
			C174.599,48.616,175.769,47.74,175.769,45.612z"/>
		<path fill="#1D1D1B" d="M183.523,41.257c2.343,0,3.595,1.748,3.595,3.908c0,0.215-0.049,0.661-0.049,0.661h-6.085
			c0.096,1.78,1.384,2.79,2.869,2.79c1.436,0,2.442-0.976,2.442-0.976l0.693,1.138c0,0-1.238,1.222-3.218,1.222
			c-2.639,0-4.437-1.896-4.437-4.371C179.333,42.972,181.147,41.257,183.523,41.257z M185.47,44.656
			c-0.051-1.387-0.923-2.129-1.963-2.129c-1.221,0-2.21,0.742-2.458,2.129H185.47z"/>
	</g>
	<g>
		<path fill="#009FE3" d="M191.384,15.808h-0.467l-0.907-1.083h-0.509v1.083h-0.363V13.09h0.763c0.163,0,0.302,0.012,0.412,0.034
			c0.105,0.02,0.207,0.057,0.292,0.112c0.098,0.062,0.174,0.141,0.229,0.237c0.059,0.093,0.083,0.214,0.083,0.357
			c0,0.194-0.044,0.357-0.146,0.49c-0.1,0.132-0.232,0.232-0.406,0.298L191.384,15.808z M190.541,13.855
			c0-0.077-0.012-0.147-0.04-0.207c-0.027-0.063-0.073-0.112-0.136-0.155c-0.05-0.034-0.116-0.059-0.187-0.071
			c-0.073-0.015-0.155-0.021-0.251-0.021h-0.426v1.025h0.365c0.114,0,0.212-0.011,0.299-0.033c0.084-0.018,0.156-0.057,0.217-0.112
			c0.054-0.051,0.096-0.108,0.122-0.176C190.531,14.041,190.541,13.958,190.541,13.855z"/>
		<path fill="#009FE3" d="M190.075,17.245c-1.551,0-2.811-1.263-2.811-2.815c0-1.55,1.26-2.811,2.811-2.811
			c1.55,0,2.813,1.261,2.813,2.811C192.888,15.981,191.625,17.245,190.075,17.245z M190.075,11.89c-1.4,0-2.536,1.14-2.536,2.539
			c0,1.401,1.136,2.542,2.536,2.542c1.402,0,2.54-1.141,2.54-2.542C192.614,13.03,191.477,11.89,190.075,11.89z"/>
	</g>
	<path fill="#1D1D1B" d="M161.34,46.913"/>
	<g>
		<path opacity="0.8" fill="#0480BF" d="M41.45,18.385L9.762,38.04c0,0,8.261,3.614,13.734,5.164c0,0,13.063-8.728,19.851-18.96
			C43.589,23.879,41.45,18.385,41.45,18.385z"/>
		<path fill="#0480BF" d="M7.303,3.078c0,0,14.058,2.977,24.726,10.196c0,0,0.141-5.54-0.62-13.171
			C31.41,0.102,21.721-0.853,7.303,3.078z"/>
		<path fill="#9BCCE5" d="M0,32.645c9.69,6.54,23.586,10.582,23.586,10.582s12.439-8.249,19.664-18.982l-7.766,9.161l-12.988-2.899
			l-9.784-2.543L0,32.645z"/>
		<path fill="#68B3D9" d="M31.41,0.102c0,0,0.88,9.847,0.562,19.461c-0.283,8.536-0.939,17.936-0.939,17.936
			s7.941-6.546,12.314-13.255C43.347,24.244,41.712,15.289,31.41,0.102z"/>
		<path opacity="0.8" fill="#0480BF" d="M23.683,43.227c-8.922-2.57-19.071-7.425-23.587-10.582c0,0-1.102-16.216,4.175-28.63
			c0,0,5.182,18.256,8.442,23.949C17.695,36.662,23.683,43.227,23.683,43.227z"/>
		<path opacity="0.9" fill="#3699CC" d="M4.271,4.014c0,0,12.847-4.534,25.895-3.962c0,0-19.539,9.764-29.994,25.589
			C0.172,25.641,0.725,9.629,4.271,4.014z"/>
	</g>
</g>
</svg>
