<?xml version="1.0" encoding="UTF-8" standalone="no"?>
<svg xmlns:rdf="http://www.w3.org/1999/02/22-rdf-syntax-ns#" xmlns="http://www.w3.org/2000/svg" height="128" width="128" version="1.1" xmlns:cc="http://creativecommons.org/ns#" xmlns:xlink="http://www.w3.org/1999/xlink" xmlns:dc="http://purl.org/dc/elements/1.1/">
	<defs>
		<filter id="filter5664-1" color-interpolation-filters="sRGB">
			<feFlood result="flood" flood-color="rgb(0,0,0)" flood-opacity=".6"/>
			<feComposite operator="in" result="composite1" in2="SourceGraphic" in="flood"/>
			<feGaussianBlur stdDeviation="1" result="blur"/>
			<feOffset result="offset" dx="0" dy="1"/>
			<feComposite operator="over" result="composite2" in2="offset" in="SourceGraphic"/>
		</filter>
		<filter id="filter3906-3-7" color-interpolation-filters="sRGB">
			<feGaussianBlur stdDeviation="3.8070886075949364" result="result8"/>
			<feOffset result="result11" dx="1" dy="1"/>
			<feComposite operator="in" in="SourceGraphic" in2="result11" result="result6"/>
			<feFlood flood-color="rgb(0,0,0)" in="result6" result="result10"/>
			<feBlend result="result12" in="result6" in2="result10" mode="normal"/>
			<feComposite operator="in" in2="SourceGraphic" result="result2"/>
		</filter>
		<linearGradient id="linearGradient4378-2-2" y2="1024.2" gradientUnits="userSpaceOnUse" x2="34.375" gradientTransform="translate(-284.46 -124.6)" y1="988.79" x1="34.42">
			<stop stop-opacity=".11765" offset="0"/>
			<stop stop-opacity=".23529" offset=".5"/>
			<stop stop-opacity=".11765" offset="1"/>
		</linearGradient>
		<filter id="filter4092-6-8-8-7" width="6.9743" y="-.030250" x="-2.9872" height="1.0605" color-interpolation-filters="sRGB">
			<feGaussianBlur stdDeviation="0.44451871"/>
		</filter>
		<linearGradient id="linearGradient4381-8-0" y2="1024.2" gradientUnits="userSpaceOnUse" x2="34.375" gradientTransform="translate(-291.07 -124.6)" y1="988.79" x1="34.42">
			<stop stop-opacity=".11765" offset="0"/>
			<stop stop-opacity=".23529" offset=".5"/>
			<stop stop-opacity=".11765" offset="1"/>
		</linearGradient>
		<filter id="filter4092-41-8-8" width="6.9743" y="-.030250" x="-2.9872" height="1.0605" color-interpolation-filters="sRGB">
			<feGaussianBlur stdDeviation="0.44451871"/>
		</filter>
		<linearGradient id="linearGradient4384-7-5" y2="82.578" gradientUnits="userSpaceOnUse" x2="48.938" gradientTransform="matrix(1 0 0 1.0411 52.734 919.93)" y1="82.578" x1="26.875">
			<stop stop-color="#e1e1e1" offset="0"/>
			<stop stop-color="#fff" offset=".20144"/>
			<stop stop-color="#fff" offset=".5"/>
			<stop stop-color="#fff" offset=".80666"/>
			<stop stop-color="#e1e1e1" offset="1"/>
		</linearGradient>
		<filter id="filter5580-9" color-interpolation-filters="sRGB">
			<feFlood result="flood" flood-color="rgb(0,0,0)" flood-opacity=".6"/>
			<feComposite operator="in" result="composite1" in2="SourceGraphic" in="flood"/>
			<feGaussianBlur stdDeviation="0.5" result="blur"/>
			<feOffset result="offset" dx="0" dy="0"/>
			<feComposite operator="over" result="composite2" in2="offset" in="SourceGraphic"/>
		</filter>
		<linearGradient id="linearGradient5374-0" y2="1024.2" gradientUnits="userSpaceOnUse" x2="34.375" gradientTransform="translate(-310.95 -124.6)" y1="988.79" x1="34.42">
			<stop stop-opacity=".11765" offset="0"/>
			<stop stop-opacity=".23529" offset=".5"/>
			<stop stop-opacity=".11765" offset="1"/>
		</linearGradient>
		<filter id="filter4092-6-0-9-6" width="6.9743" y="-.030250" x="-2.9872" height="1.0605" color-interpolation-filters="sRGB">
			<feGaussianBlur stdDeviation="0.44451871"/>
		</filter>
		<linearGradient id="linearGradient4372-8-4" y2="1024.2" gradientUnits="userSpaceOnUse" x2="34.375" gradientTransform="translate(-317.56 -124.6)" y1="988.79" x1="34.42">
			<stop stop-opacity=".11765" offset="0"/>
			<stop stop-opacity=".23529" offset=".5"/>
			<stop stop-opacity=".11765" offset="1"/>
		</linearGradient>
		<filter id="filter4092-4-4-2" width="6.9743" y="-.030250" x="-2.9872" height="1.0605" color-interpolation-filters="sRGB">
			<feGaussianBlur stdDeviation="0.44451871"/>
		</filter>
		<linearGradient id="linearGradient4375-5-2" y2="82.578" gradientUnits="userSpaceOnUse" x2="48.938" gradientTransform="matrix(1 0 0 1.0411 26.241 919.93)" y1="82.578" x1="26.875">
			<stop stop-color="#e1e1e1" offset="0"/>
			<stop stop-color="#fff" offset=".20144"/>
			<stop stop-color="#fff" offset=".5"/>
			<stop stop-color="#fff" offset=".80666"/>
			<stop stop-color="#e1e1e1" offset="1"/>
		</linearGradient>
		<filter id="filter5568-3" color-interpolation-filters="sRGB">
			<feFlood result="flood" flood-color="rgb(0,0,0)" flood-opacity=".6"/>
			<feComposite operator="in" result="composite1" in2="SourceGraphic" in="flood"/>
			<feGaussianBlur stdDeviation="0.5" result="blur"/>
			<feOffset result="offset" dx="0" dy="0"/>
			<feComposite operator="over" result="composite2" in2="offset" in="SourceGraphic"/>
		</filter>
		<linearGradient id="linearGradient4360-5-9" y2="1024.2" gradientUnits="userSpaceOnUse" x2="34.375" gradientTransform="translate(-337.45 -124.6)" y1="988.79" x1="34.42">
			<stop stop-opacity=".11765" offset="0"/>
			<stop stop-opacity=".23529" offset=".5"/>
			<stop stop-opacity=".11765" offset="1"/>
		</linearGradient>
		<filter id="filter4092-6-3-5" width="6.9743" y="-.030250" x="-2.9872" height="1.0605" color-interpolation-filters="sRGB">
			<feGaussianBlur stdDeviation="0.44451871"/>
		</filter>
		<linearGradient id="linearGradient4363-2-8" y2="1024.2" gradientUnits="userSpaceOnUse" x2="34.375" gradientTransform="translate(-344.05 -124.6)" y1="988.79" x1="34.42">
			<stop stop-opacity=".11765" offset="0"/>
			<stop stop-opacity=".23529" offset=".5"/>
			<stop stop-opacity=".11765" offset="1"/>
		</linearGradient>
		<filter id="filter4092-8-1" width="6.9743" y="-.030250" x="-2.9872" height="1.0605" color-interpolation-filters="sRGB">
			<feGaussianBlur stdDeviation="0.44451871"/>
		</filter>
		<filter id="filter5556-1" color-interpolation-filters="sRGB">
			<feFlood result="flood" flood-color="rgb(0,0,0)" flood-opacity=".6"/>
			<feComposite operator="in" result="composite1" in2="SourceGraphic" in="flood"/>
			<feGaussianBlur stdDeviation="0.5" result="blur"/>
			<feOffset result="offset" dx="0" dy="0"/>
			<feComposite operator="over" result="composite2" in2="offset" in="SourceGraphic"/>
		</filter>
		<linearGradient id="linearGradient5840" y2="82.578" gradientUnits="userSpaceOnUse" y1="82.578" gradientTransform="matrix(1 0 0 1.0411 -.25254 919.93)" x2="48.938" x1="26.875">
			<stop stop-color="#e1e1e1" offset="0"/>
			<stop stop-color="#fff" offset=".20144"/>
			<stop stop-color="#fff" offset=".5"/>
			<stop stop-color="#fff" offset=".80666"/>
			<stop stop-color="#e1e1e1" offset="1"/>
		</linearGradient>
	</defs>
	<g transform="translate(0 -924.36)">
		<g>
			<rect opacity=".85" ry="17.5" height="115.88" width="115.89" stroke="#c8c8c8" y="930.42" x="6.0625" stroke-width=".069"/>
			<path opacity=".94434" d="m28.685 981.42v0.033c-1.1474 0.07-2.0625 1.0326-2.0625 2.2447 0 1.2577 0.97938 2.2773 2.1875 2.2773 0.97885 0 1.8135-0.6705 2.0938-1.5941v43.041c-0.28028-0.9237-1.1149-1.5941-2.0938-1.5941-1.2081 0-2.1875 1.0195-2.1875 2.2773 0 1.2121 0.9151 2.175 2.0625 2.2448v0.033h0.125 17.688c1.2081 0 2.1875-1.0195 2.1875-2.2773s-0.97938-2.2773-2.1875-2.2773c-0.84849 0-1.5728 0.4999-1.9375 1.2362v-42.325c0.36466 0.7363 1.089 1.2363 1.9375 1.2363 1.2081 0 2.1875-1.0196 2.1875-2.2773 0-1.2578-0.97938-2.2773-2.1875-2.2773h-17.688-0.125z" filter="url(#filter5556-1)" stroke="#c8c8c8" stroke-width=".10136" fill="url(#linearGradient5840)"/>
			<rect transform="matrix(1 0 0 1.0274 343.8 99.816)" height="35.268" filter="url(#filter4092-8-1)" width=".35714" y="864.2" x="-309.86" fill="url(#linearGradient4363-2-8)"/>
			<rect transform="matrix(1 0 0 1.0274 343.8 99.816)" height="35.268" filter="url(#filter4092-6-3-5)" width=".35714" y="864.2" x="-303.25" fill="url(#linearGradient4360-5-9)"/>
			<path opacity=".94434" d="m55.178 981.42v0.033c-1.1474 0.07-2.0625 1.0326-2.0625 2.2448 0 1.2577 0.97938 2.2773 2.1875 2.2773 0.97885 0 1.8135-0.6705 2.0938-1.5941v43.041c-0.28028-0.9237-1.1149-1.5941-2.0938-1.5941-1.2081 0-2.1875 1.0196-2.1875 2.2773 0 1.2121 0.9151 2.175 2.0625 2.2448v0.033h0.125 17.688c1.2081 0 2.1875-1.0195 2.1875-2.2773 0-1.2577-0.97938-2.2773-2.1875-2.2773-0.84849 0-1.5728 0.4999-1.9375 1.2363v-42.325c0.36466 0.7362 1.089 1.2362 1.9375 1.2362 1.2081 0 2.1875-1.0196 2.1875-2.2773s-0.97938-2.2773-2.1875-2.2773h-17.688-0.125z" filter="url(#filter5568-3)" stroke="#c8c8c8" stroke-width=".10136" fill="url(#linearGradient4375-5-2)"/>
			<rect transform="matrix(1 0 0 1.0274 343.8 99.816)" height="35.268" filter="url(#filter4092-4-4-2)" width=".35714" y="864.2" x="-283.36" fill="url(#linearGradient4372-8-4)"/>
			<rect transform="matrix(1 0 0 1.0274 343.8 99.816)" height="35.268" filter="url(#filter4092-6-0-9-6)" width=".35714" y="864.2" x="-276.76" fill="url(#linearGradient5374-0)"/>
			<path opacity=".94434" d="m81.672 981.42v0.033c-1.1474 0.07-2.0625 1.0326-2.0625 2.2448 0 1.2577 0.97937 2.2773 2.1875 2.2773 0.97885 0 1.8135-0.6705 2.0938-1.5941v43.041c-0.28028-0.9237-1.1149-1.5941-2.0938-1.5941-1.2081 0-2.1875 1.0196-2.1875 2.2773 0 1.2121 0.9151 2.175 2.0625 2.2448v0.033h0.125 17.688c1.2081 0 2.1875-1.0195 2.1875-2.2773 0-1.2577-0.97938-2.2773-2.1875-2.2773-0.84849 0-1.5728 0.4999-1.9375 1.2363v-42.325c0.36466 0.7362 1.089 1.2362 1.9375 1.2362 1.2081 0 2.1875-1.0196 2.1875-2.2773s-0.97938-2.2773-2.1875-2.2773h-17.688-0.125z" filter="url(#filter5580-9)" stroke="#c8c8c8" stroke-width=".10136" fill="url(#linearGradient4384-7-5)"/>
			<rect transform="matrix(1 0 0 1.0274 343.8 99.816)" height="35.268" filter="url(#filter4092-41-8-8)" width=".35714" y="864.2" x="-256.87" fill="url(#linearGradient4381-8-0)"/>
			<rect transform="matrix(1 0 0 1.0274 343.8 99.816)" height="35.268" filter="url(#filter4092-6-8-8-7)" width=".35714" y="864.2" x="-250.26" fill="url(#linearGradient4378-2-2)"/>
		</g>
		<g fill="#fff">
			<path d="m18.142 981.26h93.715l-47.576-39.317z"/>
			<path d="m28.911 977.68h71.983l-36.543-30.2z" filter="url(#filter3906-3-7)" stroke="#fff" stroke-width=".2"/>
			<path opacity=".9" d="m18.142 981.27h93.715l-47.576-39.317z" filter="url(#filter5664-1)" stroke="#646464" stroke-width=".1"/>
		</g>
		<path d="m28.627 977.71h72.501l-36.806-30.244z" stroke="#d7d7d7" stroke-width=".10043" fill="none"/>
	</g>
</svg>
