<?xml version="1.0" encoding="UTF-8" standalone="no"?>
<svg xmlns:rdf="http://www.w3.org/1999/02/22-rdf-syntax-ns#" xmlns="http://www.w3.org/2000/svg" height="104" width="400" version="1.1" xmlns:cc="http://creativecommons.org/ns#" xmlns:dc="http://purl.org/dc/elements/1.1/" viewBox="0 0 400 104">
	<g transform="translate(0 -948.36)">
		<path fill="#fff" d="m344.19 1039.4c-1.2556-0.2421-2.3864-0.735-3.357-1.4634-3.7752-2.8332-4.0675-8.6032-0.60084-11.861 0.45166-0.4244 1.1025-0.9224 1.4463-1.1066 0.83589-0.4479 45.267-16.79 46.327-17.039 1.0627-0.2501 2.7935-0.1654 3.9116 0.1915 3.181 1.0152 5.4078 4.0513 5.4078 7.3731 0 2.8224-1.7476 5.7215-4.156 6.8942-0.91377 0.445-44.709 16.656-45.709 16.919-0.87336 0.23-2.3404 0.2714-3.2698 0.092zm-222.03-11.603c-7.9602-0.8159-14.128-4.1725-17.638-9.5984-1.1687-1.8065-1.8891-3.4657-2.4845-5.7222-0.56892-2.1558-0.78069-3.8748-0.79019-6.4138-0.01-2.59 0.15447-4.113 0.67152-6.2304 0.93408-3.8252 2.6375-6.8186 5.376-9.4471 6.4997-6.2385 17.798-7.9523 28.556-4.3313 0.71662 0.2412 1.3165 0.4559 1.3331 0.477 0.0281 0.036-0.69918 8.8178-0.7339 8.862-0.009 0.011-0.5817-0.2588-1.2734-0.5997-3.5024-1.7262-7.8322-2.4659-11.382-1.9442-5.4816 0.8055-9.0317 3.9171-10.405 9.12-0.26954 1.0209-0.32584 1.5596-0.37526 3.5906-0.0511 2.0992-0.0254 2.5487 0.21176 3.7003 0.36331 1.7643 0.86733 3.0178 1.7532 4.3601 2.1502 3.2583 5.7936 5.1965 10.46 5.5643 3.4279 0.2702 7.3645-0.3934 10.392-1.752 0.52151-0.234 0.86362-0.3258 0.91343-0.2452 0.0438 0.071 0.17842 1.7565 0.29915 3.7457 0.12072 1.9893 0.25202 3.9623 0.29177 4.3844l0.0723 0.7674-1.4393 0.3986c-3.5736 0.9898-6.8041 1.4075-10.665 1.379-1.4871-0.011-2.902-0.041-3.1441-0.065zm105.95-0.1869c-5.4355-0.6142-10.207-3.1305-13.213-6.9679-2.831-3.614-4.2463-8.0049-4.4194-13.711-0.22597-7.4471 1.7032-13.409 5.6304-17.4 2.8474-2.8937 6.445-4.6189 11.202-5.3719 1.8356-0.2905 5.7387-0.2891 7.6544 0 9.9361 1.5139 15.776 7.8922 16.863 18.419 0.0907 0.8775 0.12227 2.4941 0.0824 4.213-0.0737 3.1784-0.37978 5.1783-1.1614 7.5882-2.7648 8.5235-10.075 13.447-19.835 13.357-0.9884-0.01-2.2498-0.067-2.8032-0.1301zm4.9619-8.3394c3.4412-0.9158 5.8932-4.3609 6.8944-9.6868 0.30763-1.6365 0.29985-5.8643-0.0136-7.4155-0.90956-4.5006-2.9929-7.798-5.7623-9.1202-3.2017-1.5286-6.8161-0.5791-9.1016 2.3912-1.2764 1.6587-2.2311 4.0284-2.7143 6.7373-0.37139 2.0819-0.37503 5.4188-0.008 7.4727 0.93015 5.2071 3.4033 8.6873 6.8282 9.6085 0.88767 0.2387 3.0022 0.2457 3.8774 0.013zm-81.488 8.1566c-2.5865-0.3039-3.8232-0.4835-5.1563-0.7493-1.7319-0.3453-3.91-0.905-4.0529-1.0416-0.0813-0.078 0.58164-8.0937 0.72636-8.7825l0.058-0.2758 0.68864 0.3045c2.9764 1.3163 6.6225 2.1643 9.8114 2.2818 3.0521 0.1125 5.0523-0.3733 6.3449-1.5411 1.1212-1.013 1.549-2.6765 1.0103-3.9288-0.62029-1.442-1.9069-2.1528-6.8693-3.7954-1.9273-0.638-4.0992-1.4245-4.8264-1.7478-2.6591-1.1823-4.9072-3.0017-6.0082-4.8625-1.8629-3.1483-2.0349-7.9309-0.40681-11.312 1.1412-2.3698 3.0358-4.1857 5.7774-5.5376 5.1746-2.5516 12.836-2.9015 20.464-0.9348 0.81398 0.2099 1.4953 0.3969 1.5141 0.4157 0.0188 0.019-0.13412 1.9224-0.33971 4.2304-0.20557 2.3079-0.37377 4.2439-0.37377 4.3022 0 0.058-0.34112-0.066-0.75804-0.2768-3.253-1.6421-8.8622-2.3022-12.225-1.4387-1.6985 0.4361-3.0025 1.343-3.4414 2.3935-0.47894 1.1463-0.0254 2.7888 1.0027 3.6313 0.76078 0.62341 2.4311 1.3779 4.1658 1.8817 5.6694 1.6467 6.8472 2.0654 8.6053 3.0591 0.60578 0.3423 1.4902 1.0027 2.0653 1.542 2.162 2.0277 3.1465 4.3469 3.3159 7.8114 0.12883 2.635-0.28968 4.8057-1.343 6.9657-1.839 3.7714-5.4907 6.0961-11.197 7.1283-1.1812 0.2137-2.057 0.2677-4.779 0.295-1.833 0.019-3.5308 0.01-3.7729-0.019zm34.333 0c-2.5865-0.3039-3.8232-0.4835-5.1563-0.7493-1.7558-0.35-3.9108-0.9057-4.0575-1.0461-0.0826-0.079 0.60781-8.4863 0.73142-8.9065 0.0318-0.1083 0.2476-0.063 0.7398 0.1545 2.9828 1.3192 6.626 2.1669 9.8176 2.2845 3.8564 0.1421 6.206-0.7243 7.202-2.6556 0.44607-0.8649 0.47509-2.2677 0.063-3.0442-0.6785-1.2784-1.9831-1.9691-6.6348-3.5127-4.8806-1.6197-6.5188-2.358-8.3725-3.7738-2.8848-2.2032-4.3001-5.5342-4.1052-9.6623 0.16089-3.4083 1.4849-6.1333 4.0062-8.2454 4.8751-4.0837 14.013-5.1672 23.327-2.7657 0.81398 0.2099 1.4945 0.3961 1.5122 0.4138 0.0177 0.018-0.13404 1.8693-0.33726 4.1144-0.20322 2.2452-0.3706 4.1776-0.37193 4.2941-0.002 0.1769-0.17392 0.1316-1.0407-0.2746-2.3121-1.0835-5.1681-1.6585-8.2682-1.6646-3.6531-0.01-5.7293 0.6807-6.8451 2.2683-0.29722 0.4229-0.38525 0.6991-0.42579 1.3356-0.11594 1.8208 0.86194 2.9994 3.2978 3.9747 0.51271 0.20528 2.1992 0.73608 3.7479 1.1796 5.2765 1.5109 7.2101 2.4153 9.1341 4.2727 1.9806 1.912 2.9688 4.3042 3.1234 7.5608 0.32813 6.9121-3.1052 11.595-9.9572 13.581-2.3452 0.6798-3.7481 0.8485-7.3571 0.8847-1.833 0.019-3.5308 0.01-3.7729-0.019zm-142.99-21.239v-20.939h10.787c6.5928 0 11.202 0.05 11.853 0.129 5.1634 0.6248 8.9288 3.0536 10.367 6.6875 0.90127 2.2764 1.0447 5.2145 0.38238 7.8353-0.52542 2.0792-1.8883 3.9857-3.6755 5.1419-0.81395 0.5265-2.58 1.3344-2.917 1.3344-0.29203 0-0.11062 0.2027 0.44547 0.4977 0.80277 0.4259 1.9297 1.5877 2.3988 2.4732 0.21538 0.4066 1.44 3.6537 2.7214 7.2159 1.2814 3.5623 2.6665 7.397 3.078 8.5216l0.74811 2.0449-6.0389-0.032-6.0389-0.033-2.221-6.4767c-1.2216-3.5623-2.348-6.7197-2.5032-7.0165-0.40078-0.7666-1.1879-1.5068-2.0138-1.894-0.6907-0.3239-0.78754-0.3342-3.5085-0.375l-2.7982-0.042v7.9335 7.9335h-5.5336-5.5336v-20.94zm19.642-3.7936c1.7588-0.8332 2.6246-2.0671 2.7195-3.8758 0.09179-1.7488-0.50281-3.0537-1.831-4.0182-1.1992-0.8709-1.7032-0.9515-5.9442-0.9515h-3.7702v4.6612 4.6612l3.993-0.039 3.993-0.039 0.84004-0.398zm21.734 3.7936v-20.939h5.7222 5.7222v20.939 20.94h-5.7222-5.7222v-20.94zm173.05 0v-20.94l7.2478 0.033 7.2478 0.032 6.8062 13.362 6.8062 13.362 0.032-13.394 0.032-13.394h5.2814 5.2815v20.939 20.94h-6.8226-6.8226l-7.2314-13.728-7.2314-13.728-0.032 13.731-0.032 13.731h-5.2815-5.2815v-20.94zm-254.67-0.062v-20.877h15.972 15.972v4.3388 4.3389h-10.313-10.313v3.7728 3.7729h9.9368 9.9368l-0.03301 4.496-0.03301 4.496-9.9038 0.032-9.9038 0.032v3.8349 3.8351h10.501 10.501v4.4016 4.4017h-16.161-16.16v-20.877zm341.51 10.008c-1.7963-0.3478-3.0651-1.0526-4.3244-2.402-1.3433-1.4396-2.0266-3.2196-2.0266-5.2795 0-2.2008 0.72328-3.9585 2.2523-5.4733 0.52506-0.5202 1.2376-1.0955 1.5834-1.2785 0.82805-0.438 45.246-16.78 46.256-17.019 2.9754-0.7016 6.3732 0.6403 8.0514 3.1798 2.0852 3.1554 1.6804 7.2485-0.98005 9.909-0.64038 0.6404-1.1632 1.0258-1.8333 1.3514-0.91016 0.4423-44.714 16.656-45.713 16.921-0.86868 0.2298-2.3366 0.2707-3.2654 0.091zm-0.56593-23.411c-2.7192-0.7141-4.9007-2.9152-5.5946-5.6447-0.24725-0.9727-0.24396-2.886 0.007-3.8778 0.54426-2.1537 2.1148-4.0681 4.0886-4.9839 1.4136-0.65587 45.195-16.71 46.004-16.869 1.1444-0.22516 2.899-0.0967 4.0153 0.29401 4.3863 1.5352 6.4089 6.4937 4.3776 10.732-0.91318 1.9055-2.417 3.1928-4.7464 4.0631-8.3501 3.1197-43.841 16.182-44.316 16.311-0.81598 0.2208-2.9528 0.2068-3.8358-0.025z"/>
	</g>
</svg>
