<?xml version="1.0" encoding="UTF-8" standalone="no"?>
<svg xmlns:rdf="http://www.w3.org/1999/02/22-rdf-syntax-ns#" xmlns="http://www.w3.org/2000/svg" height="104" width="400" version="1.1" xmlns:cc="http://creativecommons.org/ns#" xmlns:dc="http://purl.org/dc/elements/1.1/" viewBox="0 0 400 104">
	<g fill="#0095ce" transform="matrix(.83987 0 0 .83987 -.035225 -788.17)">
		<path fill="#0095ce" d="m12.485 993.09c7.9993-33.361 53.294-39.785 67.893-9.6286 6.0652 12.529 5.522 14.924-3.3844 14.924-6.4558 0-7.7882-0.7708-9.8229-5.683-6.6748-16.114-31.196-16.042-37.292 0.1107-1.8706 4.9559-3.0192 5.5723-10.383 5.5723-8.0566 0-8.2456-0.1428-7.0101-5.2955zm312.68 7.2211v-36.587h6.549c6.1944 0 7.5236 1.3609 24.552 25.139l18.003 25.139 0.53731-25.139 0.53729-25.139h6.6838 6.6838v36.587 36.587h-6.6218c-6.2736 0-7.5901-1.329-25.033-25.269l-18.411-25.269v25.269 25.269h-6.7397-6.7397v-36.587zm-28.884 0v-36.587h6.7397 6.7397v36.587 36.587h-6.7397-6.7397v-36.587zm-183.9 0v-36.587h6.2583 6.2583v36.587 36.587h-6.2583-6.2583v-36.587zm-43.327 34.285c0-1.2659 2.1115-4.5154 4.6923-7.2211s6.0416-7.519 7.6906-10.696c2.9891-5.759 2.9984-5.7367 3.0102 7.2211l0.0119 12.998h-7.7025c-4.6902 0-7.7025-0.9002-7.7025-2.3017zm-34.18-0.5692c-6.0834-2.6441-6.2583-3.0497-6.2583-14.514v-11.794l4.7764 5.6764c8.4378 10.028 22.534 9.5285 31.32-1.1091l4.3231-5.2346 0.01 12.133c0.009 12.028-0.0482 12.158-6.6683 14.924-8.3584 3.4924-19.356 3.4601-27.502-0.081zm-23.514-11.09c0.0716-13.264 0.20238-13.669 2.6206-8.1185 1.3999 3.2132 5.2653 8.5624 8.59 11.887 8.1762 8.1762 7.6578 10.192-2.6206 10.192h-8.6653l0.0754-13.961zm245.46 1.5601c19.431-8.1187 19.131-40.379-0.45162-48.561-10.238-4.2777-19.408-2.2451-27.008 5.9864-5.597 6.062-6.2583 7.9864-6.2583 18.213 0 9.5796 0.83345 12.425 5.1384 17.541 8.206 9.7523 16.708 11.782 28.58 6.8213zm-22.628 11.586c-17.32-6.1815-24.954-17.191-24.954-35.986 0-22.703 14.8-37.253 37.935-37.296 20.372-0.037 35.542 13.325 37.151 32.726 2.4592 29.655-22.989 50.243-50.131 40.556zm-76.331 0.5206c-9.7989-2.8181-15.869-7.4965-18.787-14.48-3.7818-9.0511-3.3531-10.261 3.6326-10.247 4.9013 0.01 6.9551 1.2369 9.4718 5.6606 5.6029 9.8481 25.913 12.199 33.449 3.8724 5.526-6.1062 1.9685-11.076-10.309-14.4-6.0215-1.6305-14.304-3.8713-18.405-4.9795-23.16-6.2584-22.186-32.046 1.4559-38.552 17.024-4.685 37.423 4.3537 40.755 18.058 1.2112 4.9827 0.90528 5.2947-5.1798 5.2833-5.0942-0.01-7.1318-1.1809-9.5987-5.5179-2.1235-3.7334-5.2229-5.8926-9.6281-6.7074-19.294-3.5688-29.542 11.428-10.928 15.992 30.012 7.3591 37.08 12.154 37.08 25.157 0 16.574-21.557 27.03-43.009 20.86z"/>
	</g>
</svg>
