<?xml version="1.0" encoding="UTF-8" standalone="no"?>
<svg width="193px" height="51px" viewBox="0 0 193 51" version="1.1" xmlns="http://www.w3.org/2000/svg" xmlns:xlink="http://www.w3.org/1999/xlink" xmlns:sketch="http://www.bohemiancoding.com/sketch/ns">
    <!-- Generator: Sketch 3.4.4 (17249) - http://www.bohemiancoding.com/sketch -->
    <title>Untitled</title>
    <desc>Created with Sketch.</desc>
    <defs></defs>
    <g id="Page-1" stroke="none" stroke-width="1" fill="none" fill-rule="evenodd" sketch:type="MSPage">
        <g id="realcom-code" sketch:type="MSLayerGroup">
            <g id="Group" sketch:type="MSShapeGroup">
                <g transform="translate(49.000000, 8.000000)" id="Shape" fill="#0480BF">
                    <path d="M12.406,11.834 L12.406,9.438 C12.406,7.698 10.899,6.363 7.653,6.361 C3.374,6.361 0.814,9.375 0.814,13.17 L0.814,21.342 C0.814,24.489 2.522,25.786 5.328,25.786 L7.106,25.786 L7.106,14.536 C7.106,12.243 8.337,11.459 9.91,11.459 C10.765,11.459 11.38,11.526 12.2,11.835 L12.406,11.835 L12.406,11.834 Z"></path>
                    <path d="M26.186,13.237 C26.186,14.061 25.638,14.535 22.557,14.535 L20.026,14.535 C20.2,12.721 21.158,11.252 23.449,11.252 C25.331,11.252 26.186,12.278 26.186,13.237 M32.203,13.954 C32.203,9.168 28.373,6.396 23.449,6.396 C17.635,6.396 13.767,11.046 13.769,16.758 C13.769,21.953 17.186,26.334 23.686,26.334 C29.056,26.334 31.005,24.179 31.005,21.784 L31.005,20.279 L30.767,20.279 C29.706,20.999 27.824,21.478 24.817,21.478 C22.116,21.478 20.575,20.585 20.2,18.706 L23.005,18.706 C29.363,18.706 32.203,17.716 32.203,13.954"></path>
                    <path d="M45.704,19.459 C45.704,21.17 44.678,21.752 43.517,21.752 C41.706,21.752 40.951,21.138 40.953,19.938 C40.951,18.673 41.945,18.059 44.403,18.059 L45.703,18.059 L45.703,19.459 L45.704,19.459 Z M51.863,17.509 L51.863,14.606 C51.863,9.062 48.476,6.431 43.279,6.431 C37.913,6.431 35.483,8.757 35.483,11.085 L35.483,13.371 L35.654,13.371 C36.987,12.143 38.286,11.323 41.806,11.32 C44.372,11.323 45.572,11.695 45.572,13.237 L45.572,14.021 L44.646,14.021 C37.812,14.021 34.801,16.14 34.798,20.313 C34.798,24.587 39.211,26.299 42.833,26.299 C49.672,26.3 51.863,24.35 51.863,17.509 L51.863,17.509 Z"></path>
                    <path d="M66.016,23.047 L66.016,20.793 L64.584,20.793 C62.767,20.793 61.846,20.283 61.846,18.604 L61.846,4.96 C61.846,1.78 60.478,0.477 57.638,0.477 L55.348,0.477 L55.348,19.56 C55.348,24.005 58.323,26.057 61.778,26.057 C63.832,26.06 66.016,25.344 66.016,23.047"></path>
                    <path d="M83.278,13.133 L83.278,10.842 C83.28,8.415 80.816,6.466 77.839,6.466 C71.205,6.466 67.476,11.08 67.476,16.452 C67.473,22.328 71.545,26.195 77.257,26.195 C80.679,26.195 83.242,24.179 83.242,21.683 L83.242,19.732 L83.175,19.732 C82.043,20.381 80.643,20.793 78.628,20.793 C75.752,20.793 73.978,19.289 73.978,16.072 C73.978,13.442 75.752,11.834 78.933,11.834 C80.743,11.834 82.522,12.519 83.106,13.133 L83.278,13.133 L83.278,13.133 Z"></path>
                    <path d="M99.041,16.758 C99.041,19.358 97.703,21.238 95.653,21.238 C93.36,21.238 91.92,19.664 91.92,16.04 C91.92,13.473 93.535,11.595 95.31,11.596 C97.566,11.595 99.041,13.371 99.041,16.758 M85.495,16.793 C85.493,22.33 89.87,26.299 95.243,26.299 C101.742,26.299 105.467,22.328 105.467,16.178 C105.467,10.364 100.848,6.466 95.722,6.466 C89.801,6.466 85.495,10.568 85.495,16.793"></path>
                    <path d="M138.119,25.785 L138.118,15.565 C138.119,9.675 134.872,6.431 129.399,6.431 C126.695,6.431 124.406,8.348 123.519,9.782 C122.9,8.241 120.681,6.431 117.74,6.431 C111.755,6.431 108.608,9.917 108.608,15.391 L108.608,21.989 C108.608,24.385 109.941,25.783 112.848,25.785 L115.11,25.783 L115.11,14.979 C115.11,12.654 115.823,11.731 117.637,11.731 C119.348,11.731 120.201,12.653 120.201,14.876 L120.201,21.989 C120.201,24.931 121.603,25.784 124.24,25.786 L126.491,25.786 L126.491,14.943 C126.491,13.066 127.108,11.731 128.92,11.731 C130.804,11.731 131.624,12.622 131.624,15.05 L131.624,21.988 C131.624,24.317 132.411,25.783 135.864,25.783 L138.119,25.785 L138.119,25.785 Z"></path>
                </g>
                <g transform="translate(150.000000, 38.000000)" id="Shape" fill="#FFFFFF">
                    <path d="M4.863,3.257 C5.87,3.257 7.866,3.67 7.866,5.087 L7.866,5.946 L6.414,5.946 L6.414,5.482 C6.414,4.889 5.475,4.625 4.863,4.625 C3.231,4.625 2.01,5.846 2.01,7.612 C2.01,9.508 3.395,10.582 4.948,10.582 C6.515,10.582 7.536,9.428 7.536,9.428 L8.23,10.565 C8.23,10.565 7.042,12.001 4.831,12.001 C2.208,12.001 0.377,10.138 0.377,7.63 C0.377,5.171 2.176,3.257 4.863,3.257 L4.863,3.257 Z"></path>
                    <path d="M13.659,3.257 C16.15,3.257 18.164,5.087 18.164,7.612 C18.164,10.151 16.15,12 13.659,12 C11.167,12 9.171,10.151 9.171,7.612 C9.17,5.087 11.167,3.257 13.659,3.257 L13.659,3.257 Z M13.659,10.616 C15.243,10.616 16.529,9.361 16.529,7.612 C16.529,5.88 15.244,4.641 13.659,4.641 C12.091,4.641 10.805,5.879 10.805,7.612 C10.804,9.361 12.09,10.616 13.659,10.616 L13.659,10.616 Z"></path>
                    <path d="M23.146,3.257 C25.076,3.257 25.72,4.544 25.72,4.544 L25.754,4.544 C25.754,4.544 25.72,4.295 25.72,3.982 L25.72,1.886 C25.72,1.639 25.586,1.523 25.357,1.523 L24.681,1.523 L24.681,0.154 L26.263,0.154 C27.007,0.154 27.319,0.468 27.319,1.211 L27.319,10.069 C27.319,10.318 27.453,10.433 27.683,10.433 L28.359,10.433 L28.359,11.801 L26.824,11.801 C26.097,11.801 25.801,11.473 25.801,10.911 C25.801,10.662 25.818,10.48 25.818,10.48 L25.786,10.48 C25.786,10.48 25.094,11.999 23.047,11.999 C20.788,11.999 19.368,10.218 19.368,7.628 C19.368,4.972 20.936,3.257 23.146,3.257 L23.146,3.257 Z M25.769,7.612 C25.769,6.127 24.994,4.641 23.394,4.641 C22.09,4.641 21,5.73 21,7.628 C21,9.442 21.976,10.615 23.361,10.615 C24.599,10.616 25.769,9.74 25.769,7.612 L25.769,7.612 Z"></path>
                    <path d="M33.523,3.257 C35.866,3.257 37.118,5.005 37.118,7.165 C37.118,7.38 37.069,7.826 37.069,7.826 L30.984,7.826 C31.08,9.606 32.368,10.616 33.853,10.616 C35.289,10.616 36.295,9.64 36.295,9.64 L36.988,10.778 C36.988,10.778 35.75,12 33.77,12 C31.131,12 29.333,10.104 29.333,7.629 C29.333,4.972 31.147,3.257 33.523,3.257 L33.523,3.257 Z M35.47,6.656 C35.419,5.269 34.547,4.527 33.507,4.527 C32.286,4.527 31.297,5.269 31.049,6.656 L35.47,6.656 L35.47,6.656 Z"></path>
                </g>
                <g transform="translate(187.000000, 11.000000)" id="Shape" fill="#009FE3">
                    <path d="M4.384,4.808 L3.917,4.808 L3.01,3.725 L2.501,3.725 L2.501,4.808 L2.138,4.808 L2.138,2.09 L2.901,2.09 C3.064,2.09 3.203,2.102 3.313,2.124 C3.418,2.144 3.52,2.181 3.605,2.236 C3.703,2.298 3.779,2.377 3.834,2.473 C3.893,2.566 3.917,2.687 3.917,2.83 C3.917,3.024 3.873,3.187 3.771,3.32 C3.671,3.452 3.539,3.552 3.365,3.618 L4.384,4.808 L4.384,4.808 Z M3.541,2.855 C3.541,2.778 3.529,2.708 3.501,2.648 C3.474,2.585 3.428,2.536 3.365,2.493 C3.315,2.459 3.249,2.434 3.178,2.422 C3.105,2.407 3.023,2.401 2.927,2.401 L2.501,2.401 L2.501,3.426 L2.866,3.426 C2.98,3.426 3.078,3.415 3.165,3.393 C3.249,3.375 3.321,3.336 3.382,3.281 C3.436,3.23 3.478,3.173 3.504,3.105 C3.531,3.041 3.541,2.958 3.541,2.855 L3.541,2.855 Z"></path>
                    <path d="M3.075,6.245 C1.524,6.245 0.264,4.982 0.264,3.43 C0.264,1.88 1.524,0.619 3.075,0.619 C4.625,0.619 5.888,1.88 5.888,3.43 C5.888,4.981 4.625,6.245 3.075,6.245 L3.075,6.245 Z M3.075,0.89 C1.675,0.89 0.539,2.03 0.539,3.429 C0.539,4.83 1.675,5.971 3.075,5.971 C4.477,5.971 5.615,4.83 5.615,3.429 C5.614,2.03 4.477,0.89 3.075,0.89 L3.075,0.89 Z"></path>
                </g>
                <g id="Shape">
                    <path d="M41.45,18.385 L9.762,38.04 C9.762,38.04 18.023,41.654 23.496,43.204 C23.496,43.204 36.559,34.476 43.347,24.244 C43.589,23.879 41.45,18.385 41.45,18.385 L41.45,18.385 Z" opacity="0.8" fill="#0480BF"></path>
                    <path d="M7.303,3.078 C7.303,3.078 21.361,6.055 32.029,13.274 C32.029,13.274 32.17,7.734 31.409,0.103 C31.41,0.102 21.721,-0.853 7.303,3.078 L7.303,3.078 Z" fill="#0480BF"></path>
                    <path d="M0,32.645 C9.69,39.185 23.586,43.227 23.586,43.227 C23.586,43.227 36.025,34.978 43.25,24.245 L35.484,33.406 L22.496,30.507 L12.712,27.964 L0,32.645 L0,32.645 Z" fill="#9BCCE5"></path>
                    <path d="M31.41,0.102 C31.41,0.102 32.29,9.949 31.972,19.563 C31.689,28.099 31.033,37.499 31.033,37.499 C31.033,37.499 38.974,30.953 43.347,24.244 C43.347,24.244 41.712,15.289 31.41,0.102 L31.41,0.102 Z" fill="#68B3D9"></path>
                    <path d="M23.683,43.227 C14.761,40.657 4.612,35.802 0.096,32.645 C0.096,32.645 -1.006,16.429 4.271,4.015 C4.271,4.015 9.453,22.271 12.713,27.964 C17.695,36.662 23.683,43.227 23.683,43.227 L23.683,43.227 Z" opacity="0.8" fill="#0480BF"></path>
                    <path d="M4.271,4.014 C4.271,4.014 17.118,-0.52 30.166,0.052 C30.166,0.052 10.627,9.816 0.172,25.641 C0.172,25.641 0.725,9.629 4.271,4.014 L4.271,4.014 Z" opacity="0.9" fill="#3699CC"></path>
                </g>
            </g>
        </g>
    </g>
</svg>