<svg xmlns:rdf="http://www.w3.org/1999/02/22-rdf-syntax-ns#" xmlns="http://www.w3.org/2000/svg" xml:space="preserve" height="512px" width="512px" version="1.1" enable-background="new 0 0 512 512" xmlns:cc="http://creativecommons.org/ns#" xmlns:dc="http://purl.org/dc/elements/1.1/" viewBox="0 0 512 512"><metadata><rdf:RDF><cc:Work rdf:about=""><dc:format>image/svg+xml</dc:format><dc:type rdf:resource="http://purl.org/dc/dcmitype/StillImage"/><dc:title/></cc:Work></rdf:RDF></metadata><polyline points="257.01,125,133.4,168.5,152.93,330.44,257.14,387.71,361.88,329.66,381.4,167.73,257.01,125" fill="#ca403a" transform="matrix(1.901824,0,0,1.901824,-233.5333,-231.63437)"/><polyline points="147.27,177.78,164.01,322.61,256.72,374.03,256.72,138.77,147.27,177.78" fill="#e15855" transform="matrix(2.1253172,0,0,2.1253172,-291.06085,-288.92814)"/><path d="m254.98,54.129-143.37,318.85,53.513-0.93785,28.72-71.917h61.133l0.11717-0.0587,67.228,0.0587,31.416,72.914,51.168,0.93784-149.93-319.84zm0.41028,102.28,48.356,101.23-47.007,0-1.7584-0.0587-42.259,0,42.669-101.16z" fill="#FFF"/></svg>
