<?xml version="1.0" encoding="UTF-8" standalone="no"?>
<svg xmlns:rdf="http://www.w3.org/1999/02/22-rdf-syntax-ns#" xmlns="http://www.w3.org/2000/svg" height="1024" width="1024" version="1.1" xmlns:cc="http://creativecommons.org/ns#" xmlns:dc="http://purl.org/dc/elements/1.1/">
	<defs>
		<filter id="filter4042">
			<feGaussianBlur stdDeviation="22.109091"/>
		</filter>
		<mask id="mask4076" maskUnits="userSpaceOnUse">
			<rect height="1024" width="1024" y="-3.8281e-7" x="0" fill="#fff"/>
		</mask>
	</defs>
	<rect mask="url(#mask4076)" height="1024" filter="url(#filter4042)" width="1024" stroke="#000" y="-3.8281e-7" x="0" stroke-width="35.433" fill="none"/>
	<rect fill-opacity=".86275" height="1024" width="1024" y="-3.8281e-7" x="0" stroke-width="10.63"/>
	<path fill="#f2c43c" d="m777.31 536.7c-31.905-0.34268-66.493 11.906-85.416 39.221-16.951 24.667-18.781 57.73-9.6536 85.502 7.3723 21.524 23.518 38.824 42.919 50.218 28.81 18.383 62.904 26.524 91.447 45.312 12.979 9.0222 20.243 25.656 16.612 41.239-3.6144 18.496-21.734 30.076-39.367 32.613-20.836 3.2656-43.473 0.47062-60.871-12.209-10.763-7.4341-19.793-17.22-26.945-28.137-16.338 9.2477-32.57 18.679-48.857 28.014 17.029 30.948 48.136 53.302 82.455 60.699 34.384 8.197 71.796 6.2394 104.18-8.1641 25.532-11.926 45.599-36.467 48.943-64.843 5.208-30.99-2.8001-66.067-27.436-87.333-30.191-27.705-71.051-37.829-106.26-57.158-11.273-6.4732-21.386-16.95-22.625-30.459-2.458-14.484 3.7523-30.606 17.123-37.631 20.587-11.66 48.865-5.8872 63.84 12.297 2.791 3.1593 5.2844 6.58 7.4609 10.189 15.4-9.7104 30.698-19.594 46.008-29.473-14.002-24.136-38.068-42.659-65.917-47.185-8.867-1.8711-18.373-2.8219-27.641-2.7136zm-233.42 127.08c-0.54886 44.464 0.77984 88.997-1.002 133.42-2.4025 15.002-12.656 30.411-28.639 32.727-16.757 3.9494-36.305 1.2025-48.281-12.182-6.1031-6.1736-10.873-13.507-15.188-20.998-16.146 10.027-32.612 19.525-48.807 29.473 15.347 30.904 46.804 52.874 81.168 56.443 28.894 3.8314 60.155-0.0553 84.87-16.798 24.76-17.349 35.192-48.565 35.733-77.938 0.3651-25.601-0.44761-51.379-0.001-77.049v-169.97h-59.621c-0.0775 40.958-0.15495 81.915-0.23242 122.87z"/>
</svg>
