<?xml version="1.0" encoding="UTF-8" standalone="no"?>
<svg xml:space="preserve" height="100%" clip-rule="evenodd" xmlns:cc="http://creativecommons.org/ns#" xmlns:dc="http://purl.org/dc/elements/1.1/" xmlns:rdf="http://www.w3.org/1999/02/22-rdf-syntax-ns#" xmlns="http://www.w3.org/2000/svg" fill-rule="evenodd" viewBox="0 0 512 512" width="100%" version="1.1" stroke-miterlimit="1.4142" xmlns:xlink="http://www.w3.org/1999/xlink"><path d="m-346.04 607 124.73 218.71-1.74-218.71h-122.99zm193.03 0v304h-99.848l-112.9-197.96 1.57 197.96h-62.81v74.406c0 39.663 31.931 71.594 71.594 71.594h306.81c39.663 0 71.594-31.931 71.594-71.594v-306.81c0.006-39.67-31.925-71.6-71.588-71.6h-104.42z" fill-opacity=".59937" fill-rule="evenodd" fill="#fff"/><rect fill-rule="evenodd" ry="81.457" height="512" width="512" clip-rule="evenodd" y="-.0000019073" x="0"/><g transform="matrix(.98306 0 0 .98306 9.8079 9.8079)"><rect ry="79.686" height="500.87" width="500.87" y="-.0000054922" x="-.0000044922" fill="#cb3837"/><g fill-rule="nonzero" transform="matrix(.90408 0 0 .90408 90.287 66.627)" clip-rule="evenodd" stroke-miterlimit="1.4142" fill="#fff"><path d="m323.16 224.46c0.001 12.494-2.8879 22.076-8.6676 28.751-5.7377 6.6732-13.98 10.011-24.723 10.011-4.7615 0-9.176-0.81477-13.246-2.4418l0.001-18.984c3.4993 2.6452 7.488 3.9671 11.965 3.9671 9.6845 0.001 14.527-7.3457 14.527-22.037v-56.709l20.143 0.001v57.441z" transform="matrix(1.125 0 0 1.125 -31.431 -35.679)"/><path d="m339.82 237.77c7.61 6.3084 16.257 9.462 25.943 9.462 5.4937 0 9.6247-0.93552 12.392-2.8078 2.7672-1.913 4.1514-4.3548 4.1501-7.3253 0.001-2.5638-1.0982-4.9852-3.2959-7.2643s-7.9952-5.3716-17.396-9.279c-14.773-6.2665-22.159-15.382-22.159-27.348 0-8.7883 3.3366-15.605 10.011-20.449 6.7152-4.8823 15.586-7.324 26.614-7.324 9.2383 0 16.991 1.2012 23.257 3.601v18.924c-6.3478-4.3141-13.775-6.4711-22.281-6.4711-4.9649 0-8.932 0.91646-11.903 2.7481-2.9718 1.7897-4.4552 4.2111-4.4564 7.263 0.001 2.4418 1.0169 4.7005 3.0519 6.7762 2.035 2.035 7.0609 4.8009 15.079 8.3015 9.3997 4.0281 15.849 8.2812 19.35 12.758 3.54 4.4755 5.3106 9.8078 5.3106 15.993 0 9.0756-3.2159 15.993-9.6451 20.754-6.4292 4.7615-15.565 7.1423-27.409 7.1423-10.825 0-19.696-1.7503-26.614-5.2496v-20.205z" transform="matrix(1.125 0 0 1.125 -31.431 -35.679)"/></g><path d="m79.687-0.0000055597c-44.146 0-79.687 35.541-79.687 79.687v258.68h69.913l-1.7478-220.34 125.66 220.34h111.13v-338.37h-77.952l1.94 243.44-138.83-243.44h-10.422zm376.1 7.8348c2.3234 1.1163 4.5835 2.3414 6.7739 3.6696-2.1899-1.3278-4.4511-2.5535-6.7739-3.6696zm16.139 10.317c1.9663 1.6214 3.8517 3.3365 5.6522 5.137-1.8004-1.8004-3.6859-3.5156-5.6522-5.137zm5.6522 5.137c1.8004 1.8004 3.5156 3.6859 5.137 5.6522-1.6214-1.9663-3.3365-3.8518-5.137-5.6522zm11.785 15.017c1.3282 2.1904 2.5533 4.4505 3.6696 6.7739-1.116-2.3229-2.3417-4.584-3.6696-6.7739zm-481.53 417.48c1.116 2.3229 2.3417 4.584 3.6696 6.7739-1.3282-2.1904-2.5533-4.4505-3.6696-6.7739zm485.2 0c-1.1163 2.3234-2.3414 4.5835-3.6696 6.7739 1.3278-2.1899 2.5536-4.451 3.6696-6.7739zm-474.88 16.14c1.6214 1.9663 3.3365 3.8518 5.137 5.6522-1.8004-1.8004-3.5155-3.6859-5.137-5.6522zm5.137 5.6522c1.8004 1.8004 3.6859 3.5156 5.6522 5.137-1.9663-1.6214-3.8517-3.3365-5.6522-5.137zm459.43-5.6522c-1.6214 1.9663-3.3365 3.8517-5.137 5.6522 1.8004-1.8004 3.5156-3.6859 5.137-5.6522zm-5.137 5.6522c-1.8004 1.8004-3.6859 3.5156-5.6522 5.137 1.9663-1.6214 3.8518-3.3366 5.6522-5.137zm-439.27 11.79c2.1899 1.3278 4.451 2.5536 6.7739 3.6696-2.3234-1.1163-4.5835-2.3414-6.7739-3.6696zm424.26 0c-2.1904 1.3282-4.4505 2.5533-6.7739 3.6696 2.3228-1.116 4.584-2.3417 6.7739-3.6696z" fill-opacity=".55205" fill-rule="evenodd" clip-rule="evenodd"/><g fill-rule="evenodd" transform="matrix(1.6491 1.6491 -1.6491 1.6491 299.59 -358.25)" clip-rule="evenodd" stroke-miterlimit="1.4142"><g stroke-miterlimit="1.4142" clip-rule="evenodd" fill-rule="evenodd"><path d="m116.72 333.05-42.858-0.001v41.434l42.858 0.001v-41.434z" transform="matrix(.35435 -.35435 .35435 .35435 -10.678 192.96)" fill="#242424"/><path d="m159.57 333.05h-42.856v41.434h42.856v-41.434z" transform="matrix(.35435 -.35435 .35435 .35435 -10.678 192.96)" fill="#fff"/><path d="m202.43 333.05h-42.856v41.434h42.856v-41.434z" transform="matrix(.35435 -.35435 .35435 .35435 -10.678 192.96)" fill="#242424"/><path d="m245.28 333.05h-42.856v41.434l42.858-0.001-0.001-41.433z" transform="matrix(.35435 -.35435 .35435 .35435 -10.678 192.96)" fill="#fff"/><path d="m288.14 333.05-42.858 0.001 0.001 41.433h42.856v-41.434z" transform="matrix(.35435 -.35435 .35435 .35435 -10.678 192.96)" fill="#242424"/><path d="m73.858 333.05-42.858 0.001 0.0014 41.433h42.856v-41.434z" transform="matrix(.35435 -.35435 .35435 .35435 -10.678 192.96)" fill="#fff"/><path d="m116.72 374.48-42.858-0.001v41.434h42.856l0.001-41.433z" transform="matrix(.35435 -.35435 .35435 .35435 -10.678 192.96)" fill="#fff"/><path d="m159.57 374.48h-42.856l-0.001 41.433 42.858 0.001v-41.434z" transform="matrix(.35435 -.35435 .35435 .35435 -10.678 192.96)" fill="#242424"/><path d="m202.43 374.48h-42.856v41.434h42.856v-41.434z" transform="matrix(.35435 -.35435 .35435 .35435 -10.678 192.96)" fill="#fff"/><path d="m245.29 374.48-42.858 0.001v41.434l42.858-0.001v-41.434z" transform="matrix(.35435 -.35435 .35435 .35435 -10.678 192.96)" fill="#242424"/><path d="m288.14 374.48h-42.856v41.434h42.856v-41.434z" transform="matrix(.35435 -.35435 .35435 .35435 -10.678 192.96)" fill="#fff"/><path d="m73.858 374.48h-42.856v41.434h42.856v-41.434z" transform="matrix(.35435 -.35435 .35435 .35435 -10.678 192.96)" fill="#242424"/><path d="m331 374.48-42.858-0.001v41.434h42.856l0.001-41.433z" transform="matrix(.35435 -.35435 .35435 .35435 -10.678 192.96)" fill="#242424"/><path d="m331 333.05-42.856 0.00001v41.434h42.856l0.00001-41.434z" transform="matrix(.35435 -.35435 .35435 .35435 -10.678 192.96)" fill="#fff"/></g><path d="m239.81 178.5-15.187 15.186 14.682 14.682 15.187-15.186-14.682-14.682z" fill="#242424"/><path d="m255 163.31-15.186 15.186 14.682 14.682 15.186-15.186-14.682-14.682z" fill="#fff"/><path d="m270.18 148.13-15.186 15.186 14.682 14.682 15.186-15.186-14.682-14.682z" fill="#242424"/><path d="m254.49 193.18-15.187 15.186 14.682 14.682 15.186-15.186-14.681-14.682z" fill="#fff"/><path d="m269.68 178-15.186 15.186 14.681 14.682 15.187-15.186-14.682-14.682z" fill="#242424"/><path d="m284.86 162.81-15.186 15.186 14.682 14.682 15.186-15.186-14.682-14.682z" fill="#fff"/></g></g></svg>
